<svg width="25" height="25" viewBox="0 0 25 25" fill="none" xmlns="http://www.w3.org/2000/svg">
<path opacity="0.5" d="M20.6282 10.131L23.5814 10.614C23.8252 10.6554 24 10.8624 24 11.1062V13.857C24 14.1008 23.8252 14.3078 23.586 14.3492L20.6282 14.869C20.458 15.4624 20.2234 16.0328 19.9244 16.571L21.6724 18.9998C21.815 19.1976 21.792 19.4736 21.6218 19.6438L19.676 21.5896C19.5058 21.7598 19.2344 21.7874 19.0366 21.6448L16.5848 19.9244C16.042 20.2234 15.4716 20.4672 14.869 20.642L14.3446 23.586C14.3032 23.8252 14.0962 24 13.8524 24H11.1016C10.8578 24 10.6508 23.8252 10.6094 23.5814L10.1264 20.6558C9.5284 20.481 8.9488 20.2464 8.406 19.9428L5.9726 21.6494C5.7748 21.7874 5.5034 21.7644 5.3332 21.5942L3.3828 19.6484C3.208 19.4736 3.1896 19.2022 3.3276 19.0044L5.048 16.5986C4.749 16.0466 4.5052 15.467 4.3304 14.8644L1.414 14.3492C1.1748 14.3078 1 14.1008 1 13.857V11.1062C1 10.8624 1.1748 10.6554 1.4186 10.614L4.335 10.1264C4.5098 9.5238 4.7536 8.9442 5.0526 8.3968L3.3552 5.9634C3.2172 5.7656 3.2402 5.4942 3.4104 5.324L5.3562 3.3782C5.531 3.208 5.8024 3.185 6.0002 3.323L8.4152 5.048C8.958 4.749 9.533 4.5144 10.1356 4.3442L10.614 1.4186C10.6554 1.1748 10.8624 1 11.1062 1H13.857C14.1008 1 14.3078 1.1748 14.3492 1.414L14.8644 4.358C15.4624 4.5328 16.0374 4.772 16.5802 5.071L19.0044 3.3322C19.2022 3.1896 19.4782 3.2126 19.6484 3.3828L21.5942 5.324C21.7644 5.4942 21.792 5.7656 21.6494 5.9634L19.9244 8.429C20.2188 8.9672 20.4534 9.5376 20.6282 10.131ZM9.004 12.5046C9.004 14.4366 10.5726 16.0052 12.5046 16.0052C14.4366 16.0052 16.0052 14.4366 16.0052 12.5046C16.0052 10.5726 14.4366 9.004 12.5046 9.004C10.568 9.004 9.004 10.568 9.004 12.5046Z" stroke="black" stroke-width="1.5" stroke-miterlimit="133.333"/>
</svg>
