<svg width="24" height="24" viewBox="0 0 24 24" fill="none" xmlns="http://www.w3.org/2000/svg">
<g opacity="0.5">
<path d="M16.2316 1H7.77349C5.96594 1.00982 4.2419 1.73677 2.96974 3.01875C1.69758 4.30565 0.990277 6.03952 1.0001 7.84706V16.1578C0.990277 17.9654 1.69758 19.6993 2.96974 20.9812C4.2419 22.2632 5.96594 22.9902 7.77349 23H16.2365C18.0441 22.9902 19.7681 22.2632 21.0403 20.9812C22.3124 19.6993 23.0197 17.9605 23.0099 16.1578V7.84706C23.0197 6.03952 22.3124 4.30565 21.0403 3.02367C19.7681 1.73677 18.0392 1.00982 16.2316 1Z" stroke="black" stroke-width="1.5" stroke-miterlimit="128" stroke-linecap="round" stroke-linejoin="round"/>
<path d="M13.0782 9.69043H18.3388V14.9313" stroke="black" stroke-width="1.5" stroke-miterlimit="128" stroke-linecap="round" stroke-linejoin="round"/>
<path d="M18.3388 9.69043L11.7373 16.4835C11.1577 17.0631 10.2343 17.0974 9.61052 16.5719L8.19592 15.3685C7.86683 15.0885 7.43459 14.9559 7.00726 15.005C6.57502 15.0541 6.18699 15.2752 5.92667 15.619C5.86772 15.7025 5.80387 15.786 5.7351 15.8597L2.07581 19.8628" stroke="black" stroke-width="1.5" stroke-miterlimit="128" stroke-linecap="round" stroke-linejoin="round"/>
</g>
</svg>
