<svg width="35" height="36" viewBox="0 0 35 36" fill="none" xmlns="http://www.w3.org/2000/svg">
<path d="M29.1622 14.601L33.3994 15.294C33.7492 15.3534 34 15.6504 34 16.0002V19.947C34 20.2968 33.7492 20.5938 33.406 20.6532L29.1622 21.399C28.918 22.2504 28.5814 23.0688 28.1524 23.841L30.6604 27.3258C30.865 27.6096 30.832 28.0056 30.5878 28.2498L27.796 31.0416C27.5518 31.2858 27.1624 31.3254 26.8786 31.1208L23.3608 28.6524C22.582 29.0814 21.7636 29.4312 20.899 29.682L20.1466 33.906C20.0872 34.2492 19.7902 34.5 19.4404 34.5H15.4936C15.1438 34.5 14.8468 34.2492 14.7874 33.8994L14.0944 29.7018C13.2364 29.451 12.4048 29.1144 11.626 28.6788L8.1346 31.1274C7.8508 31.3254 7.4614 31.2924 7.2172 31.0482L4.4188 28.2564C4.168 28.0056 4.1416 27.6162 4.3396 27.3324L6.808 23.8806C6.379 23.0886 6.0292 22.257 5.7784 21.3924L1.594 20.6532C1.2508 20.5938 1 20.2968 1 19.947V16.0002C1 15.6504 1.2508 15.3534 1.6006 15.294L5.785 14.5944C6.0358 13.7298 6.3856 12.8982 6.8146 12.1128L4.3792 8.6214C4.1812 8.3376 4.2142 7.9482 4.4584 7.704L7.2502 4.9122C7.501 4.668 7.8904 4.635 8.1742 4.833L11.6392 7.308C12.418 6.879 13.243 6.5424 14.1076 6.2982L14.794 2.1006C14.8534 1.7508 15.1504 1.5 15.5002 1.5H19.447C19.7968 1.5 20.0938 1.7508 20.1532 2.094L20.8924 6.318C21.7504 6.5688 22.5754 6.912 23.3542 7.341L26.8324 4.8462C27.1162 4.6416 27.5122 4.6746 27.7564 4.9188L30.5482 7.704C30.7924 7.9482 30.832 8.3376 30.6274 8.6214L28.1524 12.159C28.5748 12.9312 28.9114 13.7496 29.1622 14.601ZM12.484 18.0066C12.484 20.7786 14.7346 23.0292 17.5066 23.0292C20.2786 23.0292 22.5292 20.7786 22.5292 18.0066C22.5292 15.2346 20.2786 12.984 17.5066 12.984C14.728 12.984 12.484 15.228 12.484 18.0066Z" stroke="#222229" stroke-width="1.5" stroke-miterlimit="133.333"/>
</svg>
