<svg width="37" height="36" viewBox="0 0 37 36" fill="none" xmlns="http://www.w3.org/2000/svg">
<g opacity="0.6">
<path fill-rule="evenodd" clip-rule="evenodd" d="M10.5398 0.25C11.2045 0.25 11.7432 0.788784 11.7432 1.45341V7.07929C11.7432 7.74391 11.2045 8.28269 10.5398 8.28269C9.87521 8.28269 9.33643 7.74391 9.33643 7.07929V1.45341C9.33643 0.788784 9.87521 0.25 10.5398 0.25Z" fill="black"/>
<path fill-rule="evenodd" clip-rule="evenodd" d="M25.5623 0.25C26.2269 0.25 26.7657 0.788784 26.7657 1.45341V7.07929C26.7657 7.74391 26.2269 8.28269 25.5623 8.28269C24.8977 8.28269 24.3589 7.74391 24.3589 7.07929V1.45341C24.3589 0.788784 24.8977 0.25 25.5623 0.25Z" fill="black"/>
<path fill-rule="evenodd" clip-rule="evenodd" d="M5.771 14.74C5.771 14.0754 6.30978 13.5366 6.9744 13.5366H29.1872C29.8518 13.5366 30.3906 14.0754 30.3906 14.74C30.3906 15.4047 29.8518 15.9434 29.1872 15.9434H6.9744C6.30978 15.9434 5.771 15.4047 5.771 14.74Z" fill="black"/>
<path fill-rule="evenodd" clip-rule="evenodd" d="M4.30603 7.64501C3.06404 8.97877 2.40682 10.9745 2.40682 13.6029V24.7093C2.40682 27.3387 3.06453 29.3488 4.31337 30.6895C5.54585 32.0126 7.52898 32.8703 10.5889 32.8425L10.5998 32.8424V32.8425H25.5623C28.5963 32.8425 30.5687 31.9854 31.7962 30.6672C33.0382 29.3334 33.6954 27.3377 33.6954 24.7093V13.6029C33.6954 10.9745 33.0383 8.9803 31.7907 7.64717C30.5569 6.32862 28.5695 5.46974 25.5024 5.46974H10.54C7.5059 5.46974 5.53355 6.32679 4.30603 7.64501ZM2.54463 6.00481C4.35449 4.06122 7.05042 3.06293 10.54 3.06293H25.5024C29.0188 3.06293 31.7296 4.05939 33.5481 6.00266C35.3529 7.93134 36.1022 10.6054 36.1022 13.6029V24.7093C36.1022 27.7068 35.353 30.3793 33.5576 32.3074C31.7477 34.251 29.0518 35.2493 25.5623 35.2493H10.6053C7.08438 35.2802 4.37117 34.2826 2.55225 32.33C0.748758 30.3939 0 27.7058 0 24.7093V13.6029C0 10.6054 0.749244 7.93287 2.54463 6.00481Z" fill="black"/>
</g>
</svg>
