<svg width="284" height="43" fill="none" xmlns="http://www.w3.org/2000/svg"><path fill-rule="evenodd" clip-rule="evenodd" d="M283.378 10.234v.952l-12.059 24.197c-.952 1.904-2.142 3.332-3.57 4.204-1.428.873-3.332 1.27-5.712 1.27h-5.95v-5.792h5.633c.793 0 1.428-.08 1.904-.317.476-.159.872-.555 1.19-1.11L253.39 11.264v-.952h6.981l8.092 16.422 7.933-16.422h6.982v-.079ZM67.671 33.637c-2.777 0-5.236-.476-7.299-1.428-2.062-.952-3.65-2.3-4.76-3.966-1.11-1.746-1.666-3.808-1.666-6.11v-.554c0-2.38.556-4.443 1.666-6.268 1.11-1.745 2.698-3.094 4.76-4.046 2.063-.952 4.522-1.428 7.299-1.428 2.618 0 4.919.397 6.981 1.27 2.063.872 3.65 2.062 4.76 3.57 1.11 1.428 1.666 3.094 1.666 4.998h-6.822c-.08-1.111-.714-1.984-1.825-2.698-1.19-.793-2.856-1.19-4.84-1.19-2.22 0-3.966.476-5.156 1.508-1.19.952-1.745 2.459-1.745 4.284v.476c0 1.824.555 3.173 1.745 4.204 1.19.952 2.935 1.428 5.157 1.428 1.983 0 3.649-.396 4.839-1.11 1.11-.714 1.745-1.587 1.825-2.777h6.822c0 1.904-.555 3.57-1.666 5.077-1.11 1.508-2.697 2.698-4.68 3.57-1.984.794-4.364 1.19-7.061 1.19Zm30.702 0c-2.856 0-5.316-.476-7.458-1.428-2.062-.952-3.728-2.221-4.839-3.966-1.11-1.746-1.666-3.808-1.666-6.188v-.556c0-2.46.556-4.522 1.666-6.267 1.11-1.745 2.698-3.094 4.84-4.046 2.062-.952 4.6-1.428 7.457-1.428 2.856 0 5.315.476 7.378 1.428 2.062.952 3.649 2.3 4.76 4.046 1.11 1.745 1.666 3.887 1.666 6.267v.556c0 2.38-.556 4.442-1.666 6.188-1.111 1.745-2.698 3.094-4.76 3.966-2.142.952-4.602 1.428-7.378 1.428Zm-.08-6.03c2.222 0 3.967-.475 5.157-1.427 1.19-.952 1.825-2.38 1.825-4.125v-.476c0-1.825-.635-3.253-1.825-4.284-1.19-1.032-2.935-1.508-5.157-1.508-2.3 0-4.046.476-5.236 1.508-1.19.952-1.824 2.459-1.824 4.284v.476c0 1.824.635 3.173 1.825 4.125 1.269.952 3.014 1.428 5.235 1.428Zm151.765-17.373v22.769h-6.109l-.159-1.984c-2.062 1.666-4.76 2.539-7.933 2.539-2.618 0-4.919-.476-6.902-1.428-1.904-.952-3.411-2.3-4.522-4.125-1.031-1.746-1.587-3.808-1.587-6.188v-.476c0-2.38.556-4.443 1.587-6.188 1.031-1.746 2.539-3.094 4.522-4.046 1.983-.952 4.284-1.428 6.902-1.428 3.015 0 5.553.793 7.695 2.3v-1.745h6.506ZM236.73 27.608c1.428 0 2.697-.238 3.887-.714s2.142-1.11 2.856-1.904v-6.743c-.635-.794-1.587-1.428-2.777-1.904-1.19-.476-2.538-.714-3.966-.714-2.222 0-3.967.476-5.236 1.507-1.27 1.031-1.904 2.38-1.904 4.205v.476c0 1.824.634 3.252 1.904 4.204 1.19 1.11 2.935 1.587 5.236 1.587Zm-93.851-26.18v31.654h-6.109l-.159-1.983c-2.062 1.666-4.76 2.538-7.933 2.538-2.618 0-4.919-.476-6.902-1.428-1.904-.952-3.411-2.3-4.522-4.125-1.031-1.745-1.587-3.808-1.587-6.188v-.476c0-2.38.556-4.443 1.587-6.188s2.539-3.094 4.522-4.046c1.983-.952 4.284-1.428 6.902-1.428 3.015 0 5.553.793 7.695 2.3V1.429h6.506Zm-13.328 26.18c1.428 0 2.697-.238 3.887-.714s2.142-1.11 2.856-1.904v-6.743c-.635-.794-1.587-1.428-2.777-1.904-1.19-.476-2.538-.714-3.966-.714-2.222 0-3.967.476-5.236 1.507-1.27 1.031-1.904 2.38-1.904 4.205v.476c0 1.824.634 3.252 1.904 4.204 1.19 1.11 2.935 1.587 5.236 1.587Zm26.418-17.374v22.769h-6.585V10.234h6.585Zm-3.253-2.618c-1.19 0-2.221-.317-2.935-1.031-.794-.714-1.111-1.666-1.111-2.777 0-1.19.397-2.063 1.111-2.777C150.574.317 151.526 0 152.716 0c1.269 0 2.221.317 3.015 1.031.714.714 1.11 1.666 1.11 2.777 0 1.19-.396 2.063-1.11 2.777-.873.634-1.825 1.031-3.015 1.031Zm20.547 11.107v5.87h-11.741v-5.87h11.741Zm49.187-8.489v.952l-8.885 21.817h-8.648l-5.95-14.44-5.87 14.44h-8.568l-8.886-21.817v-.952h7.061l6.188 16.58 6.743-16.58h6.744l6.902 16.819 6.425-16.819h6.744Z" fill="#fff"/><path fill-rule="evenodd" clip-rule="evenodd" d="M0 23.006A23.177 23.177 0 0 0 3.332 34.59a22.799 22.799 0 0 0 7.695 7.616c-.238-.952.159-1.746.952-2.46 1.27-1.11 3.65-1.824 5.157-2.3.238-.08.476-.159.635-.159 2.3-.714 3.808-1.428 4.522-2.142.238-.238.317-.396.317-.555 0-.159-.08-.317-.317-.476-.397-.318-1.111-.556-2.142-.794-.397-.079-3.65-.555-3.57-1.11.079-.318 3.332-.318 3.49-.318 2.142.08 4.522.397 6.109.953.793.317 1.428.713 1.825 1.19.396.555.476 1.269 0 2.062-.476.873-1.587 1.825-3.57 3.015-.16.08-.318.238-.397.317.08.08.317.238.714.317.476.238 1.19.476 1.904.714.952.318 1.983.714 3.015 1.111.952.397 1.983.873 2.856 1.428 3.887-1.904 7.06-4.76 9.282-8.25 2.22-3.491 3.49-7.537 3.49-11.821H34.431a9.15 9.15 0 0 1-.238 2.063 10.386 10.386 0 0 1-.714 2.22c-.318.715-.635 1.35-1.111 1.984-.397.635-.952 1.19-1.428 1.745l-.317.318-8.33-8.41L14.2 31.02l-.318-.317c-.476-.556-.952-1.111-1.269-1.746a10.66 10.66 0 0 1-.952-1.904c-.238-.714-.476-1.428-.635-2.142-.158-.634-.158-1.27-.238-1.904l-2.062-2.063-3.174-3.728L0 23.006Z" fill="#CFCFCF"/><path fill-rule="evenodd" clip-rule="evenodd" d="M34.827 3.648c-1.19-.793-2.46-1.428-3.808-1.983C26.815 0 22.372-.318 18.088.555c-4.284.872-8.25 2.935-11.424 6.108-2.063 2.063-3.729 4.601-4.919 7.378A22.142 22.142 0 0 0 0 22.688v.318h10.79v-.318c0-1.586.317-3.094.872-4.522.635-1.428 1.507-2.776 2.539-3.808 1.666-1.666 3.728-2.776 5.95-3.173a11.604 11.604 0 0 1 6.743.555 9.133 9.133 0 0 1 1.983.952c.556.318 1.032.714 1.508 1.111L38 6.108a22.739 22.739 0 0 0-3.174-2.46Z" fill="#fff"/></svg>