<svg width="38" height="48" fill="none" xmlns="http://www.w3.org/2000/svg"><path d="M34.461 48H2.997c-.842 0-1.684-.306-2.22-.919-.536-.612-.842-1.378-.765-2.22L1.849 14.01c.153-1.608 1.378-2.833 2.986-2.833h27.79c1.607 0 2.832 1.148 2.985 2.756l1.837 30.928c.077.766-.23 1.531-.766 2.144a2.865 2.865 0 0 1-2.22.995ZM4.835 13.474c-.536 0-.69.536-.69.689L2.309 45.014c0 .23 0 .383.153.46.154.153.307.23.536.23h31.464c.307 0 .46-.154.536-.23.077-.077.153-.23.153-.46l-1.837-30.928c0-.153-.077-.612-.689-.612H4.834Z" fill="#222229"/><path d="M28.337 12.325H26.04V9.57c0-3.98-3.292-7.272-7.35-7.272-4.057 0-7.272 3.292-7.272 7.272v2.756H9.121V9.57C9.121 4.287 13.408 0 18.691 0c5.282 0 9.646 4.287 9.646 9.57v2.755ZM18.69 27.1c-5.282 0-9.569-4.287-9.569-9.569h2.297c0 4.058 3.292 7.273 7.273 7.273 3.98 0 7.273-3.292 7.273-7.273h2.296c.077 5.282-4.287 9.57-9.57 9.57Z" fill="#222229"/></svg>