<svg width="34" height="34" fill="none" xmlns="http://www.w3.org/2000/svg"><path fill-rule="evenodd" clip-rule="evenodd" d="M17.113.467h.14c3.945 0 4.577 0 6.216.135 1.752.006 2.993.304 4.097.773 1.259.476 2.223 1.124 3.154 2.055.971.971 1.596 2.082 2.043 3.126.503 1.174.647 2.466.78 4.07l.005.056v.055c0 .531.018.941.041 1.488l.026.61c.034.881.068 2.083.068 4.132v.07c0 3.945 0 4.576-.135 6.215-.006 1.752-.304 2.994-.773 4.097-.476 1.26-1.124 2.223-2.055 3.154-.971.971-2.082 1.596-3.126 2.043-1.174.504-2.466.647-4.07.78-1.681.14-2.283.14-6.27.14h-.14c-3.946 0-4.577 0-6.216-.135-1.752-.006-2.994-.304-4.097-.773-1.26-.476-2.223-1.124-3.154-2.055-.972-.971-1.596-2.082-2.043-3.126-.504-1.174-.647-2.466-.78-4.07-.14-1.68-.14-2.282-.14-6.27v-.14c0-3.945 0-4.576.135-6.216.006-1.751.304-2.993.773-4.097.476-1.259 1.124-2.223 2.055-3.154.93-.931 1.895-1.579 3.155-2.055C7.968.88 9.252.739 10.843.607c1.68-.14 2.282-.14 6.27-.14Zm.07 2.666c-4.074 0-4.558 0-6.118.13-1.646.138-2.52.265-3.242.574l-.028.013-.03.01c-.893.335-1.546.768-2.233 1.455s-1.12 1.34-1.455 2.234l-.01.029-.013.028c-.331.774-.57 1.678-.57 3.131v.056l-.004.055c-.13 1.56-.13 2.045-.13 6.119s0 4.558.13 6.118c.137 1.646.265 2.52.574 3.242.365.852.824 1.637 1.478 2.291.687.687 1.34 1.12 2.234 1.455l.029.01.028.013c.774.331 1.677.57 3.131.57h.055l.056.004c1.56.13 2.044.13 6.118.13s4.56 0 6.119-.13c1.646-.137 2.52-.265 3.242-.574.852-.365 1.637-.824 2.29-1.478.688-.687 1.12-1.34 1.456-2.234l.01-.029.013-.028c.331-.774.569-1.677.569-3.131v-.056l.005-.055c.13-1.56.13-2.044.13-6.118a98.222 98.222 0 0 0-.09-4.59 36.513 36.513 0 0 1-.045-1.583c-.136-1.611-.264-2.474-.57-3.188-.365-.852-.824-1.637-1.477-2.29-.687-.688-1.34-1.12-2.234-1.456l-.029-.01-.028-.013c-.774-.331-1.678-.569-3.131-.569h-.056l-.055-.004c-1.56-.13-2.045-.131-6.119-.131Z" fill="#222229"/><path fill-rule="evenodd" clip-rule="evenodd" d="M22.756 8.841c0-1.166.896-2.416 2.416-2.416.606 0 1.247.187 1.739.678.49.492.678 1.133.678 1.738 0 1.167-.896 2.417-2.417 2.417-1.166 0-2.416-.896-2.416-2.417Zm2.603.156a.223.223 0 0 0 .063-.156.229.229 0 0 0-.022-.086.307.307 0 0 0-.072-.1.224.224 0 0 0-.156-.063.23.23 0 0 0-.086.022.307.307 0 0 0-.1.072.224.224 0 0 0-.063.138l.006.017v.003a.41.41 0 0 0 .096.144.411.411 0 0 0 .145.096l.002.001a.224.224 0 0 0 .016.005.305.305 0 0 0 .172-.093ZM9.485 16.967a7.69 7.69 0 0 1 7.698-7.698c4.195 0 7.427 3.652 7.427 7.698 0 4.102-3.287 7.562-7.563 7.562-4.102 0-7.562-3.286-7.562-7.562Zm7.698-5.032a5.024 5.024 0 0 0-5.032 5.032 4.88 4.88 0 0 0 4.896 4.896 4.88 4.88 0 0 0 4.897-4.896c0-2.726-2.186-5.032-4.761-5.032Z" fill="#222229"/></svg>