<svg width="30" height="30" viewBox="0 0 30 30" fill="none" xmlns="http://www.w3.org/2000/svg">
<path d="M14.9844 15.7838C19.2168 15.7838 22.5634 12.4054 22.5634 8.35138C22.5634 4.2008 19.1184 0.918945 14.9844 0.918945C10.8503 0.918945 7.40531 4.2008 7.40531 8.25485C7.40531 12.4054 10.8503 15.7838 14.9844 15.7838ZM28.2723 22.6371C25.4179 19.9344 18.7247 19.3552 14.9844 19.3552C11.2441 19.3552 4.55086 19.9344 1.79484 22.6371C0.908976 23.4093 0.810547 24.7606 0.810547 24.7606C0.810547 27.2703 2.58227 29.2973 4.74772 29.2973H25.221C27.3864 29.2973 29.1582 27.2703 29.1582 24.7606C29.2566 24.7606 29.1582 23.4093 28.2723 22.6371Z" fill="white"/>
</svg>
