<svg width="45" height="45" fill="none" xmlns="http://www.w3.org/2000/svg"><path fill-rule="evenodd" clip-rule="evenodd" d="M18.936 2.228c-9.228 0-16.708 7.48-16.708 16.708 0 9.227 7.48 16.708 16.708 16.708 9.227 0 16.708-7.48 16.708-16.708 0-9.228-7.48-16.708-16.708-16.708ZM0 18.936C0 8.478 8.478 0 18.936 0 29.393 0 37.87 8.478 37.87 18.936c0 10.457-8.478 18.935-18.935 18.935C8.478 37.871 0 29.393 0 18.936Z" fill="#222229"/><path fill-rule="evenodd" clip-rule="evenodd" d="M18.943 7.446c-6.35 0-11.49 5.147-11.49 11.49a1.114 1.114 0 0 1-2.227 0c0-7.573 6.137-13.718 13.717-13.718a1.114 1.114 0 1 1 0 2.228ZM30.752 30.752a1.114 1.114 0 0 1 1.575 0l12.347 12.347a1.114 1.114 0 0 1-1.575 1.575L30.752 32.327a1.114 1.114 0 0 1 0-1.575Z" fill="#222229"/></svg>