<svg width="67" height="92" fill="none" xmlns="http://www.w3.org/2000/svg"><path d="M33.498 2C16.162 2 2 16.337 2 33.888c0 1.236 0 2.719.244 3.955 2.442 24.224 27.348 49.685 28.569 50.921.732.742 1.709 1.236 2.685 1.236.977 0 1.954-.494 2.686-1.236.977-.989 25.883-26.697 28.569-50.674.244-1.236.244-2.72.244-3.955C65.24 16.337 51.079 2 33.498 2Zm0 43.506c-6.348 0-11.476-5.191-11.476-11.618 0-6.427 5.128-11.618 11.476-11.618 6.349 0 11.477 5.19 11.477 11.618 0 6.427-5.128 11.618-11.477 11.618Z" stroke="#222229" stroke-width="2.5" stroke-miterlimit="10"/></svg>