<svg width="40" height="33" fill="none" xmlns="http://www.w3.org/2000/svg"><path d="m3.374 14.85 22.954-9.498c2.276-.99 9.993-4.155 9.993-4.155s3.562-1.386 3.265 1.978c-.1 1.386-.89 6.234-1.682 11.477L35.43 30.186s-.197 2.275-1.88 2.671c-1.681.396-4.452-1.385-4.946-1.78-.396-.298-7.42-4.75-9.993-6.927-.693-.593-1.484-1.78.099-3.166 3.561-3.265 7.816-7.321 10.388-9.894 1.188-1.187 2.375-3.957-2.572-.593l-13.95 9.399s-1.584.99-4.552.099c-2.968-.89-6.43-2.078-6.43-2.078s-2.276-1.484 1.78-3.067Z" fill="#fff"/></svg>