<svg width="91" height="91" fill="none" xmlns="http://www.w3.org/2000/svg"><path d="m14.21 51.969 24.783 24.783m49.913-42.305-3.574-22.516a7.502 7.502 0 0 0-6.263-6.263L56.553 2.094c-2.383-.384-4.803.423-6.532 2.114L4.218 50.009a7.537 7.537 0 0 0 0 10.682l26.09 26.09a7.537 7.537 0 0 0 10.682 0l45.801-45.802c1.691-1.729 2.498-4.15 2.114-6.532Zm-16.561-7.761c-2.229 2.228-5.84 2.228-8.03 0-2.23-2.229-2.23-5.84 0-8.03 2.228-2.23 5.84-2.23 8.03 0 2.228 2.19 2.228 5.801 0 8.03Z" stroke="#222229" stroke-width="2.5" stroke-miterlimit="10"/></svg>