<svg width="52" height="34" fill="none" xmlns="http://www.w3.org/2000/svg"><path fill-rule="evenodd" clip-rule="evenodd" d="M14.462 1.5a3.206 3.206 0 0 0-3.222 3.222.75.75 0 1 1-1.5 0A4.706 4.706 0 0 1 14.462 0h32.11c2.648 0 4.723 2.239 4.723 4.833v23.945a4.706 4.706 0 0 1-4.723 4.722h-32a4.706 4.706 0 0 1-4.722-4.722.75.75 0 0 1 1.5 0A3.206 3.206 0 0 0 14.573 32h32a3.206 3.206 0 0 0 3.222-3.222V4.833c0-1.82-1.456-3.333-3.223-3.333h-32.11Z" fill="#fff"/><path fill-rule="evenodd" clip-rule="evenodd" d="M11.882 2.388a.75.75 0 0 1 1.052-.135L30.92 16.157a.75.75 0 0 1-.917 1.186L12.017 3.44a.75.75 0 0 1-.135-1.052Z" fill="#fff"/><path fill-rule="evenodd" clip-rule="evenodd" d="M49.265 2.391a.75.75 0 0 1-.141 1.052L30.917 17.346a.75.75 0 1 1-.91-1.192L48.214 2.25a.75.75 0 0 1 1.05.141ZM.25 12.888a.75.75 0 0 1 .75-.75h11.034a.75.75 0 0 1 0 1.5H1a.75.75 0 0 1-.75-.75ZM3.56 20.612a.75.75 0 0 1 .75-.75h7.725a.75.75 0 1 1 0 1.5H4.31a.75.75 0 0 1-.75-.75Z" fill="#fff"/></svg>