<svg width="50" height="50" fill="none" xmlns="http://www.w3.org/2000/svg"><path d="M2 11.005C2 31.45 18.55 48 38.995 48c1.703 0 3.407 0 5.11-.243C46.54 47.513 48 45.323 48 43.132v-6.571c0-2.19-1.46-4.138-3.407-4.868l-8.032-2.677c-1.947-.73-4.138.487-4.868 2.677-.73 2.677-4.137 3.65-6.085 1.704l-8.761-9.005c-1.948-1.948-.974-5.355 1.703-6.085 2.19-.487 3.408-2.677 2.677-4.868L18.55 5.407C17.82 3.46 15.873 2 13.682 2h-6.57C4.676 2 2.73 3.704 2.486 5.894 2 7.598 2 9.302 2 11.005Z" stroke="#222229" stroke-width="2.5" stroke-miterlimit="10" stroke-linecap="round" stroke-linejoin="round"/></svg>