<?xml version="1.0" encoding="utf-8"?>
<!-- Generator: Adobe Illustrator 25.2.1, SVG Export Plug-In . SVG Version: 6.00 Build 0)  -->
<svg version="1.1" id="Layer_1" xmlns="http://www.w3.org/2000/svg" xmlns:xlink="http://www.w3.org/1999/xlink" x="0px" y="0px"
	 width="49px" height="46px" viewBox="0 0 49 46" style="enable-background:new 0 0 49 46;" xml:space="preserve">
<style type="text/css">
	.st0{fill-rule:evenodd;clip-rule:evenodd;fill:#222229;}
</style>
<path class="st0" d="M43.9,4.7L43.9,4.7c-2.7-2.6-6.4-4-10.1-3.8c-3.6,0.2-7,1.9-9.4,4.6c-2.4-2.7-5.7-4.4-9.3-4.6
	C11.3,0.7,7.7,2.1,5,4.7l0,0c-5.5,5.8-5.5,14.9,0,20.7l9.3,9.7l9.4,9.7c0,0,0,0,0,0c0.5,0.4,1.2,0.4,1.6,0l9.3-9.8l0,0l9.3-9.7l0,0
	C49.4,19.5,49.4,10.4,43.9,4.7z"/>
</svg>
