<svg width="46" height="46" fill="none" xmlns="http://www.w3.org/2000/svg"><path d="m8.308 37.28-1.923-.755c.069-.068.961-2.471 3.57-3.638 1.786-.756 5.562-2.472 6.866-3.09l.48-1.716.619-.344.068-1.716c-.412-.55-.961-1.58-1.304-3.364-.412-.412-.48-.756-.55-1.03l-.068-.275c0-.137-.069-1.304-.137-2.265l-.07-.618.619-.344c-.069-1.167-.275-3.432 0-4.6.343-1.716 2.746-4.874 9.68-5.423l2.197-.206-1.304 1.785c-.069.068-.137.206-.206.274 1.854 1.51 2.06 1.785 2.128 1.923.412.617.618 1.167.687 1.579.206 1.236.069 3.57-.069 4.668l.48.344v.549c-.137 2.266-.137 2.472-.205 2.54-.069.343-.206.687-.55 1.099-.343 1.854-.892 2.883-1.304 3.364l.069 1.716.618.344.48 1.716c1.305.618 5.012 2.334 6.797 3.02 2.61 1.1 3.502 3.571 3.57 3.64l-1.922.755s-.687-1.717-2.403-2.472c-2.128-.892-7.072-3.158-7.277-3.227l-.481-.206-.48-1.716-.893-.412-.206-3.845.343-.343s.687-.755 1.03-2.952l.069-.344.274-.274.206-.206v-.137c0-.138.069-.893.069-1.648l-.412-.343.069-.55c.068-.96.343-3.638.137-4.668 0 0-.069-.275-.343-.756-.275-.274-1.442-1.235-2.403-2.06l-.687-.549.069-.068c-4.257.824-5.63 2.746-5.767 3.433-.207 1.098 0 3.776.137 4.668l.069.687-.687.412c.069.618.069 1.373.137 1.648 0 .068.069.137.206.206l.275.274.069.344c.343 2.197 1.03 2.952 1.098 2.952l.412.343-.069.48-.206 3.296-.892.412-.55 1.716-.411.206c-.206.07-5.15 2.403-7.347 3.296-1.785.755-2.471 2.403-2.471 2.472Z" fill="#222229"/><path d="M23 46C10.299 46 0 35.702 0 23 0 10.299 10.299 0 23 0c12.702 0 23 10.299 23 23 0 12.702-10.298 23-23 23Zm0-43.94C11.466 2.06 2.06 11.466 2.06 23S11.466 43.94 23 43.94 43.94 34.534 43.94 23 34.534 2.06 23 2.06Z" fill="#222229"/></svg>