<svg width="49" height="46" fill="none" xmlns="http://www.w3.org/2000/svg"><path fill-rule="evenodd" clip-rule="evenodd" d="M42.262 6.254c-2.242-2.143-5.265-3.28-8.322-3.082a11.284 11.284 0 0 0-8.003 4.098l-.658.717a1.15 1.15 0 0 1-1.663.033l-.658-.662a1.158 1.158 0 0 1-.07-.077c-1.998-2.411-4.884-3.904-7.946-4.053h-.018c-3.058-.199-6.079.938-8.318 3.132-4.612 4.906-4.608 12.583.01 17.486l9.319 9.647 8.544 8.844 8.447-8.897 9.316-9.7.004-.004c4.618-4.9 4.623-12.575.016-17.482ZM33.79.877c3.734-.242 7.393 1.15 10.085 3.738l.04.04c5.463 5.794 5.463 14.87 0 20.663l-.007.008-9.32 9.703-.004.005-9.265 9.758a1.15 1.15 0 0 1-1.66.007l-9.38-9.708-9.332-9.662c-5.464-5.794-5.464-14.87 0-20.663l.03-.031C7.67 2.086 11.33.692 15.063.932c3.607.178 6.968 1.877 9.345 4.587A13.587 13.587 0 0 1 33.79.877Z" fill="#222229"/></svg>