<svg width="29" height="31" fill="none" xmlns="http://www.w3.org/2000/svg"><path d="m27.032 24.2.018.018.02.017c.206.184.363.484.45.8.012.043.022.083.03.119v.347c0 2.103-1.42 3.45-2.75 3.45H4c-1.318 0-2.723-1.321-2.75-3.39l.013-.09c.017-.101.046-.245.095-.405.105-.343.265-.647.472-.831l.028-.024.026-.026c1.123-1.123 3.205-1.917 5.684-2.408 2.421-.48 4.985-.626 6.832-.626 1.847 0 4.411.146 6.846.626 2.488.49 4.608 1.286 5.786 2.423Zm.55 1.164v-.005.005ZM20.85 8.501c0 3.52-2.85 6.45-6.45 6.45-3.5 0-6.45-2.93-6.45-6.55 0-3.489 2.919-6.35 6.45-6.35 3.52 0 6.45 2.85 6.45 6.45Z" stroke="#222229" stroke-width="2.5"/></svg>