<svg width="26" height="25" fill="none" xmlns="http://www.w3.org/2000/svg"><path d="m13.435 1.044 3.119 6.302c.153.286.417.505.746.55l6.962 1.01c.813.11 1.142 1.12.549 1.69l-5.03 4.92a.933.933 0 0 0-.284.878l1.185 6.94a1.002 1.002 0 0 1-1.45 1.054l-6.214-3.294a.98.98 0 0 0-.922 0L5.88 24.366c-.725.374-1.582-.241-1.45-1.054l1.186-6.94a.933.933 0 0 0-.285-.878l-5.03-4.897c-.592-.571-.263-1.582.55-1.691l6.961-1.01a.964.964 0 0 0 .747-.55l3.096-6.302c.374-.725 1.428-.725 1.78 0Z" fill="#000"/></svg>