<svg width="79" height="64" fill="none" xmlns="http://www.w3.org/2000/svg"><path d="M62.7 2.2H6.41C3.96 2.2 2 4.16 2 6.61v41.308c0 2.38 1.96 4.34 4.34 4.34h56.29c2.38 0 4.34-1.96 4.34-4.34V6.61A4.276 4.276 0 0 0 62.7 2.2Z" stroke="#222229" stroke-width="2.5" stroke-miterlimit="10"/><path d="M14.527 62.2h53.49c4.97 0 8.96-3.99 8.96-8.962V14.733M34.553 39.516c6.231 0 11.272-5.46 11.272-12.252 0-6.791-5.04-12.252-11.272-12.252-6.23 0-11.272 5.461-11.272 12.252s5.041 12.252 11.272 12.252ZM12.016 40.986V13.472M57.031 13.472v27.514" stroke="#222229" stroke-width="2.5" stroke-miterlimit="10"/></svg>