<svg width="45" height="45" viewBox="0 0 45 45" fill="none" xmlns="http://www.w3.org/2000/svg">
<path fill-rule="evenodd" clip-rule="evenodd" d="M18.9356 2.22772C9.70812 2.22772 2.22772 9.70812 2.22772 18.9356C2.22772 28.1632 9.70812 35.6436 18.9356 35.6436C28.1632 35.6436 35.6436 28.1632 35.6436 18.9356C35.6436 9.70812 28.1632 2.22772 18.9356 2.22772ZM0 18.9356C0 8.47778 8.47778 0 18.9356 0C29.3935 0 37.8713 8.47778 37.8713 18.9356C37.8713 29.3935 29.3935 37.8713 18.9356 37.8713C8.47778 37.8713 0 29.3935 0 18.9356Z" fill="white"/>
<path fill-rule="evenodd" clip-rule="evenodd" d="M18.943 7.44598C12.5938 7.44598 7.45331 12.5928 7.45331 18.9357C7.45331 19.5509 6.95462 20.0496 6.33945 20.0496C5.72428 20.0496 5.22559 19.5509 5.22559 18.9357C5.22559 11.3633 11.3627 5.21826 18.943 5.21826C19.5582 5.21826 20.0569 5.71695 20.0569 6.33212C20.0569 6.94729 19.5582 7.44598 18.943 7.44598Z" fill="white"/>
<path fill-rule="evenodd" clip-rule="evenodd" d="M30.751 30.7515C31.186 30.3165 31.8913 30.3165 32.3263 30.7515L44.6732 43.0985C45.1082 43.5335 45.1082 44.2387 44.6732 44.6737C44.2382 45.1087 43.533 45.1087 43.098 44.6737L30.751 32.3268C30.3161 31.8918 30.3161 31.1865 30.751 30.7515Z" fill="white"/>
</svg>
