<svg width="39" height="34" fill="none" xmlns="http://www.w3.org/2000/svg"><path fill-rule="evenodd" clip-rule="evenodd" d="M5.147 15.498c-2.443 1.236-.821 2.326-.821 2.326-1.578 2.348-1.58 2.347-1.58 2.346l-.004-.002-.006-.005-.014-.009-.03-.02a3.806 3.806 0 0 1-.245-.19c-.13-.107-.3-.26-.478-.46-.321-.362-.867-1.099-.98-2.167-.128-1.213.356-2.293 1.121-3.09.684-.714 1.602-1.229 2.61-1.637l18.99-8.095c.984-.44 3.064-1.33 4.877-2.103L31 1.368 32.03.931l1.101 2.606s-6.401 2.705-8.289 3.55l-19.04 8.116-.185.077a7.863 7.863 0 0 0-.47.218ZM33.132 3.537 32.031.93l.025-.01.024-.01 1.052 2.626Zm5.529 1.909c.093-1.138-.082-2.436-.96-3.497-.889-1.077-2.07-1.39-2.87-1.462a5.957 5.957 0 0 0-1.906.16 6.96 6.96 0 0 0-.801.247l-.025.01-.01.003-.004.002-.002.001c-.002 0-.003 0 1.05 2.627 0 0 2.954-1.184 2.708 1.69-.06.855-.419 3.254-.86 6.208-.17 1.136-.353 2.355-.536 3.599l-2.051 13.273s-.164 1.944-1.56 2.282c-1.395.339-3.693-1.183-4.103-1.521a39.832 39.832 0 0 0-.899-.612c-1.788-1.204-5.72-3.85-7.39-5.306-.575-.507-1.231-1.522.082-2.705a333.696 333.696 0 0 0 7.574-7.39l.006-.007a161.233 161.233 0 0 0 1.037-1.057c.9-.927 1.799-2.981-1.176-1.142a18.16 18.16 0 0 0-.958.634l-11.572 8.032s-1.313.845-3.775.084c-2.462-.76-5.334-1.775-5.334-1.775l-1.578 2.348.298.2.338.119.942-2.667-.942 2.667.134.047.366.128c.313.109.755.261 1.275.438a144.5 144.5 0 0 0 3.666 1.198c1.668.515 3.073.52 4.155.323.532-.098.967-.24 1.3-.38a4.976 4.976 0 0 0 .635-.32l.015-.009c.004.186.02.375.05.567.217 1.406 1.081 2.338 1.59 2.787l.006.006.007.006c1.21 1.054 3.336 2.56 5.076 3.759a269.702 269.702 0 0 0 2.973 2.017l.367.247c.428.338 1.265.887 2.2 1.332a9.346 9.346 0 0 0 1.803.655c.64.154 1.541.278 2.499.046 2.003-.485 2.903-2.085 3.255-2.949a6.731 6.731 0 0 0 .443-1.714l2.044-13.22.001-.01c.168-1.148.34-2.298.504-3.392.452-3.015.84-5.614.913-6.607ZM14.929 21.839c-.087-.139-.399-.624-1.494-2.324l1.495 2.32v.004Z" fill="#222229"/></svg>