<svg width="84" height="98" fill="none" xmlns="http://www.w3.org/2000/svg"><path d="m79.092 67.534-.609 1.092.01.005.008.005.591-1.102ZM57.344 55.397h-1.25v.734l.64.357.61-1.091Zm0-3.396-.996-.755-.254.335v.42h1.25Zm5.864-17.243v-1.25h-1.16l-.087 1.157 1.247.093Zm1.441-8.116H63.4v.427l.261.338.99-.765Zm-5.863-18.64.51-1.141-.006-.002-.504 1.144ZM47.587 3.067l.505-1.144-.01-.005-.011-.004-.484 1.153Zm-10.67 0-.483-1.153-.011.005-.011.004.505 1.144Zm-11.222 4.96.492 1.15.007-.003.006-.003-.505-1.143Zm-5.864 18.81.963.797.287-.347v-.45h-1.25Zm1.202 7.97 1.246-.1-.093-1.15h-1.153v1.25Zm5.863 16.57h1.25v-.419l-.25-.334-1 .752Zm0 3.925.608 1.092.642-.357v-.735h-1.25ZM4.884 67.534l-.607-1.092-.01.005.617 1.087ZM82 72.496h1.25v-.015l-1.25.015Zm-21.892-42.94v1.25h2.836l-1.914-2.093-.922.843Zm-35.831 0-.904-.863-2.02 2.113h2.924v-1.25Zm6.416 27.286v1.25h2.5v-1.25h-2.5Zm1.25-.53.68-1.048-1.93-1.254v2.302h1.25Zm20.09.385h1.25v-2.194l-1.888 1.12.638 1.074Zm27.668 9.746L57.953 54.305l-1.218 2.183 21.748 12.138 1.218-2.183ZM58.594 55.397V52h-2.5v3.396h2.5Zm-.254-2.64c3.445-4.544 5.572-10.666 6.114-17.905l-2.493-.187c-.515 6.873-2.521 12.503-5.613 16.581l1.992 1.51Zm4.868-16.749h.913v-2.5h-.913v2.5Zm.913 0a3.878 3.878 0 0 0 3.87-3.875h-2.5c0 .767-.63 1.375-1.37 1.375v2.5Zm3.87-3.875c0-2.299-.911-4.39-2.353-6.255l-1.978 1.529c1.203 1.555 1.83 3.124 1.83 4.726h2.5Zm-2.092-5.49v-9.634h-2.5v9.633h2.5Zm0-9.634c0-4.429-2.654-8.386-6.604-10.148l-1.019 2.283c3.068 1.369 5.123 4.444 5.123 7.865h2.5ZM59.29 6.86 48.092 1.922l-1.009 2.287 11.199 4.937L59.29 6.86ZM48.07 1.913a15.137 15.137 0 0 0-11.636 0l.967 2.305a12.637 12.637 0 0 1 9.703 0l.967-2.305Zm-11.658.01-11.223 4.96L26.2 9.17l11.223-4.961-1.011-2.287Zm-11.21 4.955c-4.13 1.77-6.62 5.75-6.62 10.155h2.5c0-3.446 1.93-6.497 5.105-7.857l-.985-2.298Zm-6.62 10.155v9.802h2.5v-9.802h-2.5Zm.287 9.004c-1.483 1.789-2.234 3.9-2.234 6.144h2.5c0-1.657.546-3.206 1.659-4.548l-1.925-1.596Zm-2.234 6.144c0 2.094 1.695 3.875 3.87 3.875v-2.5c-.76 0-1.37-.627-1.37-1.375h-2.5Zm3.87 3.875h.528v-2.5h-.529v2.5Zm-.718-1.149c.545 6.726 2.704 12.693 6.11 17.22l1.998-1.504c-3.081-4.094-5.104-9.59-5.616-15.917l-2.492.201Zm5.86 16.468v3.926h2.5v-3.926h-2.5Zm.642 2.833L4.277 66.442l1.214 2.185 22.013-12.234-1.215-2.185ZM4.267 66.448C2.047 67.705.75 69.953.75 72.495h2.5c0-1.649.818-3.062 2.25-3.874l-1.233-2.175ZM.75 72.495v20.879h2.5v-20.88H.75Zm0 20.879c0 2.094 1.696 3.875 3.87 3.875v-2.5c-.759 0-1.37-.627-1.37-1.375H.75Zm3.87 3.875h74.76v-2.5H4.62v2.5Zm74.76 0a3.878 3.878 0 0 0 3.87-3.875h-2.5c0 .766-.63 1.375-1.37 1.375v2.5Zm3.87-3.875v-20.88h-2.5v20.88h2.5Zm0-20.894c-.03-2.501-1.438-4.906-3.567-6.048l-1.182 2.203c1.284.688 2.23 2.233 2.25 3.874l2.499-.029Zm-40.998-47.02c4.05 0 7.732.602 10.696 1.54 2.998.947 5.139 2.197 6.237 3.399l1.845-1.687c-1.521-1.664-4.138-3.087-7.328-4.096-3.224-1.02-7.161-1.657-11.45-1.657v2.5Zm17.855 2.845h-35.83v2.5h35.83v-2.5ZM25.18 30.42c1.168-1.222 3.327-2.474 6.317-3.42 2.963-.937 6.644-1.54 10.755-1.54v-2.5c-4.347 0-8.284.637-11.509 1.657-3.198 1.011-5.798 2.432-7.37 4.076l1.807 1.727Zm8.013 26.422v-.53h-2.5v.53h2.5Zm-1.93.518c3.172 2.06 6.793 3.333 10.725 3.333v-2.5c-3.373 0-6.529-1.088-9.364-2.93l-1.362 2.097Zm10.725 3.333c4.009 0 7.616-1.102 10.683-2.92l-1.276-2.15a18.276 18.276 0 0 1-9.407 2.57v2.5Zm8.795-3.996v.12h2.5v-.12h-2.5Z" fill="#222229"/></svg>