<svg width="81" height="82" fill="none" xmlns="http://www.w3.org/2000/svg"><path d="M25.86 30.487v11.26l14.64 9.36L75.61 24.79a40.192 40.192 0 0 0-4.608-7.733L40.5 39.847l-14.64-9.36ZM79 40.932c0-2.306-.136-4.748-.542-7.054l-8.27 6.24v.814c0 4.205-.813 8.41-2.575 12.209-1.627 3.663-3.932 6.782-6.643 9.495a27.115 27.115 0 0 1-9.083 5.97c-3.66 1.491-7.456 2.305-11.387 2.305-4.203 0-8.27-.814-12.065-2.577-3.525-1.628-6.778-3.934-9.354-6.783-2.576-2.713-4.61-5.833-5.965-9.224-1.491-3.663-2.304-7.597-2.304-11.53 0-4.206.813-8.41 2.575-12.21 1.627-3.662 3.932-6.782 6.643-9.495a27.115 27.115 0 0 1 9.083-5.968c3.66-1.493 7.456-2.307 11.387-2.307 5.965 0 11.794 1.764 16.674 5.29l7.456-5.56C58.26 5.39 50.532 2.406 42.398 2H40.5c-5.016 0-10.032.95-14.776 2.984a40.101 40.101 0 0 0-11.117 7.19c-.27.136-.406.407-.677.678-.136 0-.407.136-.678.407-3.39 3.391-6.1 7.325-7.998 11.802C3.356 29.4 2.27 34.15 2 39.033v1.9c0 5.154.949 10.173 2.982 14.92 1.627 4.206 4.067 7.869 7.05 11.26l.678.678c.27.272.406.543.677.814 3.39 3.391 7.185 6.24 11.523 8.14A39.665 39.665 0 0 0 38.602 80H40.5c5.016 0 10.032-.95 14.776-2.984a40.103 40.103 0 0 0 11.117-7.19l.813-.814.542-.542c3.39-3.392 6.1-7.326 7.998-11.802C77.916 51.784 79 46.358 79 40.932Z" stroke="#000" stroke-width="2.5" stroke-miterlimit="10"/></svg>