<svg width="24" height="24" fill="none" xmlns="http://www.w3.org/2000/svg"><path d="M3.5 6.6a3.1 3.1 0 0 1 3.1-3.1h.9a3.1 3.1 0 0 1 3.1 3.1v.9a3.1 3.1 0 0 1-3.1 3.1h-.9a3.1 3.1 0 0 1-3.1-3.1v-.9Zm9.9 0a3.1 3.1 0 0 1 3.1-3.1h.9a3.1 3.1 0 0 1 3.1 3.1v.9a3.1 3.1 0 0 1-3.1 3.1h-.9a3.1 3.1 0 0 1-3.1-3.1v-.9Zm-9.9 9.9a3.1 3.1 0 0 1 3.1-3.1h.9a3.1 3.1 0 0 1 3.1 3.1v.9a3.1 3.1 0 0 1-3.1 3.1h-.9a3.1 3.1 0 0 1-3.1-3.1v-.9Zm9.9 0a3.1 3.1 0 0 1 3.1-3.1h.9a3.1 3.1 0 0 1 3.1 3.1v.9a3.1 3.1 0 0 1-3.1 3.1h-.9a3.1 3.1 0 0 1-3.1-3.1v-.9Z" stroke="#222229"/></svg>