<svg width="87" height="105" fill="none" xmlns="http://www.w3.org/2000/svg"><path d="m69.159 102.854 14.996-16.306c1.037-1.09.873-2.835-.272-3.817l-5.126-4.144c-1.091-.873-2.673-.764-3.6.272L60.215 95.437a2.564 2.564 0 0 0 .382 3.818l5.072 3.871c1.09.873 2.563.709 3.49-.272Z" stroke="#222229" stroke-width="2.5" stroke-miterlimit="10"/><path d="m44.786 77.365-15.87 1.418c-2.29.218-4.362-1.31-4.798-3.545-.545-2.509 1.145-4.963 3.708-5.399l25.467-3.926c3.218-.491 6.435.382 8.944 2.454L75.216 79.11" stroke="#222229" stroke-width="2.5" stroke-miterlimit="10"/><path d="m62.29 93.506-.6-.6a5.42 5.42 0 0 0-4.254-1.581l-23.013 1.963a7.095 7.095 0 0 1-4.962-1.418L3.448 72.62c-1.745-1.309-1.963-3.872-.381-5.399 1.2-1.2 3.054-1.363 4.471-.49l11.07 7.034M34.475 61.114h18.487a6.292 6.292 0 0 0 6.271-6.762l-2.508-35.72a1.62 1.62 0 0 0-1.636-1.526H13.916a1.62 1.62 0 0 0-1.636 1.527L9.717 54.352a6.292 6.292 0 0 0 6.271 6.762h18.487Z" stroke="#222229" stroke-width="2.5" stroke-miterlimit="10"/><path d="M22.75 22.559v-8.834C22.75 7.235 27.985 2 34.475 2c6.489 0 11.779 5.235 11.779 11.725v8.78" stroke="#222229" stroke-width="2.5" stroke-miterlimit="10"/></svg>