<svg width="37" height="37" fill="none" xmlns="http://www.w3.org/2000/svg"><path fill-rule="evenodd" clip-rule="evenodd" d="M29.439 5.973c-1.73-.235-4.018-.238-7.267-.238h-6.774c-3.205 0-5.494.003-7.236.238-1.706.231-2.702.665-3.43 1.393-.732.732-1.163 1.71-1.393 3.4-.236 1.73-.238 4.017-.238 7.266v3.474c0 3.206.002 5.493.238 7.224.23 1.697.663 2.657 1.373 3.336l.01.01.01.01c.732.731 1.71 1.163 3.399 1.392 1.73.236 4.018.239 7.267.239h6.774c3.205 0 5.493-.003 7.235-.239 1.707-.23 2.702-.664 3.43-1.393.732-.731 1.164-1.71 1.394-3.398.235-1.731.238-4.018.238-7.268v-3.387c0-3.205-.003-5.493-.238-7.235-.231-1.707-.665-2.702-1.393-3.43-.732-.732-1.71-1.164-3.4-1.394Zm.337-2.477c1.98.27 3.564.837 4.83 2.103 1.268 1.269 1.834 2.878 2.102 4.863.261 1.929.261 4.386.261 7.477v3.577c0 3.13 0 5.589-.261 7.508-.27 1.98-.837 3.564-2.102 4.83-1.27 1.268-2.879 1.833-4.864 2.102-1.929.26-4.386.26-7.477.26h-6.964c-3.13 0-5.589 0-7.507-.26-1.975-.27-3.556-.834-4.82-2.093-1.28-1.23-1.845-2.83-2.112-4.796C.6 27.148.6 24.69.6 21.601v-3.665c0-3.131 0-5.59.26-7.508.27-1.98.837-3.564 2.103-4.83 1.27-1.268 2.879-1.833 4.863-2.102 1.93-.261 4.387-.26 7.477-.26h6.964c3.131-.001 5.59-.001 7.508.26Z" fill="#222229"/><path fill-rule="evenodd" clip-rule="evenodd" d="M10.361.717c.69 0 1.25.56 1.25 1.25v2.518a1.25 1.25 0 1 1-2.5 0V1.967c0-.69.56-1.25 1.25-1.25ZM27.295.717c.69 0 1.25.56 1.25 1.25v2.518a1.25 1.25 0 0 1-2.5 0V1.967c0-.69.56-1.25 1.25-1.25ZM1.816 12.996c0-.69.56-1.25 1.25-1.25H34.59a1.25 1.25 0 1 1 0 2.5H3.066c-.69 0-1.25-.56-1.25-1.25ZM31.445 25.675a5.018 5.018 0 1 1-10.037 0 5.018 5.018 0 0 1 10.037 0Zm-2.5 0a2.518 2.518 0 1 1-5.037 0 2.518 2.518 0 0 1 5.037 0Z" fill="#222229"/></svg>