<svg width="42" height="29" fill="none" xmlns="http://www.w3.org/2000/svg"><path fill-rule="evenodd" clip-rule="evenodd" d="m38.24 17.92.032.04c1.453 1.89 2.733 3.999 3.54 6.42.803 2.412-1.105 4.587-3.34 4.587h-4.633c-1.567 0-2.851-1.008-3.348-2.338-.822-2.2-2.245-3.905-4.026-4.892v3.946a3.284 3.284 0 0 1-3.284 3.284c-6.746 0-12.327-2.252-16.268-6.637C3.02 18 .998 11.89.687 4.648.599 2.617 2.232.967 4.219.967h4.479c1.958 0 3.478 1.564 3.553 3.424.208 5.15 1.595 8.3 3.109 10.12v-10A3.544 3.544 0 0 1 18.904.967h4.016a3.544 3.544 0 0 1 3.545 3.544v3.854c.244-.22.489-.466.733-.735a12.482 12.482 0 0 0 2.497-4.227C30.165 2.026 31.47.967 33.08.967h4.039c2.18 0 4.03 2.048 3.405 4.394-.597 2.24-1.586 4.358-2.983 6.232a19.29 19.29 0 0 1-2.658 3.078c1.259.966 2.35 2.038 3.325 3.209l.033.04Zm-2.857-7.881c1.195-1.594 2.052-3.413 2.57-5.362.145-.54-.276-1.052-.835-1.052h-4.04a.927.927 0 0 0-.867.637c-1.286 3.762-4.342 7.271-7.455 8.11-.502.135-.95-.277-.95-.797V4.511a.886.886 0 0 0-.886-.886h-4.016a.886.886 0 0 0-.886.886v13.668c0 .562-.519.982-1.043.78a7.86 7.86 0 0 1-1.613-.854h-.002c-2.845-1.943-5.467-6.202-5.765-13.606a.905.905 0 0 0-.897-.874h-4.48a.875.875 0 0 0-.876.909c.589 13.686 7.592 21.774 19.839 21.774.345 0 .625-.28.625-.625v-6.527c0-.525.457-.938.972-.836 3.85.765 6.797 3.616 8.203 7.378.134.36.473.61.858.61h4.633c.576 0 1-.542.817-1.089-.685-2.057-1.79-3.904-3.124-5.637a17.857 17.857 0 0 0-4.55-3.926c-.594-.36-.633-1.245-.074-1.658a16.667 16.667 0 0 0 3.842-3.96Z" fill="#222229"/></svg>