<svg width="91" height="74" fill="none" xmlns="http://www.w3.org/2000/svg"><path d="M2 37C2 20.493 2 12.24 7.197 7.12 12.317 2 20.57 2 37.077 2h17.5c16.506 0 24.76 0 29.88 5.12 5.12 5.12 5.12 13.373 5.12 29.88 0 16.507 0 24.76-5.12 29.88C79.336 72 71.082 72 54.576 72h-17.5c-16.507 0-24.76 0-29.88-5.12C2 61.76 2 53.507 2 37Z" stroke="#222229" stroke-width="2.5" stroke-miterlimit="133.333"/><path d="M37.074 56.716h-17.5M28.286 43.572h-8.712M2 28.212h87.576" stroke="#222229" stroke-width="2.5" stroke-miterlimit="133.333" stroke-linecap="round"/><path d="M54.578 50.144c0-4.127 0-6.19 1.3-7.489 1.298-1.299 3.362-1.299 7.488-1.299 4.127 0 6.19 0 7.49 1.3 1.299 1.298 1.299 3.361 1.299 7.488 0 4.127 0 6.19-1.3 7.49-1.299 1.298-3.362 1.298-7.489 1.298-4.126 0-6.19 0-7.489-1.299-1.299-1.299-1.299-3.362-1.299-7.489Z" stroke="#222229" stroke-width="2.5" stroke-miterlimit="133.333"/></svg>