<svg width="35" height="35" fill="none" xmlns="http://www.w3.org/2000/svg"><path d="M34.181 10.19c-.152-1.829-.305-3.048-.762-4.114-.457-1.067-1.066-2.134-1.98-3.048-.915-.914-1.83-1.524-3.048-1.98C27.324.59 26.105.284 24.276.284c-1.828-.152-2.438-.152-7.01-.152-4.57 0-5.18 0-7.009.152C8.43.438 7.21.59 6.143 1.047c-1.219.457-2.133 1.067-3.048 1.981-.914.914-1.523 1.829-1.98 3.048C.656 7.142.352 8.36.352 10.19.2 12.019.2 12.628.2 17.2c0 4.57 0 5.18.153 7.009.152 1.829.304 3.048.761 4.114.458 1.067 1.067 2.134 1.981 3.048.915.914 1.829 1.524 3.048 1.98 1.067.458 2.286.763 4.114.763 1.829.152 2.438.152 7.01.152 4.571 0 5.18 0 7.01-.152 1.828-.153 3.047-.305 4.114-.762 1.066-.457 2.133-1.067 3.047-1.981.915-.914 1.524-1.829 1.981-3.048.457-1.066.762-2.285.762-4.114.153-1.829.153-2.438.153-7.01 0-4.571-.153-5.333-.153-7.009Z" fill="#222229"/><path d="M26.257 6.838c-.762 0-1.219.61-1.219 1.219 0 .762.61 1.219 1.22 1.219.761 0 1.218-.61 1.218-1.22 0-.761-.457-1.218-1.219-1.218Z" fill="#fff"/><path fill-rule="evenodd" clip-rule="evenodd" d="M8.605 17.199a8.654 8.654 0 0 1 8.662-8.662c4.721 0 8.357 4.11 8.357 8.662 0 4.617-3.698 8.51-8.51 8.51-4.616 0-8.509-3.698-8.509-8.51Zm8.662-5.662a5.654 5.654 0 0 0-5.662 5.662 5.49 5.49 0 0 0 5.51 5.51 5.49 5.49 0 0 0 5.509-5.51c0-3.067-2.46-5.662-5.357-5.662Z" fill="#fff"/></svg>