<svg width="128" height="122" fill="none" xmlns="http://www.w3.org/2000/svg"><path d="m31.243 54.043-9 63.9c-.2 1.3-1.3 2.3-2.6 2.3h-15c-1.6 0-2.9-1.5-2.6-3.1L7.881 80" stroke="#222229" stroke-width="2.5" stroke-miterlimit="10" stroke-linecap="round" stroke-linejoin="round"/><path d="M29.244 45.041s6.3 26.1 6.3 28.6c0 2.1-3.5 33.7-4.6 43.5-.2 1.6 1.1 2.9 2.6 2.9h19.9c5.8 0 10.5-4.7 10.5-10.5v-26.9l-19.8-71.7-18.5 4.5c-4.9 1.2-8.5 5.2-9.3 10.1L11.61 55.998" stroke="#222229" stroke-width="2.5" stroke-miterlimit="10" stroke-linecap="round" stroke-linejoin="round"/><path d="m63.944 8.443-10.3-6.1c-1-.6-2.2-.4-2.9.5l-6.6 8.1 9.5 7.7c1 .8 2.5.6 3.3-.4l7-9.8ZM39.543 12.043l-4 18.9c-.3 1.4.4 2.8 1.6 3.4l15.6 8M63.943 86.842l-23.1-29.8c-.7-1-.9-2.3-.3-3.4l7.1-13.9" stroke="#222229" stroke-width="2.5" stroke-miterlimit="10" stroke-linecap="round" stroke-linejoin="round"/><path d="M63.943 23.742h-2.5l-4.5-5.5M54.044 46.842l7.4-23.1M96.644 54.042l9 63.9c.2 1.3 1.3 2.3 2.6 2.3h15c1.6 0 2.9-1.5 2.6-3.1L114.706 46M63.943 82.641l19.8-71.7 18.5 4.5" stroke="#222229" stroke-width="2.5" stroke-miterlimit="10" stroke-linecap="round" stroke-linejoin="round"/><path d="M98.643 45.043s-6.3 26.1-6.3 28.6c0 2.1 3.5 33.7 4.6 43.5.2 1.6-1.1 2.9-2.6 2.9h-19.9c-5.8 0-10.5-4.7-10.5-10.5M63.943 8.443l10.3-6.1c1-.6 2.2-.4 2.9.5l6.6 8.1-9.5 7.7c-1 .8-2.5.6-3.3-.4l-7-9.8ZM88.344 12.043l4 18.9c.3 1.4-.4 2.8-1.6 3.4l-15.6 8M63.943 86.842l23.1-29.8c.7-1 .9-2.3.3-3.4l-7.1-13.9" stroke="#222229" stroke-width="2.5" stroke-miterlimit="10" stroke-linecap="round" stroke-linejoin="round"/><path d="M63.943 23.742h2.5l4.5-5.5M73.843 46.842l-7.4-23.1M2.843 112.543h20.2M104.543 112.543h20.3M96.843 28.445s10.478 1.445 12.194 14c1.806-12.555 12.193-14 12.193-14s-10.477-1.445-12.193-14c-1.716 12.555-12.194 14-12.194 14ZM5.543 72.041s7.9 1.1 9.3 10.6c1.3-9.6 9.3-10.6 9.3-10.6s-7.9-1.1-9.3-10.6c-1.3 9.5-9.3 10.6-9.3 10.6Z" stroke="#222229" stroke-width="2.5" stroke-miterlimit="10" stroke-linecap="round" stroke-linejoin="round"/></svg>