<svg width="134" height="135" fill="none" xmlns="http://www.w3.org/2000/svg"><path d="m63.59 128.672-1.54-5.06c-.77-2.419-2.969-4.069-5.498-4.069H5.629c-1.98 0-3.629 1.65-3.629 3.629v6.599c0 1.98 1.65 3.63 3.63 3.63H60.18c2.42 0 4.18-2.31 3.41-4.729ZM51.272 104.915a9.623 9.623 0 0 1-9.678-9.678V74.34c0-1.98 1.54-3.52 3.52-3.52H57.43c1.98 0 3.52 1.54 3.52 3.52v20.897c0 5.389-4.4 9.678-9.679 9.678Z" stroke="#222229" stroke-width="2.5" stroke-miterlimit="10" stroke-linecap="round" stroke-linejoin="round"/><path d="M41.594 78.078H5.629c-1.98 0-3.629 1.65-3.629 3.63v12.318c0 1.98 1.65 3.63 3.63 3.63h35.964M9.04 97.656v21.887M29.496 97.656v21.887M14.428 78.082v-8.469M23.997 78.082v-8.469M51.272 104.918v7.259M70.19 122.183h43.663c1.869 0 3.299-1.429 3.299-3.299V60.043" stroke="#222229" stroke-width="2.5" stroke-miterlimit="10" stroke-linecap="round" stroke-linejoin="round"/><path d="m90.536 73.901 20.017-37.944 16.058 8.359c3.299 1.76 5.389 5.169 5.389 8.908v55.762c0 1.87-1.43 3.299-3.3 3.299h-11.548M49.072 62.463v-9.239c0-3.739 2.09-7.148 5.39-8.908l16.057-8.359 20.017 37.944v48.393M117.152 103.375h14.738" stroke="#222229" stroke-width="2.5" stroke-miterlimit="10" stroke-linecap="round" stroke-linejoin="round"/><path d="m70.52 35.959 7.368-5.94 12.648 8.69-8.028 8.578-10.889-9.129M110.554 35.959l-7.479-5.94-12.538 8.69 7.918 8.578 10.889-9.129M100.985 31.45l-2.64-7.81c-.33-.88-1.1-1.43-1.98-1.43H84.707c-.88 0-1.65.55-1.98 1.43l-2.749 7.81M90.536 15.72a6.819 6.819 0 1 0 0-13.638 6.819 6.819 0 0 0 0 13.638ZM90.537 15.719v6.489M96.036 122.184v11.218M84.927 122.184v11.218M82.067 84.02v2.09M82.067 97v2.2M82.067 110.086v2.09" stroke="#222229" stroke-width="2.5" stroke-miterlimit="10" stroke-linecap="round" stroke-linejoin="round"/></svg>