<svg width="101" height="113" fill="none" xmlns="http://www.w3.org/2000/svg"><path d="M50.89 13.111c12.579 0 22.777-2.487 22.777-5.555C73.667 4.487 63.469 2 50.889 2 38.31 2 28.111 4.487 28.111 7.556c0 3.068 10.198 5.555 22.778 5.555Z" stroke="#222229" stroke-width="2.5" stroke-miterlimit="10" stroke-linecap="round" stroke-linejoin="round"/><path d="m49.667 13.11-8.889 15.667-14.777-13.333 2-7.89M49 109.778 28 17.223M2 88.668v14.444c0 4.667 3.778 8.556 8.556 8.556h40.333M26 15.441l-17.667 5.89C4.556 22.551 2 26.107 2 30.107v46.556" stroke="#222229" stroke-width="2.5" stroke-miterlimit="10" stroke-linecap="round" stroke-linejoin="round"/><path d="M12.333 20 26 45.889l-4.556 31.556 23 34.222M39 65.78l7.667-33.112M52 13.11l9 15.667 14.667-13.333-2-7.89M52.667 109.778l21-92.555M99.667 51.777v51.334c0 4.666-3.778 8.555-8.555 8.555H50.889M75.667 15.441l17.667 5.778c3.778 1.222 6.333 4.778 6.333 8.778v11.556" stroke="#222229" stroke-width="2.5" stroke-miterlimit="10" stroke-linecap="round" stroke-linejoin="round"/><path d="M89.334 20 75.667 45.889l4.667 31.556-23.111 34.222M59.889 26.89l-4.89 5.778h-8.333l-4.889-5.777M62.667 65.78l-7.666-33.112" stroke="#222229" stroke-width="2.5" stroke-miterlimit="10" stroke-linecap="round" stroke-linejoin="round"/></svg>