<svg width="121" height="121" fill="none" xmlns="http://www.w3.org/2000/svg"><path d="M18.3 119.6c9.002 0 16.3-7.298 16.3-16.3S27.302 87 18.3 87 2 94.298 2 103.3s7.298 16.3 16.3 16.3Z" stroke="#222229" stroke-width="2.5" stroke-miterlimit="10" stroke-linecap="round" stroke-linejoin="round"/><path d="M18.3 110.998a7.7 7.7 0 1 0 0-15.4 7.7 7.7 0 0 0 0 15.4ZM2 18.5c0-9 7.3-16.3 16.3-16.3s16.3 7.3 16.3 16.3" stroke="#222229" stroke-width="2.5" stroke-miterlimit="10" stroke-linecap="round" stroke-linejoin="round"/><path d="M34.6 103.3V18.5h79.8c2.6 0 4.7 2.1 4.7 4.7v91.6c0 2.6-2.1 4.7-4.7 4.7h-96M2 28.2v72.699" stroke="#222229" stroke-width="2.5" stroke-miterlimit="10" stroke-linecap="round" stroke-linejoin="round"/><path d="m71.9 119.499-7.1-10.7c-1.5-2.3-1.5-5.2 0-7.4l4.6-7c1.5-2.3 1.5-5.2 0-7.4l-4.6-7c-1.5-2.3-1.5-5.2 0-7.4l4.6-7c1.5-2.3 1.5-5.2 0-7.4l-4.6-7c-1.5-2.3-1.5-5.2 0-7.4l4.6-7c1.5-2.3 1.5-5.2 0-7.4l-7.1-10.7M49.9 86.9l-4.6-7c-1.5-2.3-1.5-5.2 0-7.4l4.6-7c1.5-2.3 1.5-5.2 0-7.4l-4.6-7c-1.5-2.3-1.5-5.2 0-7.4l4.6-7c1.5-2.3 1.5-5.2 0-7.4l-7.1-10.8M52.3 119.498l-7.1-10.7c-1.5-2.3-1.5-5.2 0-7.4l4.6-7M91.4 119.499l-7.1-10.7c-1.5-2.3-1.5-5.2 0-7.4l4.6-7c1.5-2.3 1.5-5.2 0-7.4l-4.6-7c-1.5-2.3-1.5-5.2 0-7.4l4.6-7c1.5-2.3 1.5-5.2 0-7.4l-4.6-7c-1.5-2.3-1.5-5.2 0-7.4l4.6-7c1.5-2.3 1.5-5.2 0-7.4l-7.1-10.7M103.9 43.6l4.6-7c1.5-2.3 1.5-5.2 0-7.4l-7.1-10.7M111 119.499l-7.1-10.7c-1.5-2.3-1.5-5.2 0-7.4l4.6-7c1.5-2.3 1.5-5.2 0-7.4l-4.6-7c-1.5-2.3-1.5-5.2 0-7.4l4.6-7c1.5-2.3 1.5-5.2 0-7.4l-4.6-7" stroke="#222229" stroke-width="2.5" stroke-miterlimit="10" stroke-linecap="round" stroke-linejoin="round"/></svg>