<svg width="133" height="133" fill="none" xmlns="http://www.w3.org/2000/svg"><path d="M26.42 131.002c6.418 0 11.62-5.203 11.62-11.62 0-6.418-5.202-11.62-11.62-11.62-6.417 0-11.62 5.202-11.62 11.62 0 6.417 5.203 11.62 11.62 11.62Z" stroke="#222229" stroke-width="2.5" stroke-miterlimit="10"/><path d="M26.42 123.012a3.63 3.63 0 1 0 0-7.261 3.63 3.63 0 0 0 0 7.261ZM79.89 131.002c6.418 0 11.62-5.203 11.62-11.62 0-6.418-5.203-11.62-11.62-11.62-6.418 0-11.62 5.202-11.62 11.62 0 6.417 5.203 11.62 11.62 11.62Z" stroke="#222229" stroke-width="2.5" stroke-miterlimit="10"/><path d="M79.89 123.012a3.63 3.63 0 1 0 .001-7.261 3.63 3.63 0 0 0-.001 7.261ZM38.04 121.922h30.23M91.6 121.922h7.808a2.441 2.441 0 0 0 2.451-2.452V97.138c0-.272-.091-.635-.182-.908l-6.445-16.612c-.363-1-1.271-1.544-2.36-1.544H65.91" stroke="#222229" stroke-width="2.5" stroke-miterlimit="10"/><path d="M65.91 104.945V71.084a2.44 2.44 0 0 0-2.451-2.451H9.08a2.44 2.44 0 0 0-2.451 2.45v41.76" stroke="#222229" stroke-width="2.5" stroke-miterlimit="10"/><path d="M10.897 112.754H4.45A2.44 2.44 0 0 0 2 115.205v4.176a2.44 2.44 0 0 0 2.451 2.451H14.71M49.751 68.543V92.6l-13.526-8.624L22.698 92.6V68.543M91.056 39.584c8.423 0 15.251-6.828 15.251-15.25 0-8.424-6.828-15.252-15.251-15.252-8.423 0-15.251 6.828-15.251 15.251 0 8.423 6.828 15.252 15.25 15.252Z" stroke="#222229" stroke-width="2.5" stroke-miterlimit="10"/><path d="M113.298 24.332C113.298 11.986 103.312 2 91.056 2c-12.255 0-22.332 9.986-22.332 22.332 0 5.175 1.816 9.986 4.72 13.708.273.273 12.165 15.796 16.25 21.061a1.613 1.613 0 0 0 2.633 0c4.085-5.265 15.978-20.788 16.25-21.06v-.092c2.996-3.813 4.721-8.533 4.721-13.617ZM31.05 31.323a3.54 3.54 0 1 0 0-7.08 3.54 3.54 0 0 0 0 7.08Z" stroke="#222229" stroke-width="2.5" stroke-miterlimit="10"/><path d="M41.399 27.784c0-5.72-4.63-10.44-10.44-10.44s-10.44 4.63-10.44 10.44c0 2.45.817 4.63 2.179 6.445.09.182 5.719 7.353 7.535 9.804.272.454.907.454 1.27 0 1.907-2.45 7.445-9.713 7.626-9.804 1.453-1.816 2.27-3.994 2.27-6.445ZM120.56 86.878a3.54 3.54 0 1 0 0-7.08 3.54 3.54 0 0 0 0 7.08Z" stroke="#222229" stroke-width="2.5" stroke-miterlimit="10"/><path d="M131 83.338c0-5.719-4.63-10.44-10.44-10.44-5.719 0-10.44 4.63-10.44 10.44 0 2.451.817 4.63 2.179 6.446.091.181 5.719 7.353 7.535 9.804.272.454.908.454 1.271 0 1.906-2.451 7.444-9.713 7.625-9.804 1.453-1.816 2.27-3.995 2.27-6.446Z" stroke="#222229" stroke-width="2.5" stroke-miterlimit="10"/><path d="M114.569 92.602a53.562 53.562 0 0 1-12.71 16.068M110.211 35.77c6.536 8.987 10.44 19.971 10.44 31.955 0 1.724-.091 3.54-.273 5.265M39.493 20.61a54.018 54.018 0 0 1 26.87-7.172c1.726 0 3.36.09 4.994.272M12.168 68.543v-.817a54.276 54.276 0 0 1 11.075-32.863" stroke="#222229" stroke-width="2.5" stroke-miterlimit="10"/></svg>