<svg width="889" height="60" fill="none" xmlns="http://www.w3.org/2000/svg"><path d="M133.946 36.842h-16.971l-5.462 9.103h9.866v1.292H102v-1.292h7.399l19.497-32.886h1.233l18.675 32.886h7.164v1.292h-25.486v-1.292h8.632l-5.168-9.103Zm-16.208-1.292h15.504l-7.576-13.389h-.176l-7.752 13.39ZM181.044 15.114v30.83h11.98c2.29 0 4.11-.117 5.461-.352s2.643-.763 3.934-1.585c1.292-.822 2.291-1.82 2.995-2.936.705-1.175 1.469-2.76 2.232-4.757h1.879l-1.468 10.923h-44.924v-1.292h8.397v-30.83h-8.397v-1.293h26.778v1.292h-8.867ZM226.497 45.945v-30.83h-8.398v-1.293h45.16l.704 10.1h-1.82c0-.293-.47-1.467-1.41-3.405-.939-1.997-2.29-3.348-4.11-4.17-1.821-.822-4.816-1.233-9.044-1.233h-11.627V29.56h2.172c2.349 0 4.17-.117 5.521-.293 1.35-.176 2.525-.764 3.523-1.645.998-.94 1.586-2.349 1.821-4.286h2.055v14.152h-2.055c-.235-2.114-.764-3.64-1.645-4.639-.881-.94-1.938-1.527-3.288-1.762-1.351-.235-3.348-.352-5.99-.352h-2.173v15.21h9.396v1.292h-27.248v-1.292h8.456ZM292.269 36.842h-16.972l-5.461 9.103h9.866v1.292h-19.379v-1.292h7.399l19.496-32.886h1.234l18.674 32.886h7.165v1.292h-25.487v-1.292h8.633l-5.168-9.103Zm-16.208-1.292h15.503l-7.517-13.389h-.176l-7.81 13.39ZM395.507 13.47v9.924h-1.703c-1.879-6.048-6.694-9.043-14.446-9.043-4.17 0-7.223.998-9.102 3.053-1.938 2.056-2.878 6.343-2.878 12.92 0 5.402.411 9.043 1.233 10.981.822 1.938 2.232 3.348 4.287 4.17 2.056.822 4.287 1.233 6.695 1.233 3.171 0 6.166-.763 8.985-2.231 2.818-1.527 4.991-3.935 6.518-7.224h1.879l-.646 10.16h-1.644c-.587-1.057-1.586-1.938-2.877-2.702-4.229 2.173-8.516 3.289-12.979 3.289-5.637 0-10.805-1.644-15.444-4.992-4.64-3.347-6.989-7.399-6.989-12.273 0-4.933 2.291-9.102 6.871-12.567 4.581-3.406 9.866-5.168 15.856-5.168 4.639 0 8.691 1.057 12.215 3.112 1.057-1.057 1.82-1.937 2.349-2.7h1.82v.058ZM431.329 48c-6.929 0-12.802-1.82-17.617-5.403-4.816-3.64-7.223-7.517-7.223-11.627 0-4.933 2.525-9.161 7.575-12.685 5.05-3.465 10.923-5.226 17.617-5.226 6.284 0 11.922 1.761 16.972 5.344 4.992 3.582 7.517 7.575 7.517 12.097 0 4.64-2.525 8.75-7.517 12.215-5.05 3.523-10.805 5.285-17.324 5.285Zm.118-33.65c-2.937 0-5.579.412-7.87 1.234-2.349.822-3.934 2.29-4.756 4.346-.822 2.055-1.233 5.696-1.233 10.864 0 3.582.234 6.4.704 8.515.47 2.114 1.703 3.876 3.641 5.285 1.938 1.41 4.992 2.114 9.22 2.114 2.525 0 5.109-.411 7.693-1.292 2.584-.822 4.228-2.525 5.05-4.991.764-2.467 1.175-6.284 1.175-11.452 0-4.64-.47-7.869-1.468-9.69-.999-1.761-2.526-3.053-4.64-3.875-2.172-.705-4.698-1.057-7.516-1.057ZM483.77 15.114v30.83h11.98c2.291 0 4.111-.117 5.462-.352 1.35-.235 2.642-.763 3.934-1.585 1.292-.822 2.291-1.82 2.995-2.936.705-1.175 1.468-2.76 2.232-4.757h1.879l-1.468 10.923h-44.925v-1.292h8.398v-30.83h-8.398v-1.293h26.779v1.292h-8.868ZM538.15 15.114v30.83h11.979c2.291 0 4.111-.117 5.462-.352s2.642-.763 3.934-1.585c1.292-.822 2.291-1.82 2.995-2.936.705-1.175 1.469-2.76 2.232-4.757h1.879l-1.468 10.923h-44.924v-1.292h8.397v-30.83h-8.397v-1.293h26.778v1.292h-8.867ZM592.998 15.114v14.329h4.816c1.703 0 3.171-.117 4.345-.294a6.036 6.036 0 0 0 3.172-1.703c.939-.94 1.468-2.349 1.644-4.287h2.055v14.153h-2.055c-.235-2.701-1.057-4.463-2.467-5.344-1.468-.88-3.64-1.292-6.635-1.292h-4.816v15.269h10.864c6.166 0 10.453-.822 12.802-2.408 2.408-1.644 3.817-4.11 4.228-7.458h2.056l-.529 11.158h-47.391v-1.292h8.457v-30.83h-8.515v-1.293h45.511l.94 8.926h-2.055c-.705-2.701-2.115-4.639-4.287-5.872-2.173-1.175-5.755-1.82-10.747-1.82h-11.393v.058ZM672.571 13.47v9.924h-1.703c-1.88-6.048-6.695-9.043-14.447-9.043-4.169 0-7.223.998-9.102 3.053-1.938 2.056-2.877 6.343-2.877 12.92 0 5.402.411 9.043 1.233 10.981.822 1.938 2.231 3.348 4.287 4.17 2.055.822 4.287 1.233 6.694 1.233 3.171 0 6.166-.763 8.985-2.231 2.819-1.527 4.992-3.935 6.519-7.224h1.879l-.646 10.16h-1.644c-.588-1.057-1.586-1.938-2.878-2.702-4.228 2.173-8.515 3.289-12.978 3.289-5.638 0-10.806-1.644-15.445-4.992-4.639-3.347-6.988-7.399-6.988-12.273 0-4.933 2.29-9.102 6.871-12.567 4.58-3.406 9.866-5.168 15.855-5.168 4.64 0 8.692 1.057 12.215 3.112 1.057-1.057 1.821-1.937 2.349-2.7h1.821v.058ZM683.023 13.822h45.571l1.409 11.334h-2.055c-1.233-3.817-2.878-6.46-4.992-7.87-2.114-1.409-4.756-2.172-8.104-2.172h-4.345v30.83h9.572v1.293H691.48v-1.292h9.572v-30.83h-4.346c-3.347 0-6.048.704-8.104 2.172-2.055 1.468-3.699 4.11-4.991 7.869h-1.997l1.409-11.334ZM746.447 45.945v-30.83h-8.75v-1.293h27.013v1.292h-8.809v30.83h8.809v1.293h-27.013v-1.292h8.75ZM799.241 48c-6.93 0-12.802-1.82-17.618-5.403-4.815-3.64-7.223-7.517-7.223-11.627 0-4.933 2.525-9.161 7.575-12.685 5.051-3.523 10.923-5.226 17.618-5.226 6.283 0 11.921 1.761 16.971 5.344 4.992 3.582 7.517 7.575 7.517 12.097 0 4.64-2.525 8.75-7.517 12.215-5.05 3.523-10.805 5.285-17.323 5.285Zm.117-33.65c-2.936 0-5.579.412-7.869 1.234-2.349.822-3.935 2.29-4.757 4.346-.822 2.055-1.233 5.696-1.233 10.864 0 3.582.235 6.4.705 8.515.469 2.114 1.703 3.876 3.641 5.285 1.937 1.41 4.991 2.114 9.219 2.114 2.525 0 5.109-.411 7.693-1.292 2.584-.822 4.228-2.525 5.051-4.991.763-2.467 1.174-6.284 1.174-11.452 0-4.64-.47-7.869-1.468-9.69-.998-1.761-2.525-3.053-4.639-3.875-2.173-.705-4.698-1.057-7.517-1.057ZM880.574 15.114V48h-1.644l-35.235-33.062h-.176v31.007h9.044v1.292h-19.027v-1.292h7.928v-30.83h-8.516v-1.293h20.437l24.899 23.431h.176V15.114h-8.867v-1.292h18.968v1.292h-7.987ZM35.55 43.136c-2.37.215-4.578-.377-6.624-1.67-1.078-.646-2.155-1.346-3.286-1.885-1.24-.593-2.64-.862-3.986-.485a8.104 8.104 0 0 0-1.832.862c-.7.485-1.346 1.077-2.047 1.616l-.053.054c-.054.053-.054.107-.054.161.43-.215.862-.43 1.239-.646 1.023-.7 3.285-1.023 4.632.054.162.107.485.161.7.107a5.556 5.556 0 0 1 3.232.485l.323.162c1.024.538 1.993 1.131 3.017 1.616 1.562.754 3.178.916 4.848.538.808-.161.808-.161.915-.97v-.16a3.66 3.66 0 0 1-1.023.16ZM51.065 12.97c-.485-.915-.7-1.83-.862-2.8a.411.411 0 0 0-.108-.27c-.7-.27-1.4-.538-2.154-.862.754 1.616 1.293 3.178 3.124 3.933Zm-1.347-4.578c-.43-.108-.861-.215-1.239-.377a1.47 1.47 0 0 1-.646-.485c-.27-.377-.539-.43-.862-.215.539 1.4 2.316 1.993 3.717 1.454a7.187 7.187 0 0 0-.97-.377Zm-9.91 13.682c-.27.754.43 2.047 1.292 2.693.916.646 2.801.916 3.286.27-.323-.324-.7-.593-1.024-.916-.915-.862-1.023-1.832-.484-2.963.538.862 1.184 1.616 1.885 2.316.97.916 1.993 1.778 3.07 2.478.054.054.108.054.162.108.484.269.915.592 1.4.808.108.053.216.107.377.161.539.27 1.024.539 1.562.862a18.405 18.405 0 0 1 2.801 2.155c1.724 1.616 3.178 3.609 3.932 6.14.27-1.292.162-2.693-.215-4.04-.377-1.346-1.023-2.585-1.885-3.716a12.887 12.887 0 0 0-2.963-2.963c-.538-.43-1.131-.808-1.724-1.185a39.63 39.63 0 0 1-1.562-.97c-2.047-1.292-3.932-2.8-5.386-4.578-.377-.485-.754-1.023-1.024-1.562l-.323-.646-.323-.808c-.054-.108-.054-.216-.108-.324-.107-.377-.215-.7-.269-1.077a20.019 20.019 0 0 1-.215-1.777v-.485c-.378.539-.593 1.185-.755 1.885-.161.7-.215 1.4-.161 2.1.054 1.401.485 2.748 1.131 4.04l-.215.216a4.518 4.518 0 0 1-.916-1.831c-.7-2.478-.108-4.794 1.077-6.949.054-.108.108-.323.054-.43-.43-1.294-.27-2.586.27-3.825C43.037 6.077 43.791 5 44.6 4.03c.539-.646.916-.7 1.67-.377.592-.916 1.454-1.454 2.532-1.67-.862.485-1.724.97-1.993 2.1.43-.053.808-.053 1.185-.107.107 0 .215-.108.269-.162.862-1.292 2.209-1.615 3.609-1.723.7-.054 1.67.646 1.885 1.454-.862-1.185-1.993-1.239-3.285-.862-.647.162-.916.647-1.24 1.293.27-.108.485-.162.647-.215 1.131-.593 2.208-.647 3.34-.054-.324 0-.647-.054-.916 0-.162.054-.431.215-.485.377-.108.215-.27.323-.485.323-1.023.054-2.047.054-3.016.108h-.054c-1.347.054-1.616.754-1.777 1.993 0 .107.107.269.161.269.162 0 .323 0 .485-.108.485-.323.916-.7 1.346-1.077.27-.215.54-.162.862-.054-.215.323-.754 0-.754.539.754.323 1.508-.216 2.263-.162-.162.216-.27.377-.431.593.484.269.915.215 1.346.107.377-.107.7-.323 1.024-.538.054-.054.161-.162.161-.216-.054-.377.216-.377.485-.377.377 0 .754-.054 1.077-.323.108-.108.323-.161.485-.161-.323.377-.538.915-1.131.97-.162 0-.323.16-.43.268-.324.377-.647.754-.97 1.078-.97 1.077-.97 2.208.107 3.232.054-.054.108-.108.162-.216.323 1.024.97 1.778 1.939 2.37-.27-.97-.7-1.885-.27-2.855.27 1.616.916 2.91 2.802 3.286-.27-.485-.539-.916-.377-1.508.43 1.185.861 2.316 2.316 2.585-.054-.377-.108-.754-.216-1.077.485.97 1.024 1.94 2.101 2.424.054-.323.054-.7.215-.916.162-.215.54-.269.916-.43-.485-.431-.862-.862-.915-1.509 1.077 1.347 1.508 1.4 2.8.216v.323c0 .108 0 .215.054.323.377-.27.754-.485 1.132-.754.484-.27.808.108 1.238.27v-1.401l.054-.054c.108.323.27.646.377.97.431-.162.539-.54.431-1.186 0-.053.054-.161.054-.215-.108-.485-.539-.7-.916-.97-.053-.053-.161.054-.269.108-.162.108-.323.216-.485.27-.377.107-.915.646-.97 1.023-.16-.108-.269-.216-.376-.27-.108-.053-.27-.053-.539-.107.27.485 0 .754-.27.97-.053.053-.107.161-.16.215-.163.108-.378.323-.486.323-.161-.054-.269-.27-.377-.43-.054-.109-.054-.216-.054-.378-.107.108-.215.162-.323.27-.054-.324.323-.916.647-1.024a5.63 5.63 0 0 1 .915-.216c.324-.053.593-.107.808-.377.162-.161.539-.269.808-.215.916.054 1.508-.593 1.078-1.454-.27-.593-.108-1.185 0-1.724.053-.216.053-.431.107-.646.162-.647-.108-1.078-.592-1.455-.862-.7-1.885-1.023-2.963-1.077h-.646c-.647 0-1.24-.054-1.886-.377-.592-.323-1.292-.431-1.992-.593-.216-.054-.485.054-.755.162-.484.162-.7 0-.808-.431-.107-.377-.269-.754-.43-1.131C55.858.475 53.918-.28 52.68.098c-.108 0-.162.054-.323.161.377.108.646.216.97.27.16.054.323.107.484.107.916.27 1.4.862 1.508 1.832 0 .054.054.161.054.215V2.9c-.377-.754-.862-1.508-1.777-1.724-.808-.162-1.67-.162-2.478-.27.323-.053.7-.107 1.239-.16a4.273 4.273 0 0 0-1.724-.54c-1.4-.161-2.532.54-3.555 1.401-.162.108-.162.377-.216.593-1.023-.54-1.992-.324-2.962.269-.27.215-.431.43-.431.754 0 .7-.323 1.185-.916 1.508-2.37 1.347-2.477 3.61-2.154 5.44.161.809.43 1.563.646 2.37.054.162 0 .378-.054.485a9.545 9.545 0 0 0-1.023 4.04c-.054 1.024.323 1.886 1.023 2.586l.323.323c-.161.7-.323 1.293-.377 1.94-.107.969.324 1.723 1.185 2.154.162.107.377.215.54.323-1.617-.162-2.317-1.131-2.856-2.316ZM65.068 5.16c-.593.431-.916.323-1.293-.323.539.108.916.215 1.293.323Zm-.162.7c.377-.161.808-.215 1.078.108.107.162.107.431.053.646 0 .054-.323.162-.43.162-.324-.054-.593-.162-.916-.215-.646-.054-1.131-.485-1.293-1.185.647.808.593.808 1.508.484Zm-8.08.539c.054-.054.324-.27.7-.485.432-.27 1.078-.646 1.724-.808-.323-.808-.97-1.023-1.777-1.077 0 0 .754-.216 1.993.108h.054l.97.323c.107.054.161.377.107.485-.161.269-.43.43-.646.646-.054.108-.162.27-.108.323.054.108.162.27.27.323.16.108.376.108.538.216.7.485.162 1.185.27 1.777-.162-.269-.27-.538-.27-.808-.054-.484-.27-.646-.754-.7-.593-.054-1.185-.161-1.616-.646-.108-.108-.377-.054-.593-.054a2.337 2.337 0 0 1-.861.377Zm-5.925 34.096c.054-.107.054-.161.108-.269.054 0 .108 0 .108.054-.108.593-.27 1.131-.377 1.778.054-.054.108-.054.161-.108.216-.216.377-.485.593-.593.7-.377 1.077-1.023 1.293-1.777a2.73 2.73 0 0 1 .485-.862c.215-.323.538-.593.646-.916.161-.377.161-.808.161-1.185.431.323.54 1.4-.053 2.155-.162.215-.27.43-.431.7-.054.108-.054.27-.108.485.162-.108.27-.108.323-.216 1.293-1.13 1.616-2.208.97-3.77-.108-.216-.108-.431 0-.7.377-1.185.053-2.317-.485-3.394-.377-.862-1.023-1.562-1.724-2.154l-.808-.647s-.054-.054-.108-.054c-.053 0-.161-.054-.215 0-.754.27-1.454.7-1.724 1.455-.269.7-.269 1.454.054 2.154.377.754.808 1.508 1.185 2.263.054.053.054.161.054.269a3.483 3.483 0 0 1-.43-.485c-.432-.754-.916-1.508-1.347-2.316-.162-.323-.162-.7-.216-1.077-.162-1.024-.377-1.993-1.023-2.91.377.055.754.162 1.077.162.108 0 .377-.053.377-.107 0 0 0-.054.054-.054.161-.216.108-.539-.162-.7-.107-.054-.215-.108-.377-.162-.485-.27-.97-.539-1.4-.808-.054-.054-.108-.054-.162-.108a.49.49 0 0 0-.539 0c-.43.323-.969.539-1.562.593l-.161-.323c-.216-.216-.377-.431-.593-.539-1.454-.539-2.8-.27-3.986.7-.43.323-.7.754-.592 1.347.054.162.161.377.323.485.97.538 1.616 1.292 1.993 2.316.215.538.7.592 1.239.754-.431.162-.754.27-1.131.377-.054 0-.216-.108-.27-.162a1.91 1.91 0 0 1-.215-.484c-.323-1.024-.916-1.724-1.885-2.101-.485-.216-.808-.431-.754-1.024 0-.053 0-.107-.054-.161-.108-.539-.108-.539-.647-.377h-.269c.323-.216.43-.485.808-.323.108.053.27 0 .377-.108.323-.27.593-.593.97-.97-.485-.269-.916-.484-1.4-.323-.755.216-1.563.431-2.263.754-1.078.593-2.209.647-3.394.593-2.585-.162-5.117-.754-7.649-1.24-1.777-.322-3.5-.645-5.278-.86-.862-.109-1.67-.055-2.532 0-.323.053-.7.107-1.023.16-.27.055-.485.108-.7.162-.324.108-.593.216-.916.323-.162.054-.323.162-.431.216.161-.108.27-.162.43-.216-.269.108-.592.27-.969.54h-.054c-.054.053-.107.053-.107.107-1.185.808-2.64 1.185-4.04.808a5.723 5.723 0 0 1-1.778-.97c-.592-.485-.97-.97-1.131-1.723-.108-.755 0-1.563.215-2.263.593-1.724 1.778-3.232 3.394-4.094 2.37-1.238 5.279-.808 7.864-.269 2.64.539 5.44 1.131 7.972.27 3.07-1.078 5.117-4.418 5.01-7.65-.054-1.4-.431-2.8-.754-4.2-.27-1.078-.593-2.102-1.186-3.017-.915-1.455-2.639-2.37-4.363-2.37 1.293.646 2.37 1.831 2.801 3.232a5.742 5.742 0 0 0-3.285-2.64c-1.4-.43-2.91-.27-4.202.377 1.832.754 2.64 2.909 4.094 4.256.97.861 2.208 1.4 3.501 1.508.216 0 .431 0 .646.108.216.107.324.323.431.538.593 1.293.54 2.747.162 4.094-.323 1.185-.916 2.316-1.885 3.07-1.293 1.077-3.07 1.347-4.74 1.24-1.67-.109-3.286-.593-4.902-.917-2.532-.484-5.225-.538-7.595.485a9.363 9.363 0 0 0-4.632 4.363 9.575 9.575 0 0 0-.916 4.417c.054.754.108 1.508.377 2.155.27.7.754 1.293 1.239 1.885.592.7 1.239 1.347 1.939 1.94.377.322.754.592 1.185.861-.054.108-.162.27-.215.377-.162.27-.27.485-.431.754-.27.485-.54 1.024-.862 1.455-.916 1.238-1.4 2.639-1.616 4.147-.216 1.4-.862 2.532-2.1 3.286-.216.108-.378.43-.378.7-.054.862-.43 1.616-.862 2.37-.161.216-.27.431-.377.647-.215.592-.592 1.023-1.077 1.454-.539.539-1.077 1.077-1.508 1.67-.054.27-.162.646-.162.97v1.992s.054 2.64 1.562 6.141v.054c.108.27.323.43.754.592.485.216.916.485 1.4.754.54.324 1.078.431 1.67.216.755-.27.755-.27.647-1.023-.054-.431-.27-.862-.431-1.347a2.623 2.623 0 0 1-.162-.377c.7.377.916.916 1.132 1.508.053.162.107.377.107.539 0 .377.216.484.539.43.377-.053.754-.107 1.185-.161-.054-.754-.162-1.454-.216-2.155.054 0 .054 0 .108-.053.485.592.593 1.346.808 2.046.323-.053.431-.269.377-.484-.054-.377-.054-.755-.161-1.132a2.732 2.732 0 0 0-.485-.861c-.323-.324-.647-.593-1.024-.916-.646-.593-2.316-.754-3.016-.27-.27.216-.485.54-.7.809-.162.215-.377.377-.539.538-.054.054-.215.054-.27.054.216-.377.432-.754.54-1.131.269-.808.915-.97 1.561-1.131.27-.054.485-.108.808-.162-.107-.323-.107-.592-.269-.862a6.14 6.14 0 0 0-.538-1.023c-.324-.431-.378-.916-.324-1.4 0-.054.27-.54 2.101-1.67 1.4-.7 2.64-1.67 3.77-2.748.216-.215.485-.43.7-.646.324-.323.378-.539.055-.862-.27-.27-.593-.377-.916-.592-.108-.054-.216-.108-.27-.216-.16-.43-.376-.754-.861-.754l-.162-.161c.377-.054.647-.162.862-.162.215-.377.323-.862.646-1.131.378-.323.862-.539 1.293-.754 0 .053.054.053.054.107-.108.054-.215.108-.323.216-.377.27-.646.538-.7 1.023 0 .162-.108.324-.108.539-.162.646-.054.862.485 1.239.054.054.107.054.107.108.431.538.916.323 1.347.053.97-.592 1.885-1.292 2.64-2.154 1.238-1.4 2.585-2.693 4.255-3.555.538-.27.97-.7 1.508-1.078.108.054.323.216.485.216.108 0 .215-.215.377-.323.538.43.646.43.862-.054.215.538.7.43 1.077.538-.108-.754-.593-1.454-1.185-1.777-.054.054-.054.108-.108.162 0 .053-.054.107-.054.161a4.862 4.862 0 0 1-.538-.485c-.27.485-.485.485-.754.054-.593-.808-.755-1.723-.54-2.693.055-.323.324-.646.593-.862.7-.646 1.563-1.023 2.424-1.239.054.054 0 .054.054.108-.161.108-.27.27-.485.377-.97.646-1.67 1.454-1.831 2.586 0 .107-.054.161-.054.269 0 .43.27.592.7.323.054.054.054.162.162.215.054.054.215.054.27.054.053 0 .053-.161.053-.215 0-.323.054-.646.162-.97 0 .431.054.808.107 1.24.054.269.162.538.54.376.053-.053.215 0 .322.054.054-.485.054-.97.108-1.454.108-1.131.593-2.047 1.293-2.855.162-.162.43-.27.323-.646-.108-.377-.27-.755-.7-.916-.27-.108-.593-.216-.862-.323.7-.108 1.347-.216 1.993.269.539.431 1.131.862 1.94.485v.108c-.163.053-.324.161-.54.215-1.615.485-2.37 1.724-2.854 3.178-.431 1.347-.27 2.64.7 3.717.377.485.808.915 1.239 1.4 1.346 1.293 3.178 2.424 4.632 2.801a1.912 1.912 0 0 1-.215-.485c1.13.916 1.185.97 1.777.862 0-.054 0-.108-.054-.161 0-.054-.054-.108-.054-.108.485.161.916.27 1.347.43.054-.107.054-.053.108-.16l-.862-.863c.593.27 1.077.485 1.616.755.108.053.215 0 .323 0-.108-.27-.27-.485-.323-.7-.054-.324.054-.432.43-.432 1.401.054 2.748-.053 4.04-.592 2.21-.862 3.448-2.532 3.771-4.902.054-.27 0-.538-.107-.754-.054-.27 0-.377.215-.485.485-.377.97-.754 1.4-1.13.647-.593.97-1.348.916-2.21 0-.161 0-.376.054-.538.054.593.162 1.185.216 1.831 0 .162-.054.27-.108.431-.377.808-.916 1.508-1.67 2.047-.162.108-.215.27-.215.485.053.43 0 .916 0 1.4.484-.269.97-.538 1.454-.861 0 .053 0 0 .054.053-.754.27-1.4.862-1.94 1.455-.592.646-1.184 1.346-1.346 2.262-.108.7-.054 1.454-.054 2.155 0 .107.162.27.27.27 1.13.053 2.262.215 3.393.16.539-.053 1.131-.43 1.616-.754.539-.323.97-.754 1.508-1.077-.215.323-.377.808-.7 1.024-.808.592-1.293 1.454-1.94 2.208-.215.27-.43.485-.7.647-.377.269-.646.592-.807.97-.162.43-.377.86-.593 1.292l-.108-.054c.054-.27.162-.593.216-.862.108-.323.161-.592.27-.916.107-.269.322-.538.484-.807.161-.216.161-.378 0-.54-.216-.16-.485-.376-.754-.43-.808-.108-1.616-.162-2.424-.27-.162-.053-.431-.215-.485-.377-.377-.646-.485-1.346-.323-2.1-.377.161-.7.377-1.024.538-.053.054-.161.054-.215.108-.162.054-.27.162-.431.216-.054 0-.054.053-.108.053-1.562.862-2.047 3.717-2.154 5.549l-.054 1.615-.108 3.07v.27l.108 1.616c0 .162-.054.377-.054.539a1.615 1.615 0 0 1-.215.538c-.378.485-.378.7-.054 1.185.053.108.053.27.053.377-.161.916 0 1.724.378 2.532.269.539.7.862 1.346.862h.7c.378 0 .755 0 1.024.377.108.108.323.162.538.162.216 0 .485 0 .7-.054.324-.054.486-.216.432-.593-.108-.646-.27-1.239-.916-1.562-.215-.108-.377-.323-.646-.538 1.238.323 1.939.915 1.831 2.154.646 0 .916-.27.862-.808 0-.27-.054-.592-.108-.862.054 0 .054 0 .108-.054.161.324.27.647.43.97.378-.27.432-.97.055-1.293-.431-.377-.808-.754-1.293-1.023-.323-.216-.808-.216-1.185-.323.215-.593-.108-1.024-.808-1.24.538-.484 1.023-.969 1.508-1.4.323-.323.539-.646.754-1.077 1.131-2.047 2.209-4.148 3.448-6.14.646-1.078 1.615-1.832 2.585-2.586 1.023-.647 1.778-1.778 2.262-3.07ZM29.68 54.502c-.755.108-1.563.216-2.317.27-.43.054-.808-.108-1.185-.431-.861-.754-1.616-1.562-2.208-2.532a1.04 1.04 0 0 1-.162-.538c.054-1.455.593-2.748 1.293-3.987.7-1.346 1.4-2.693 2.047-4.04 0 0 0-.053.054-.053-1.024-.485-2.1-.647-3.232-.485-.215.054-.539 0-.7-.108-1.293-1.077-3.61-.7-4.633-.054-.377.27-.808.431-1.239.647v.215c.216.7.485 1.455.7 2.155.055.161.108.377.055.538-.216 1.347-.485 2.748-.7 4.094-.055.431.053.754.376 1.024l3.717 3.716c.162.162.377.27.593.27 1.562.161 2.693 1.023 3.393 2.37.162.269.323.43.646.43.593 0 1.24.054 1.832 0 .538-.053.754-.43.808-.915.107-.539-.054-1.077-.377-1.562.808.323 1.13 1.077 1.077 2.316 1.454.162 1.616-.808 1.454-1.885a8.875 8.875 0 0 0-.161-.593c.7.754.97 1.562.485 2.586.377-.108.7-.216 1.023-.323.108-.054.162-.162.162-.216 0-.808-.162-1.562-.647-2.262-.538-.7-1.346-.808-2.154-.647Zm51.225-5.71c-.27-.7-.485-1.454-.862-2.1-.107-.162-.215-.323-.377-.43 0 0-1.454-4.256-3.178-6.303-.161-.162-.323-.377-.484-.539-.054-.054-.162-.161-.27-.215-1.993-1.455-8.349-3.178-8.78-3.286v.108a6.127 6.127 0 0 1-.97 4.093c-.376.593-.915 1.078-1.454 1.455 4.148-.431 7.38.538 8.026 3.232 0 .054.054.161.054.215-.054.216-.054.485-.054.7-.054.862.27 1.509 1.024 1.94l.808.484c.484.27.915.539.97 1.185 0 .216.322.431.484.593.27.161.592.323.916.43.43.162.754.055.915-.376.216-.485.377-.97.323-1.455 0-.323-.107-.646-.377-1.023-.161-.27-.269-.646-.43-1.077.646.646 1.077 1.239 1.238 1.885.108.646 0 1.293-.484 1.94.754.43 1.239.322 1.562-.324.161-.377.323-.754.43-1.077.055 0 .108 0 .162.054l-.161 1.454c.754-.108 1.238-.862.97-1.562Zm-13.197-9.426.862-.646c.97 2.1 3.663 3.124 3.663 3.124-2.747-.485-4.525-2.478-4.525-2.478ZM56.397 22.13l-.539-.431-.27-.216-.269-.215-.538-.377-.539-.323-.916-.593-.915-.646a28.982 28.982 0 0 1-3.448-2.801l-.215-.216-.162-.215-.377-.377a.74.74 0 0 1-.161-.216l-.162-.215c-.108-.162-.216-.27-.377-.431-.216-.27-.431-.539-.647-.862-.107-.162-.215-.27-.323-.431l-.269-.43a8.018 8.018 0 0 1-.916-1.94c-.269-.7-.43-1.4-.538-2.1-.108-.755-.162-1.509-.108-2.263a19.19 19.19 0 0 1 .323-2.37c-.323.27-.538.646-.754.97-.215.376-.43.754-.593 1.13a8.032 8.032 0 0 0-.7 2.532 11.263 11.263 0 0 0 .647 5.333l.269.646c.108.216.215.431.27.593.107.215.215.377.322.592l.324.593c.107.215.269.377.377.538.107.162.269.377.377.54l.43.538.216.27.216.268a21.197 21.197 0 0 0 3.878 3.448c.377.215.7.484 1.077.7l1.078.646.97.593.215.162.215.161c.162.108.323.216.43.323a14.798 14.798 0 0 1 3.179 2.909c.916 1.131 1.67 2.37 2.316 3.77.323.7.593 1.455.808 2.209.27.754.431 1.562.647 2.37.215-.808.323-1.616.377-2.478.053-.862 0-1.67-.054-2.531a13.75 13.75 0 0 0-1.616-4.956c-.97-1.67-2.155-3.016-3.555-4.201Zm-5.925-.593c-.485-.323-.97-.646-1.455-1.023-.43-.377-.862-.755-1.293-1.185a29.79 29.79 0 0 1-1.13-1.347c-.701-.916-1.294-1.94-1.832-2.963-.539-1.023-.97-2.1-1.24-3.232.593.97 1.186 1.994 1.778 2.91a32.47 32.47 0 0 0 1.94 2.8c.323.431.7.862 1.023 1.293.377.43.754.862 1.131 1.239.377.377.808.808 1.24 1.131.43.377.86.7 1.346 1.023-.485-.107-1.024-.377-1.508-.646Zm17.56 9.803c.269-.97.484-2.046.538-3.124.054-1.077 0-2.208-.323-3.34-.27-1.13-.808-2.208-1.562-3.177a9.433 9.433 0 0 0-1.24-1.293l-.322-.27-.377-.269c-.108-.107-.216-.161-.377-.27-.108-.053-.27-.16-.377-.215-.216-.107-.431-.269-.7-.377-.216-.107-.485-.269-.7-.377-.486-.215-.97-.43-1.401-.646-.97-.377-1.94-.7-2.855-.97-1.832-.538-3.555-.97-5.063-1.723l-.27-.162h-.215c-.162-.108-.377-.215-.539-.323-.377-.216-.7-.485-1.023-.754a20.065 20.065 0 0 1-1.886-1.832c-.323-.323-.592-.7-.862-1.077-.269-.377-.592-.754-.861-1.131A90.306 90.306 0 0 1 46 7.639c.161.97.377 1.885.7 2.855.161.485.323.915.485 1.4.215.431.377.916.646 1.347l.162.323.215.323c.108.216.27.431.377.647.27.43.593.861.916 1.239.323.377.7.808 1.077 1.13.216.162.377.378.593.54.108.107.215.16.323.269l.323.215c.431.323.862.593 1.347.862.485.27.915.485 1.4.7.916.431 1.886.754 2.747 1.078 1.778.646 3.34 1.292 4.794 2.154a5.38 5.38 0 0 1 1.67 1.4c.431.54.808 1.132 1.024 1.832.484 1.4.538 3.124.323 4.848-.216 1.724-.647 3.555-1.185 5.332-.539 1.778-1.185 3.555-1.886 5.387.7-.7 1.347-1.4 1.94-2.209.592-.754 1.13-1.562 1.67-2.423.969-1.724 1.83-3.555 2.37-5.548Zm-3.07-6.894a5.12 5.12 0 0 0-.809-1.078c-.592-.7-1.293-1.238-2.1-1.777a15.714 15.714 0 0 0-2.532-1.239c.97 0 1.939.27 2.855.7A7.835 7.835 0 0 1 64.8 22.83c.323.377.646.808.861 1.239.216.43.377.915.54 1.4a6.13 6.13 0 0 1-.055 2.963c-.108-.97-.27-1.886-.538-2.747-.27-.431-.431-.808-.647-1.24ZM58.82 39.85c-.107.108-.269.216-.43.377l-.431.323c-.27.216-.539.431-.862.647-.593.43-1.131.862-1.778 1.239-.592.377-1.239.754-1.831 1.13-.646.378-1.293.701-1.94 1.078-1.292.7-2.639 1.347-4.04 2.1a8.82 8.82 0 0 0 1.186.109c.377 0 .808 0 1.185-.054.808-.054 1.562-.216 2.316-.431 1.508-.431 3.017-1.078 4.363-1.94.7-.43 1.347-.915 1.94-1.508.323-.269.592-.592.861-.861.27-.324.539-.647.754-.97.916-1.347 1.616-2.855 1.724-4.47-.539.592-1.023 1.184-1.562 1.723-.377.539-.916 1.077-1.454 1.508Zm-.269-3.178c-.323.27-.592.593-.862.862-.592.593-1.185 1.077-1.777 1.616a24.768 24.768 0 0 1-1.832 1.508c-.323.27-.646.485-.97.754l-1.023.754c.916.108 1.778-.107 2.64-.377.808-.323 1.616-.754 2.262-1.346.7-.593 1.293-1.24 1.724-2.047.215-.377.377-.808.538-1.185.108-.216.108-.431.162-.647.054-.215.108-.43.108-.646-.162.162-.323.27-.485.43-.215 0-.323.163-.485.324Zm-7.218-24.347c.108.108.162.27.27.377.107.162.215.27.323.377.108.108.215.27.323.377l.323.324.162.161.161.162c.97.808 2.101 1.508 3.286 1.939.593.27 1.185.43 1.778.592.161.054.323.054.43.108.162.054.324.054.485.108.324.054.593.107.916.161.647.054 1.239.162 1.885.162.647 0 1.24 0 1.886-.054a23.113 23.113 0 0 0-1.724-.7c-.593-.216-1.131-.431-1.724-.593a20.61 20.61 0 0 0-1.67-.592l-.807-.323c-.162-.054-.27-.108-.431-.162l-.377-.162c-1.078-.43-2.155-.915-3.178-1.508-.27-.107-.485-.323-.755-.43-.107-.054-.215-.162-.377-.216-.107-.108-.269-.162-.377-.27l-.377-.269c-.108-.107-.215-.215-.323-.27-.215-.215-.485-.376-.646-.646.053.324.161.593.323.916.054.162.161.27.215.431Zm10.45 15.136c.485 1.078.808 2.209 1.077 3.394.054.161.054.323.108.43.054.162.054.324.108.431l.054.216.054.215.107.485c.054.162.054.323.108.485.054.162.054.323.108.485.054.323.108.646.215.97a8.49 8.49 0 0 0 .97-3.933 8.983 8.983 0 0 0-.808-4.093c-.539-1.293-1.455-2.478-2.532-3.394a9.978 9.978 0 0 0-1.777-1.131c-.324-.162-.647-.27-.97-.377-.323-.108-.646-.162-1.023-.216.97.97 1.777 1.886 2.477 2.855.647 1.077 1.24 2.1 1.724 3.178Z" fill="#222229"/></svg>