<svg width="716" height="51" fill="none" xmlns="http://www.w3.org/2000/svg"><path d="M112.256 31.524H98.68l-4.37 7.282h7.893v1.033H86.7v-1.033h5.92l15.596-26.308h.987l14.939 26.308h5.731v1.033h-20.388v-1.033h6.905l-4.134-7.282ZM99.29 30.491h12.403l-6.061-10.711h-.141l-6.2 10.71ZM149.933 14.143v24.663h9.583c1.832 0 3.289-.094 4.369-.281 1.081-.188 2.114-.611 3.148-1.269 1.033-.658 1.832-1.456 2.396-2.349.563-.94 1.174-2.208 1.785-3.805h1.503l-1.174 8.738h-35.939v-1.034h6.718V14.143h-6.718v-1.034h21.422v1.034h-7.093ZM186.294 38.806V14.143h-6.718v-1.034h36.126l.564 8.08h-1.456c0-.234-.376-1.174-1.128-2.724-.752-1.597-1.832-2.678-3.288-3.336-1.457-.657-3.853-.986-7.235-.986h-9.302v11.556h1.739c1.879 0 3.335-.094 4.415-.234 1.081-.141 2.021-.611 2.819-1.316.799-.751 1.269-1.879 1.456-3.43h1.645v11.322h-1.645c-.187-1.69-.61-2.912-1.315-3.71-.705-.752-1.55-1.222-2.631-1.41-1.08-.188-2.677-.282-4.791-.282h-1.739v12.167h7.517v1.034h-21.798v-1.034h6.765ZM238.909 31.524h-13.577l-4.369 7.282h7.893v1.033h-15.503v-1.033h5.919l15.597-26.308h.986l14.939 26.308h5.732v1.033h-20.389v-1.033h6.906l-4.134-7.282Zm-12.966-1.033h12.402l-6.013-10.711h-.141l-6.248 10.71ZM321.497 12.827v7.94h-1.362c-1.503-4.84-5.356-7.235-11.557-7.235-3.335 0-5.778.798-7.281 2.443-1.551 1.644-2.302 5.073-2.302 10.335 0 4.322.329 7.234.986 8.785.658 1.55 1.786 2.677 3.43 3.335 1.644.658 3.429.987 5.355.987 2.537 0 4.933-.611 7.188-1.786 2.255-1.221 3.993-3.147 5.214-5.778h1.504l-.517 8.127h-1.315c-.47-.845-1.269-1.55-2.302-2.16-3.383 1.737-6.812 2.63-10.382 2.63-4.51 0-8.644-1.315-12.356-3.993-3.711-2.678-5.59-5.92-5.59-9.819 0-3.946 1.832-7.281 5.496-10.053 3.665-2.725 7.893-4.134 12.684-4.134 3.712 0 6.953.846 9.772 2.49.846-.846 1.456-1.55 1.879-2.161h1.456v.047ZM350.153 40.45c-5.543 0-10.241-1.456-14.093-4.322-3.853-2.913-5.779-6.013-5.779-9.302 0-3.946 2.02-7.328 6.061-10.147 4.04-2.772 8.737-4.181 14.093-4.181 5.027 0 9.537 1.41 13.577 4.275 3.993 2.866 6.013 6.06 6.013 9.678 0 3.71-2.02 7-6.013 9.771-4.04 2.819-8.644 4.228-13.859 4.228Zm.094-26.918c-2.349 0-4.463.328-6.295.986-1.879.658-3.148 1.832-3.805 3.476-.658 1.645-.987 4.557-.987 8.691 0 2.866.188 5.121.564 6.812.376 1.691 1.362 3.1 2.913 4.228 1.55 1.128 3.993 1.691 7.375 1.691 2.02 0 4.087-.328 6.154-1.033 2.067-.658 3.383-2.02 4.04-3.993.611-1.973.94-5.027.94-9.16 0-3.712-.376-6.296-1.174-7.752-.799-1.41-2.021-2.443-3.712-3.1-1.738-.565-3.758-.846-6.013-.846ZM392.105 14.143v24.663h9.583c1.833 0 3.289-.094 4.369-.281 1.081-.188 2.114-.611 3.148-1.269 1.033-.658 1.832-1.456 2.396-2.349.564-.94 1.174-2.208 1.785-3.805h1.503l-1.174 8.738h-35.938v-1.034h6.717V14.143h-6.717v-1.034h21.422v1.034h-7.094ZM435.606 14.143v24.663h9.584c1.832 0 3.288-.094 4.369-.281 1.08-.188 2.113-.611 3.147-1.269 1.034-.658 1.832-1.456 2.396-2.349.564-.94 1.174-2.208 1.785-3.805h1.503l-1.174 8.738h-35.938v-1.034h6.718V14.143h-6.718v-1.034H442.7v1.034h-7.094ZM479.484 14.143v11.462h3.852c1.362 0 2.537-.093 3.476-.234a4.823 4.823 0 0 0 2.537-1.363c.752-.751 1.175-1.879 1.316-3.43h1.644v11.323h-1.644c-.188-2.161-.846-3.57-1.973-4.275-1.175-.705-2.913-1.034-5.309-1.034h-3.852v12.214h8.691c4.932 0 8.362-.657 10.241-1.926 1.926-1.315 3.054-3.288 3.382-5.966h1.645l-.423 8.926h-37.912v-1.034h6.765V14.143h-6.811v-1.034h36.408l.751 7.141h-1.644c-.564-2.161-1.691-3.711-3.429-4.698-1.739-.94-4.604-1.456-8.597-1.456h-9.114v.047ZM543.14 12.827v7.94h-1.363c-1.503-4.84-5.355-7.235-11.556-7.235-3.336 0-5.779.798-7.282 2.443-1.55 1.644-2.302 5.073-2.302 10.335 0 4.322.329 7.234.987 8.785.657 1.55 1.785 2.677 3.429 3.335 1.644.658 3.429.987 5.356.987 2.536 0 4.932-.611 7.187-1.786 2.255-1.221 3.993-3.147 5.215-5.778h1.503l-.517 8.127h-1.315c-.47-.845-1.269-1.55-2.302-2.16-3.382 1.737-6.812 2.63-10.382 2.63-4.51 0-8.644-1.315-12.355-3.993-3.712-2.678-5.591-5.92-5.591-9.819 0-3.946 1.832-7.281 5.497-10.053 3.664-2.725 7.892-4.134 12.684-4.134 3.711 0 6.952.846 9.771 2.49.846-.846 1.456-1.55 1.879-2.161h1.457v.047ZM551.501 13.11h36.455l1.128 9.066h-1.645c-.986-3.053-2.302-5.167-3.993-6.295-1.691-1.127-3.805-1.738-6.483-1.738h-3.476v24.663h7.657v1.034h-22.878v-1.034h7.657V14.143h-3.476c-2.678 0-4.839.564-6.483 1.738-1.644 1.174-2.96 3.288-3.993 6.295h-1.597l1.127-9.067ZM602.238 38.806V14.143h-7v-1.034h21.61v1.034h-7.047v24.663h7.047v1.034h-21.61v-1.034h7ZM644.471 40.45c-5.543 0-10.241-1.456-14.093-4.322-3.853-2.913-5.779-6.013-5.779-9.302 0-3.946 2.02-7.328 6.061-10.147 4.04-2.819 8.737-4.181 14.093-4.181 5.027 0 9.537 1.41 13.577 4.275 3.993 2.866 6.013 6.06 6.013 9.678 0 3.71-2.02 7-6.013 9.771-4.04 2.819-8.644 4.228-13.859 4.228Zm.094-26.918c-2.349 0-4.463.328-6.295.986-1.879.658-3.148 1.832-3.805 3.476-.658 1.645-.987 4.557-.987 8.691 0 2.866.188 5.121.564 6.812.376 1.691 1.362 3.1 2.913 4.228 1.55 1.128 3.993 1.691 7.375 1.691 2.02 0 4.087-.328 6.154-1.033 2.067-.658 3.383-2.02 4.04-3.993.611-1.973.94-5.027.94-9.16 0-3.712-.376-6.296-1.175-7.752-.798-1.41-2.02-2.443-3.711-3.1-1.738-.565-3.758-.846-6.013-.846ZM709.535 14.143V40.45h-1.315l-28.187-26.449h-.141v24.804h7.235v1.034h-15.221v-1.034h6.342V14.143h-6.812v-1.034h16.349l19.918 18.745h.141V14.143h-7.094v-1.034h15.174v1.034h-6.389ZM30.218 36.666c-2.014.183-3.891-.32-5.631-1.42-.916-.55-1.832-1.144-2.793-1.602-1.053-.504-2.244-.733-3.388-.412a6.887 6.887 0 0 0-1.557.732c-.595.412-1.145.916-1.74 1.374l-.046.046c-.045.045-.045.091-.045.137.366-.183.732-.366 1.053-.55.87-.595 2.793-.87 3.937.046a.873.873 0 0 0 .595.092c.962-.138 1.878 0 2.747.412l.275.137c.87.458 1.694.962 2.564 1.374 1.328.64 2.701.778 4.12.458.688-.138.688-.138.78-.824v-.138a3.11 3.11 0 0 1-.87.138Zm13.186-25.64c-.412-.778-.595-1.557-.732-2.381a.35.35 0 0 0-.092-.229c-.595-.229-1.19-.458-1.831-.733.64 1.374 1.099 2.702 2.655 3.343ZM42.26 7.134c-.366-.092-.733-.183-1.053-.32a1.25 1.25 0 0 1-.55-.413c-.229-.32-.457-.366-.732-.183.458 1.19 1.969 1.694 3.159 1.237a6.111 6.111 0 0 0-.824-.32Zm-8.425 11.63c-.229.64.367 1.74 1.1 2.289.777.55 2.38.778 2.792.229-.275-.275-.595-.504-.87-.779-.778-.732-.87-1.556-.412-2.518.458.733 1.007 1.374 1.603 1.969.824.778 1.694 1.51 2.61 2.106.045.046.09.046.137.092.412.229.778.503 1.19.686.092.046.183.092.32.138.459.229.87.458 1.328.732a15.65 15.65 0 0 1 2.381 1.832c1.465 1.373 2.702 3.067 3.343 5.22.229-1.1.137-2.29-.184-3.435-.32-1.144-.87-2.197-1.602-3.159a10.953 10.953 0 0 0-2.518-2.518c-.458-.366-.962-.687-1.465-1.007-.458-.275-.916-.55-1.328-.824-1.74-1.1-3.343-2.381-4.579-3.892-.32-.412-.64-.87-.87-1.328l-.274-.55-.275-.686c-.046-.092-.046-.183-.092-.275-.091-.32-.183-.595-.229-.916a16.986 16.986 0 0 1-.183-1.51v-.412c-.32.457-.503 1.007-.64 1.602-.138.595-.184 1.19-.138 1.786.046 1.19.412 2.335.962 3.434l-.184.183a3.839 3.839 0 0 1-.778-1.557c-.595-2.106-.092-4.075.916-5.906.045-.092.091-.275.045-.367-.366-1.099-.229-2.197.23-3.25.412-1.008 1.053-1.923 1.74-2.748.457-.549.778-.595 1.419-.32.503-.778 1.236-1.236 2.151-1.42-.732.413-1.465.825-1.694 1.786.367-.046.687-.046 1.008-.091.091 0 .183-.092.229-.138.732-1.099 1.877-1.373 3.067-1.465.596-.046 1.42.55 1.603 1.236C44.96 2.006 44 1.96 42.9 2.281c-.55.137-.779.55-1.053 1.099.229-.092.412-.138.55-.183.96-.504 1.876-.55 2.838-.046-.275 0-.55-.046-.778 0-.138.046-.367.183-.413.32-.091.183-.229.275-.412.275-.87.046-1.74.046-2.564.092h-.045c-1.145.045-1.374.64-1.511 1.694 0 .091.091.229.137.229.137 0 .275 0 .412-.092.412-.275.779-.595 1.145-.916.229-.183.458-.137.732-.046-.183.275-.64 0-.64.458.64.275 1.281-.183 1.922-.137-.137.183-.229.32-.366.504.412.229.778.183 1.145.091.32-.091.595-.275.87-.458.045-.045.137-.137.137-.183-.046-.32.183-.32.412-.32.32 0 .641-.046.916-.275.091-.092.274-.137.412-.137-.275.32-.458.778-.962.824-.137 0-.274.137-.366.229-.275.32-.55.64-.824.915-.824.916-.824 1.878.092 2.747a.632.632 0 0 0 .137-.183c.275.87.824 1.511 1.648 2.015-.229-.824-.595-1.603-.229-2.427.23 1.374.779 2.473 2.381 2.793-.229-.412-.458-.778-.32-1.282.366 1.008.732 1.969 1.968 2.198-.045-.32-.091-.641-.183-.916.412.824.87 1.648 1.786 2.06.045-.274.045-.595.183-.778.137-.183.458-.229.778-.366-.412-.366-.732-.733-.778-1.282.916 1.144 1.282 1.19 2.38.183v.275c0 .091 0 .183.046.274.321-.229.642-.412.962-.64.412-.23.687.091 1.053.228v-1.19l.046-.046c.091.275.229.55.32.824.367-.137.458-.457.367-1.007 0-.046.045-.137.045-.183-.091-.412-.457-.595-.778-.824-.046-.046-.137.046-.229.091a1.858 1.858 0 0 1-.412.23c-.32.09-.778.549-.824.87-.137-.092-.229-.184-.32-.23-.092-.046-.23-.046-.458-.091.228.412 0 .64-.23.824-.045.046-.09.137-.137.183-.137.091-.32.275-.412.275-.137-.046-.229-.23-.32-.367-.046-.091-.046-.183-.046-.32-.092.091-.183.137-.275.229-.045-.275.275-.779.55-.87a4.79 4.79 0 0 1 .778-.183c.275-.046.504-.092.687-.32.137-.138.458-.23.687-.184.778.046 1.282-.504.915-1.236-.229-.504-.091-1.007 0-1.465.046-.183.046-.366.092-.55.137-.55-.092-.915-.504-1.236-.732-.595-1.602-.87-2.518-.916h-.55c-.549 0-1.053-.045-1.602-.32-.504-.275-1.099-.366-1.694-.504-.183-.045-.412.046-.64.138-.413.137-.596 0-.688-.367a8.253 8.253 0 0 0-.366-.961C47.479.404 45.831-.237 44.778.083c-.091 0-.137.046-.275.137.32.092.55.184.825.23.137.045.274.091.411.091.779.229 1.19.733 1.283 1.557 0 .045.045.137.045.183v.183c-.32-.641-.732-1.282-1.51-1.465C44.87.86 44.136.86 43.45.769c.275-.045.595-.09 1.053-.136a3.631 3.631 0 0 0-1.465-.458c-1.19-.138-2.152.458-3.022 1.19-.137.092-.137.32-.183.504-.87-.458-1.694-.275-2.518.229-.229.183-.366.366-.366.64 0 .596-.275 1.008-.779 1.283-2.014 1.144-2.106 3.067-1.831 4.624.137.687.366 1.328.55 2.014.045.138 0 .321-.046.413a8.112 8.112 0 0 0-.87 3.434c-.046.87.274 1.602.87 2.197l.274.275c-.137.595-.274 1.099-.32 1.648-.092.824.275 1.465 1.007 1.832.137.091.32.183.458.274-1.374-.137-1.969-.961-2.427-1.968ZM55.31 4.386c-.504.366-.779.275-1.1-.275.459.092.78.183 1.1.275Zm-.138.595c.32-.137.687-.183.916.092.092.137.092.366.046.55 0 .045-.275.137-.367.137-.274-.046-.503-.138-.778-.184-.55-.045-.961-.412-1.099-1.007.55.687.504.687 1.282.412Zm-6.867.458c.045-.046.274-.229.595-.412.366-.229.915-.55 1.465-.687-.275-.687-.824-.87-1.511-.916 0 0 .64-.183 1.694.092h.046l.824.275c.091.046.137.32.091.412-.137.229-.366.366-.549.55-.046.09-.137.228-.092.274.046.092.138.229.23.275.137.091.32.091.457.183.596.412.138 1.007.23 1.51-.138-.228-.23-.457-.23-.686-.046-.412-.229-.55-.64-.595-.504-.046-1.008-.138-1.374-.55-.092-.091-.32-.045-.504-.045a1.987 1.987 0 0 1-.733.32Zm-5.037 28.982c.046-.091.046-.137.092-.229.045 0 .091 0 .091.046-.091.504-.229.962-.32 1.51.045-.045.091-.045.137-.09.183-.184.32-.413.504-.504.595-.32.916-.87 1.099-1.511a2.32 2.32 0 0 1 .412-.733c.183-.275.458-.503.55-.778.136-.32.136-.687.136-1.007.367.274.458 1.19-.045 1.831-.138.183-.23.366-.367.595-.045.092-.045.23-.091.412.137-.091.229-.091.274-.183 1.1-.961 1.374-1.877.825-3.205-.092-.183-.092-.366 0-.595.32-1.007.045-1.969-.412-2.885-.32-.732-.87-1.327-1.465-1.831l-.687-.55s-.046-.045-.092-.045-.137-.046-.183 0c-.641.229-1.236.595-1.465 1.236a2.316 2.316 0 0 0 .046 1.831c.32.641.686 1.282 1.007 1.923.046.046.046.138.046.23a2.967 2.967 0 0 1-.367-.413c-.366-.64-.778-1.282-1.144-1.968-.138-.275-.138-.596-.183-.916-.138-.87-.32-1.694-.87-2.473.32.046.64.138.915.138.092 0 .32-.046.32-.092 0 0 0-.046.047-.046.137-.183.091-.457-.138-.595a2.23 2.23 0 0 0-.32-.137c-.412-.23-.824-.458-1.19-.687-.046-.046-.092-.046-.138-.091a.416.416 0 0 0-.458 0 2.606 2.606 0 0 1-1.328.503l-.137-.275c-.183-.183-.32-.366-.504-.457-1.236-.458-2.38-.23-3.388.595-.366.274-.595.64-.503 1.144.046.138.137.32.274.412.825.458 1.374 1.1 1.694 1.97.184.457.596.503 1.053.64-.366.138-.64.23-.961.32-.046 0-.183-.09-.229-.137-.092-.137-.137-.274-.183-.412-.275-.87-.778-1.465-1.602-1.785-.413-.183-.687-.367-.642-.87 0-.046 0-.092-.045-.138-.092-.457-.092-.457-.55-.32h-.229c.275-.183.367-.412.687-.275.092.046.23 0 .32-.091.275-.23.504-.504.825-.825-.412-.228-.779-.412-1.19-.274-.642.183-1.328.366-1.924.64-.915.504-1.877.55-2.884.504-2.198-.137-4.35-.64-6.502-1.053-1.51-.274-2.976-.55-4.487-.732-.732-.092-1.419-.046-2.152 0-.274.046-.595.091-.87.137a12.04 12.04 0 0 0-.595.137c-.274.092-.503.184-.778.275-.137.046-.275.138-.366.183.137-.091.229-.137.366-.183a3.88 3.88 0 0 0-.824.458h-.046c-.046.046-.091.046-.091.092-1.008.686-2.244 1.007-3.434.686a4.862 4.862 0 0 1-1.511-.824c-.504-.412-.824-.824-.962-1.465-.091-.64 0-1.328.183-1.923.504-1.465 1.511-2.747 2.885-3.48 2.014-1.053 4.487-.686 6.684-.228 2.244.457 4.625.961 6.777.229 2.61-.916 4.35-3.755 4.258-6.502-.046-1.19-.367-2.38-.641-3.571-.23-.916-.504-1.786-1.008-2.564-.778-1.236-2.243-2.015-3.708-2.015 1.099.55 2.014 1.557 2.38 2.747a4.88 4.88 0 0 0-2.792-2.243c-1.19-.366-2.473-.23-3.571.32 1.556.641 2.243 2.473 3.48 3.617a5.15 5.15 0 0 0 2.975 1.282c.183 0 .367 0 .55.092.183.091.274.275.366.458.504 1.099.458 2.335.137 3.48-.274 1.007-.778 1.968-1.602 2.61-1.099.915-2.61 1.144-4.03 1.052-1.419-.091-2.792-.503-4.166-.778-2.152-.412-4.44-.458-6.455.412a7.958 7.958 0 0 0-3.938 3.709 8.139 8.139 0 0 0-.778 3.754c.045.641.091 1.282.32 1.831.23.596.641 1.1 1.053 1.603a14.016 14.016 0 0 0 1.649 1.648c.32.275.64.504 1.007.733-.046.091-.138.229-.183.32-.138.23-.23.412-.367.641-.229.412-.457.87-.732 1.236-.779 1.053-1.19 2.244-1.374 3.526-.183 1.19-.732 2.152-1.785 2.793-.184.091-.32.366-.32.595-.047.733-.367 1.374-.733 2.015a3.41 3.41 0 0 0-.321.549c-.183.504-.504.87-.916 1.236-.458.458-.915.916-1.282 1.42-.045.229-.137.549-.137.824v1.694s.046 2.243 1.328 5.22v.045c.091.229.274.366.64.504.413.183.78.412 1.191.64.458.275.916.367 1.42.184.64-.23.64-.23.549-.87-.046-.366-.229-.733-.366-1.145-.046-.091-.092-.183-.138-.32.596.32.779.778.962 1.282.046.137.091.32.091.458 0 .32.184.412.458.366.32-.046.641-.092 1.008-.138-.046-.64-.138-1.236-.184-1.83.046 0 .046 0 .092-.047.412.504.504 1.145.687 1.74.274-.046.366-.229.32-.412-.046-.32-.046-.64-.137-.961a2.322 2.322 0 0 0-.412-.733c-.275-.275-.55-.504-.87-.778-.55-.504-1.969-.641-2.564-.23-.229.184-.412.459-.595.688-.138.183-.32.32-.458.457-.046.046-.183.046-.23.046.184-.32.367-.64.459-.961.229-.687.778-.824 1.328-.962.228-.046.412-.091.686-.137-.091-.275-.091-.504-.229-.733a5.218 5.218 0 0 0-.457-.87c-.275-.366-.321-.778-.275-1.19 0-.046.229-.458 1.785-1.42 1.19-.595 2.244-1.419 3.205-2.334.184-.184.412-.367.596-.55.274-.275.32-.458.045-.732-.229-.23-.503-.32-.778-.504-.092-.046-.183-.092-.229-.183-.137-.367-.32-.641-.732-.641l-.138-.138c.32-.045.55-.137.733-.137.183-.32.274-.732.55-.961.32-.275.732-.458 1.098-.641 0 .045.046.045.046.091-.092.046-.183.092-.275.183-.32.23-.55.458-.595.87 0 .138-.092.275-.092.458-.137.55-.045.733.412 1.053.046.046.092.046.092.092.366.458.778.274 1.145.045.824-.503 1.602-1.098 2.243-1.83 1.053-1.191 2.198-2.29 3.617-3.023.458-.229.824-.595 1.282-.915.092.045.275.183.412.183.092 0 .183-.183.32-.275.459.366.55.366.733-.046.183.458.596.366.916.458-.092-.64-.504-1.236-1.007-1.51-.046.045-.046.09-.092.137 0 .045-.046.091-.046.137-.183-.137-.32-.275-.457-.412-.23.412-.413.412-.642.046-.503-.687-.64-1.466-.457-2.29.045-.274.274-.55.503-.732.596-.55 1.328-.87 2.06-1.053.046.046 0 .046.046.091-.137.092-.229.23-.412.32-.824.55-1.419 1.237-1.556 2.198 0 .092-.046.138-.046.23 0 .366.229.503.595.274.046.046.046.137.137.183.046.046.183.046.23.046.045 0 .045-.137.045-.183 0-.275.046-.55.137-.824 0 .366.046.687.092 1.053.046.229.137.458.458.32.046-.046.183 0 .275.046.045-.412.045-.824.091-1.236.092-.962.504-1.74 1.099-2.427.137-.137.366-.229.275-.55-.092-.32-.23-.64-.596-.777-.228-.092-.503-.184-.732-.275.595-.092 1.145-.183 1.694.229.458.366.962.732 1.648.412v.091c-.137.046-.274.138-.458.184-1.373.412-2.014 1.465-2.426 2.7-.366 1.145-.23 2.244.595 3.16.32.412.687.778 1.053 1.19 1.145 1.1 2.701 2.06 3.938 2.381-.092-.137-.138-.275-.184-.412.962.779 1.008.824 1.511.733 0-.046 0-.092-.045-.138 0-.045-.046-.091-.046-.091.412.137.778.229 1.144.366.046-.091.046-.046.092-.137l-.732-.733c.503.23.915.412 1.373.641.092.046.183 0 .275 0-.092-.229-.23-.412-.275-.595-.046-.275.046-.366.366-.366 1.19.045 2.335-.046 3.434-.504 1.877-.733 2.93-2.152 3.205-4.166.046-.23 0-.458-.091-.641-.046-.23 0-.32.183-.413.412-.32.824-.64 1.19-.961.55-.504.824-1.145.778-1.877 0-.137 0-.32.046-.458.046.504.138 1.007.183 1.557 0 .137-.045.229-.091.366-.32.687-.779 1.282-1.42 1.74-.137.091-.183.229-.183.412.046.366 0 .778 0 1.19.413-.229.825-.458 1.237-.732 0 .046 0 0 .045.046-.64.228-1.19.732-1.648 1.236-.503.55-1.007 1.144-1.145 1.923-.091.595-.045 1.236-.045 1.831 0 .092.137.229.229.229.961.046 1.923.183 2.884.137.458-.045.962-.366 1.374-.64.457-.275.824-.642 1.282-.916-.184.274-.32.686-.596.87-.686.503-1.098 1.236-1.648 1.877a2.24 2.24 0 0 1-.595.55 1.96 1.96 0 0 0-.687.823c-.137.367-.32.733-.504 1.1l-.091-.047c.046-.228.137-.503.183-.732.092-.275.138-.504.229-.779.092-.228.275-.457.412-.686.137-.183.137-.32 0-.458-.183-.137-.412-.32-.64-.366-.688-.092-1.375-.138-2.061-.23-.138-.045-.367-.182-.412-.32a2.42 2.42 0 0 1-.275-1.785c-.32.137-.595.32-.87.457-.046.046-.137.046-.183.092-.137.046-.229.137-.366.183-.046 0-.046.046-.092.046-1.328.732-1.74 3.16-1.831 4.716l-.046 1.373-.092 2.61v.229l.092 1.374c0 .137-.046.32-.046.457-.046.184-.091.32-.183.458-.32.412-.32.596-.046 1.008.046.091.046.228.046.32-.137.778 0 1.465.32 2.152.23.458.596.733 1.145.733h.595c.32 0 .641 0 .87.32.092.092.275.137.458.137s.412 0 .595-.045c.275-.046.412-.184.367-.504-.092-.55-.23-1.053-.779-1.328-.183-.091-.32-.275-.55-.458 1.054.275 1.649.779 1.557 1.832.55 0 .779-.23.733-.687 0-.229-.046-.504-.091-.733.045 0 .045 0 .091-.045.137.274.229.549.366.824.32-.23.367-.824.046-1.1-.366-.32-.687-.64-1.099-.869-.275-.183-.687-.183-1.007-.275.183-.503-.092-.87-.687-1.053.458-.412.87-.824 1.282-1.19a3.29 3.29 0 0 0 .641-.916c.962-1.74 1.877-3.525 2.93-5.22.55-.915 1.374-1.556 2.198-2.197.87-.55 1.511-1.511 1.923-2.61Zm-18.04 11.904c-.64.092-1.327.183-1.968.23-.366.045-.687-.092-1.007-.367-.733-.641-1.374-1.328-1.877-2.152a.883.883 0 0 1-.138-.458c.046-1.236.504-2.335 1.099-3.388.595-1.145 1.19-2.29 1.74-3.434 0 0 0-.046.046-.046a4.722 4.722 0 0 0-2.747-.412.873.873 0 0 1-.596-.091c-1.099-.916-3.067-.596-3.937-.046-.32.229-.687.366-1.053.55v.182c.183.596.412 1.237.595 1.832.046.137.091.32.046.458-.184 1.144-.412 2.335-.596 3.48-.045.366.046.64.32.87 1.054 1.052 2.107 2.105 3.16 3.159.137.137.32.229.504.229 1.327.137 2.289.87 2.884 2.014.138.229.275.366.55.366.503 0 1.053.046 1.556 0 .458-.045.641-.366.687-.778.092-.458-.046-.916-.32-1.328.686.275.961.916.915 1.969 1.237.137 1.374-.687 1.237-1.602a7.51 7.51 0 0 0-.138-.504c.595.64.824 1.328.412 2.198.32-.092.596-.184.87-.275.092-.046.137-.138.137-.183 0-.687-.137-1.328-.549-1.923-.458-.595-1.145-.687-1.831-.55Zm43.542-4.853c-.228-.595-.412-1.236-.732-1.786-.092-.137-.183-.274-.32-.366 0 0-1.237-3.617-2.702-5.357-.137-.137-.275-.32-.412-.458a.998.998 0 0 0-.229-.183c-1.694-1.236-7.097-2.701-7.463-2.793v.092a5.207 5.207 0 0 1-.824 3.48c-.32.503-.778.915-1.236 1.236 3.525-.367 6.272.458 6.822 2.747 0 .046.046.137.046.183-.046.183-.046.412-.046.595-.046.733.229 1.282.87 1.649l.687.412c.412.229.778.458.824 1.007 0 .183.274.366.412.504.229.137.503.274.778.366.366.137.641.046.778-.32.184-.413.32-.825.275-1.237 0-.275-.091-.55-.32-.87-.138-.229-.23-.55-.367-.916.55.55.916 1.054 1.053 1.603.092.55 0 1.099-.412 1.648.641.366 1.053.275 1.328-.275.138-.32.275-.64.366-.915.046 0 .092 0 .138.046l-.138 1.236c.641-.092 1.054-.733.825-1.328Zm-11.217-8.012.733-.55c.824 1.786 3.113 2.656 3.113 2.656-2.335-.412-3.846-2.106-3.846-2.106Zm-9.615-14.652-.458-.366-.229-.183-.228-.183-.458-.32-.458-.276-.779-.503-.778-.55a24.62 24.62 0 0 1-2.93-2.38l-.183-.184-.138-.183-.32-.32c-.046-.046-.092-.092-.138-.183l-.137-.183a2.283 2.283 0 0 0-.32-.367 10.198 10.198 0 0 1-.55-.732c-.091-.138-.183-.23-.274-.367l-.23-.366a6.816 6.816 0 0 1-.778-1.648 8.54 8.54 0 0 1-.458-1.786 9.027 9.027 0 0 1-.091-1.923 16.32 16.32 0 0 1 .274-2.014c-.274.229-.457.55-.64.824-.184.32-.367.64-.504.961a6.827 6.827 0 0 0-.595 2.152 9.567 9.567 0 0 0 .55 4.533l.228.55c.092.183.183.366.229.503.092.183.183.32.275.504l.274.503c.092.184.23.32.32.458.093.138.23.32.321.458l.367.458.183.229.183.229a18.018 18.018 0 0 0 3.297 2.93c.32.183.595.412.915.595l.916.55.824.503.183.138.183.137c.138.092.275.183.367.275a12.579 12.579 0 0 1 2.7 2.472 15.03 15.03 0 0 1 1.97 3.205c.274.595.503 1.236.686 1.877.23.641.367 1.328.55 2.015.183-.687.275-1.374.32-2.106.046-.733 0-1.42-.045-2.152a11.687 11.687 0 0 0-1.374-4.212c-.824-1.42-1.831-2.564-3.022-3.572Zm-5.036-.503c-.412-.275-.824-.55-1.236-.87-.367-.32-.733-.641-1.1-1.008-.32-.366-.64-.732-.96-1.144-.596-.779-1.1-1.648-1.557-2.518a11.752 11.752 0 0 1-1.053-2.748c.503.825 1.007 1.695 1.51 2.473a27.612 27.612 0 0 0 1.649 2.38c.274.367.595.733.87 1.1.32.366.64.732.961 1.053.32.32.687.686 1.053.961.367.32.733.595 1.145.87-.412-.091-.87-.32-1.282-.55Zm14.926 8.333c.229-.825.412-1.74.458-2.656.046-.916 0-1.877-.275-2.839-.229-.961-.687-1.877-1.328-2.701a8.033 8.033 0 0 0-1.053-1.099l-.275-.229-.32-.229c-.092-.091-.183-.137-.32-.229-.092-.045-.23-.137-.321-.183-.183-.091-.366-.229-.595-.32-.183-.092-.412-.23-.596-.32-.411-.184-.824-.367-1.19-.55a30.402 30.402 0 0 0-2.426-.824c-1.557-.458-3.022-.824-4.304-1.465l-.23-.138h-.182c-.138-.091-.32-.183-.458-.274-.32-.184-.596-.413-.87-.642a17.073 17.073 0 0 1-1.603-1.556c-.274-.275-.503-.595-.732-.916-.23-.32-.504-.64-.733-.961a76.836 76.836 0 0 1-1.373-2.015c.137.824.32 1.603.595 2.427.137.412.275.778.412 1.19.183.366.32.779.55 1.145l.137.274.183.275c.091.183.229.366.32.55.23.366.504.732.779 1.053.274.32.595.686.915.961.184.137.32.32.504.458.092.092.183.137.275.229l.274.183c.367.275.733.504 1.145.733.412.229.779.412 1.19.595.779.366 1.603.64 2.336.916 1.51.549 2.838 1.098 4.075 1.831.595.32 1.053.733 1.419 1.19.366.458.687.962.87 1.557.412 1.19.458 2.656.274 4.12-.183 1.466-.549 3.023-1.007 4.534-.458 1.51-1.007 3.021-1.602 4.578.595-.595 1.144-1.19 1.648-1.877.504-.641.961-1.328 1.42-2.06.823-1.466 1.556-3.022 2.014-4.716Zm-2.61-5.86a4.356 4.356 0 0 0-.687-.917c-.503-.595-1.099-1.053-1.785-1.51a13.359 13.359 0 0 0-2.152-1.054c.824 0 1.648.23 2.426.596a6.66 6.66 0 0 1 2.06 1.51c.275.321.55.687.733 1.054.183.366.32.778.458 1.19a5.21 5.21 0 0 1-.046 2.518c-.091-.824-.229-1.602-.457-2.335-.23-.366-.367-.687-.55-1.053Zm-5.22 13.094c-.091.091-.228.183-.366.32l-.366.275c-.229.183-.458.366-.733.55-.503.366-.961.732-1.51 1.052-.504.32-1.053.641-1.557.962-.55.32-1.099.595-1.649.916-1.098.595-2.243 1.144-3.433 1.785.32.046.686.092 1.007.092.32 0 .687 0 1.007-.046a9.351 9.351 0 0 0 1.969-.366 14.133 14.133 0 0 0 3.709-1.649 8.86 8.86 0 0 0 1.648-1.282c.275-.228.504-.503.732-.732.23-.275.458-.55.641-.824.779-1.145 1.374-2.427 1.466-3.8-.458.503-.87 1.007-1.328 1.465-.32.457-.779.915-1.236 1.282Zm-.228-2.702c-.275.23-.504.504-.733.733-.504.504-1.007.916-1.51 1.374-.505.457-1.008.87-1.558 1.282-.274.228-.549.411-.824.64l-.87.641c.779.092 1.511-.091 2.244-.32.687-.275 1.373-.641 1.923-1.145.595-.503 1.099-1.053 1.465-1.74.183-.32.32-.686.458-1.007.091-.183.091-.366.137-.55.046-.182.092-.366.092-.549-.138.138-.275.23-.412.367-.183 0-.275.137-.412.274Zm-6.136-20.695c.092.092.138.23.23.32.09.138.182.23.274.321.092.092.183.23.275.32l.275.276.137.137.137.137c.824.687 1.786 1.282 2.793 1.649.504.229 1.007.366 1.511.503.137.046.275.046.366.092.138.046.275.046.412.091.275.046.504.092.779.138.55.045 1.053.137 1.602.137.55 0 1.053 0 1.603-.046a19.654 19.654 0 0 0-1.465-.595c-.504-.183-.962-.366-1.466-.504a17.522 17.522 0 0 0-1.419-.503l-.687-.275c-.137-.046-.229-.091-.366-.137l-.32-.138c-.916-.366-1.832-.778-2.702-1.282-.229-.091-.412-.274-.64-.366-.092-.046-.184-.137-.321-.183-.092-.092-.23-.137-.32-.229L44 10.11a1.215 1.215 0 0 0-.275-.229c-.183-.183-.412-.32-.55-.55.046.275.138.504.275.78.046.136.138.228.183.365Zm8.883 12.866c.412.916.687 1.877.916 2.885.045.137.045.274.091.366.046.137.046.274.092.366l.045.183.046.183.092.412c.045.138.045.275.091.413.046.137.046.274.092.412.046.274.091.549.183.824a7.215 7.215 0 0 0 .824-3.343 7.638 7.638 0 0 0-.687-3.48c-.458-1.098-1.236-2.105-2.151-2.884a8.492 8.492 0 0 0-1.511-.961 6.132 6.132 0 0 0-.825-.32 4.87 4.87 0 0 0-.87-.184c.825.824 1.511 1.603 2.107 2.427.549.915 1.053 1.785 1.465 2.701Z" fill="#fff"/></svg>