<svg width="32" height="33" viewBox="0 0 32 33" fill="none" xmlns="http://www.w3.org/2000/svg">
<path d="M21.7704 1.5H10.2366C7.77174 1.5134 5.42077 2.50469 3.68601 4.25285C1.95124 6.0077 0.986742 8.37207 1.00014 10.8369V22.1698C0.986742 24.6346 1.95124 26.999 3.68601 28.7472C5.42077 30.4953 7.77174 31.4866 10.2366 31.5H21.7771C24.2419 31.4866 26.5929 30.4953 28.3277 28.7472C30.0624 26.999 31.0269 24.6279 31.0135 22.1698V10.8369C31.0269 8.37207 30.0624 6.0077 28.3277 4.25954C26.5929 2.50469 24.2352 1.5134 21.7704 1.5Z" stroke="black" stroke-width="1.5" stroke-miterlimit="128" stroke-linecap="round" stroke-linejoin="round"/>
<path d="M17.4697 13.3506H24.6432V20.4973" stroke="black" stroke-width="1.5" stroke-miterlimit="128" stroke-linecap="round" stroke-linejoin="round"/>
<path d="M24.6446 13.3506L15.6426 22.6138C14.8522 23.4042 13.593 23.4511 12.7424 22.7344L10.8134 21.0934C10.3646 20.7116 9.77521 20.5308 9.19249 20.5977C8.60307 20.6647 8.07394 20.9661 7.71895 21.435C7.63857 21.5488 7.5515 21.6627 7.45773 21.7632L2.46777 27.222" stroke="black" stroke-width="1.5" stroke-miterlimit="128" stroke-linecap="round" stroke-linejoin="round"/>
</svg>
