<svg width="60" height="60" viewBox="0 0 60 60" fill="none" xmlns="http://www.w3.org/2000/svg">
<path d="M34.1893 24.0844C34.1893 24.0844 35.5485 22.7253 35.5485 19.4635C35.5485 16.2016 35.5485 14.2989 35.5485 14.2989C35.5485 14.2989 35.9109 8.5 30.0214 8.5H29.9308C24.0413 8.5 24.4038 14.2989 24.4038 14.2989C24.4038 14.2989 24.4038 16.2016 24.4038 19.4635C24.4038 22.7253 25.7629 24.0844 25.7629 24.0844" stroke="white" stroke-width="1.5" stroke-miterlimit="10" stroke-linecap="round" stroke-linejoin="round"/>
<path d="M29.9304 24.8093C29.9304 24.8093 35.548 19.2823 35.548 16.0204C35.548 12.7585 32.0143 11.9431 29.9304 11.9431C27.8464 11.9431 24.4033 12.7585 24.4033 16.0204C24.4033 19.2823 29.9304 24.8093 29.9304 24.8093Z" stroke="white" stroke-width="1.5" stroke-miterlimit="10" stroke-linecap="round" stroke-linejoin="round"/>
<path d="M22.0477 22.4535C20.4167 22.4535 18.8764 23.3596 18.1515 24.8999L10.0875 41.028C9.90629 41.3904 9.9969 41.934 10.4499 42.1153L13.44 43.8368C13.8024 44.018 14.346 43.9274 14.5273 43.565L20.0543 35.0479" stroke="white" stroke-width="1.5" stroke-miterlimit="10" stroke-linecap="round" stroke-linejoin="round"/>
<path d="M37.9043 22.4535C39.5352 22.4535 41.0755 23.3596 41.8004 24.8999L49.7738 41.028C49.9551 41.3904 49.8644 41.934 49.4114 42.1153L46.512 43.8368C46.1496 44.018 45.6059 43.9274 45.4247 43.565L39.807 35.0479" stroke="white" stroke-width="1.5" stroke-miterlimit="10" stroke-linecap="round" stroke-linejoin="round"/>
<path d="M39.7161 31.9672V48.0047C39.7161 48.6389 39.2631 49.092 38.6288 49.092H30.0211H21.4135C20.7792 49.092 20.3262 48.6389 20.3262 48.0047V31.9672" stroke="white" stroke-width="1.5" stroke-miterlimit="10" stroke-linecap="round" stroke-linejoin="round"/>
<path d="M29.9307 28.3429V49.0014" stroke="white" stroke-width="1.5" stroke-miterlimit="10" stroke-linecap="round" stroke-linejoin="round"/>
<path d="M25.4 40.9374H20.2354" stroke="white" stroke-width="1.5" stroke-miterlimit="10" stroke-linecap="round" stroke-linejoin="round"/>
<path d="M39.7162 40.9374H34.4609" stroke="white" stroke-width="1.5" stroke-miterlimit="10" stroke-linecap="round" stroke-linejoin="round"/>
</svg>
