<svg width="60" height="60" viewBox="0 0 60 60" fill="none" xmlns="http://www.w3.org/2000/svg">
<path d="M20.5419 33.3306L18.0789 32.6739C17.5042 32.5097 17.2579 31.935 17.4221 31.4424L17.7505 30.7856C17.8326 30.5393 17.8326 30.2109 17.6684 29.8825C17.34 29.3899 16.6832 29.3078 16.2727 29.7183L14.0561 32.0171C13.974 32.0992 13.8919 32.1813 13.8098 32.1813L11.511 33.3306C11.3469 33.4127 11.1827 33.5769 11.1006 33.8232C10.7722 34.6442 9.95118 36.6967 10.0333 36.943C10.1154 37.1893 10.4438 38.667 10.608 39.5701C10.6901 39.9806 10.5259 40.3911 10.1975 40.5553L8.47341 41.5405C8.06292 41.7868 7.89872 42.2793 8.06292 42.6898L9.45859 45.6454C9.70489 46.2201 10.608 46.3843 11.0185 45.8096L13.6456 42.6898C13.8919 42.4435 14.3845 42.3614 14.7129 42.6077L16.8474 43.8392C17.0937 44.0034 17.4221 44.0034 17.7505 43.8392L19.3925 42.9361C19.5567 42.854 19.803 42.7719 20.0493 42.854L24.2363 43.9213C24.4005 43.9213 24.4826 44.0034 24.6468 44.0855L27.6023 46.7126C27.8486 46.8768 28.0949 46.9589 28.3412 46.9589C29.1622 46.7947 30.722 46.5485 30.8862 46.3843C31.0504 46.3022 33.185 45.7275 34.006 45.5633C34.2523 45.4812 34.4165 45.5633 34.5807 45.6454L36.2226 46.3843C36.3868 46.4664 36.6331 46.4664 36.8794 46.4664L38.9319 45.9738C39.1782 45.8917 39.3423 45.7275 39.5065 45.5633L41.2306 42.6077C41.4769 42.1972 41.8874 42.0331 42.2979 42.1972L44.4324 42.854C44.5966 42.9361 44.7608 43.0182 44.8429 43.1824L46.3207 45.1528C46.4028 45.317 46.567 45.3991 46.7312 45.4812C46.8954 45.5633 47.0596 45.5633 47.2238 45.6454C47.7985 45.8096 48.3732 45.3991 48.3732 44.8244V39.9806C48.3732 39.7343 48.209 39.4059 48.0448 39.2417L47.4701 38.8312C47.2238 38.667 46.9775 38.5849 46.7312 38.667L45.2534 38.9954C44.8429 39.0775 44.5145 38.9133 44.2682 38.5849C44.0219 38.1744 43.6936 37.7639 43.6936 37.5176C43.6936 37.1072 45.1713 34.7263 45.2534 34.3158C45.2534 34.1516 45.5818 33.4948 45.8281 32.756C46.1565 32.0992 47.0596 32.0171 47.4701 32.5918L47.9627 33.4127C48.0448 33.4948 48.0448 33.5769 48.1269 33.659L49.8509 35.1368C50.0972 35.3831 50.5077 35.3831 50.754 35.301L51.4108 35.0547C51.9034 34.8905 52.1497 34.3158 51.9034 33.8232L50.6719 31.3603C50.5898 31.1961 50.5077 31.114 50.4256 31.0319L48.3732 29.472C48.0448 29.2257 47.8806 28.7331 48.1269 28.3226L48.4553 27.6659C48.6194 27.3375 48.6194 27.0091 48.4553 26.7628L47.5522 25.1208C47.4701 25.0387 47.4701 24.8745 47.388 24.7103L47.2238 23.1505C47.1417 22.4116 46.3207 22.0832 45.746 22.4937L44.8429 23.2326C44.7608 23.3147 44.6787 23.4789 44.5966 23.5609L43.201 26.7628C43.1189 26.927 43.0368 27.0912 42.8726 27.1733L39.917 28.9794C39.8349 28.9794 39.8349 29.0615 39.7528 29.1436L38.0288 30.8677C37.8646 31.0319 37.7004 31.114 37.5362 31.114" stroke="white" stroke-width="1.5" stroke-miterlimit="10" stroke-linecap="round" stroke-linejoin="round"/>
<path d="M28.3411 11C22.8405 11 18.4072 15.4333 18.4072 20.9339C18.4072 21.3444 18.4072 21.7549 18.4893 22.1654C19.3103 29.7184 27.1917 37.6819 27.5201 38.0103C27.7664 38.2566 28.0948 38.3387 28.4232 38.3387C28.7516 38.3387 29.08 38.1745 29.3263 38.0103C29.6547 37.6819 37.5361 29.7184 38.3571 22.1654C38.4392 21.7549 38.4392 21.3444 38.4392 20.9339C38.275 15.4333 33.8417 11 28.3411 11ZM28.3411 24.5462C26.3708 24.5462 24.7288 22.9042 24.7288 20.9339C24.7288 18.9635 26.3708 17.3216 28.3411 17.3216C30.3115 17.3216 31.9534 18.9635 31.9534 20.9339C31.9534 22.9042 30.3115 24.5462 28.3411 24.5462Z" stroke="white" stroke-width="1.5" stroke-miterlimit="10" stroke-linecap="round" stroke-linejoin="round"/>
</svg>
