<svg width="60" height="60" viewBox="0 0 60 60" fill="none" xmlns="http://www.w3.org/2000/svg">
<path d="M29.8258 46H40.738C42.4355 46 43.7288 44.6258 43.5671 42.9284L42.2738 22.2355C42.193 20.6997 40.8997 19.5681 39.4447 19.5681H29.8258H20.2877C18.7519 19.5681 17.5394 20.7806 17.4586 22.2355L16.0036 42.9284C15.9228 44.545 17.2161 46 18.9135 46H29.8258Z" stroke="white" stroke-width="1.5" stroke-miterlimit="10"/>
<path d="M36.0496 19.5681V17.224C36.0496 13.7483 33.2205 11 29.8256 11C26.3498 11 23.6016 13.8291 23.6016 17.224V19.5681" stroke="white" stroke-width="1.5" stroke-miterlimit="10"/>
<path d="M36.0496 23.8523C36.0496 27.3281 33.2205 30.0764 29.8256 30.0764C26.3498 30.0764 23.6016 27.2473 23.6016 23.8523" stroke="white" stroke-width="1.5" stroke-miterlimit="10"/>
</svg>
