<svg width="427" height="200" viewBox="0 0 427 200" fill="none" xmlns="http://www.w3.org/2000/svg">
<g clip-path="url(#clip0_7002_231)">
<mask id="mask0_7002_231" style="mask-type:alpha" maskUnits="userSpaceOnUse" x="0" y="-254" width="427" height="454">
<rect y="-254" width="427" height="454" fill="#415234"/>
</mask>
<g mask="url(#mask0_7002_231)">
<path d="M198.745 14.8369L2.74482 60.2072C-1.78932 61.2568 -5 65.2956 -5 69.9496V202C-5 207.523 -0.522847 212 5 212H201C206.523 212 211 207.523 211 202V24.5792C211 18.1456 205.013 13.386 198.745 14.8369Z" fill="#4B4B4B"/>
<path opacity="0.5" d="M93.7448 0.836853L-102.255 46.2072C-106.789 47.2568 -110 51.2956 -110 55.9496V188C-110 193.523 -105.523 198 -100 198H96C101.523 198 106 193.523 106 188V10.5792C106 4.14561 100.013 -0.614048 93.7448 0.836853Z" fill="#4B4B4B"/>
<path opacity="0.5" d="M269.745 51.8368L73.7448 97.2072C69.2107 98.2568 66 102.296 66 106.95V239C66 244.523 70.4772 249 76 249H272C277.523 249 282 244.523 282 239V61.5792C282 55.1456 276.013 50.3859 269.745 51.8368Z" fill="#4B4B4B"/>
<path d="M358.745 67.8368L162.745 113.207C158.211 114.257 155 118.296 155 122.95V255C155 260.523 159.477 265 165 265H361C366.523 265 371 260.523 371 255V77.5792C371 71.1456 365.013 66.3859 358.745 67.8368Z" fill="#4B4B4B"/>
<path d="M489.745 89.8368L293.745 135.207C289.211 136.257 286 140.296 286 144.95V277C286 282.523 290.477 287 296 287H492C497.523 287 502 282.523 502 277V99.5792C502 93.1456 496.013 88.3859 489.745 89.8368Z" fill="#4B4B4B"/>
</g>
</g>
<defs>
<clipPath id="clip0_7002_231">
<rect width="427" height="200" fill="white"/>
</clipPath>
</defs>
</svg>
