<svg width="60" height="60" viewBox="0 0 60 60" fill="none" xmlns="http://www.w3.org/2000/svg">
<path d="M30.3701 17.5195L32.5887 22.0454L37.4696 22.7554L33.9199 26.2164L34.7186 31.0974L30.3701 28.79L25.9328 31.0974L26.8203 26.2164L23.2705 22.7554L28.1515 22.0454L30.3701 17.5195Z" stroke="white" stroke-width="1.5" stroke-miterlimit="10" stroke-linecap="round" stroke-linejoin="round"/>
<path d="M30.3698 36.8896C36.7414 36.8896 41.9066 31.7244 41.9066 25.3528C41.9066 18.9812 36.7414 13.816 30.3698 13.816C23.9982 13.816 18.833 18.9812 18.833 25.3528C18.833 31.7244 23.9982 36.8896 30.3698 36.8896Z" stroke="white" stroke-width="1.5" stroke-miterlimit="10" stroke-linecap="round" stroke-linejoin="round"/>
<path d="M30.3704 40.7056C38.8495 40.7056 45.7232 33.8319 45.7232 25.3528C45.7232 16.8737 38.8495 10 30.3704 10C21.8913 10 15.0176 16.8737 15.0176 25.3528C15.0176 33.8319 21.8913 40.7056 30.3704 40.7056Z" stroke="white" stroke-width="1.5" stroke-miterlimit="10" stroke-linecap="round" stroke-linejoin="round"/>
<path d="M27.2641 40.5282L20.7857 51L18.7446 44.5217L12 45.5866L18.4784 35.1147" stroke="white" stroke-width="1.5" stroke-miterlimit="10" stroke-linecap="round" stroke-linejoin="round"/>
<path d="M33.3877 40.5282L39.866 51L41.9959 44.5217L48.7405 45.5866L42.2621 35.1147" stroke="white" stroke-width="1.5" stroke-miterlimit="10" stroke-linecap="round" stroke-linejoin="round"/>
</svg>
