<svg width="132" height="21" viewBox="0 0 132 21" fill="none" xmlns="http://www.w3.org/2000/svg">
<path fill-rule="evenodd" clip-rule="evenodd" d="M131.808 4.96034V5.40315L126.199 16.6578C125.756 17.5434 125.202 18.2076 124.538 18.6135C123.874 19.0194 122.988 19.2039 121.881 19.2039H119.114V16.5102H121.734C122.103 16.5102 122.398 16.4733 122.619 16.3626C122.841 16.2888 123.025 16.1043 123.173 15.846L117.859 5.44005V4.99724H121.107L124.87 12.6356L128.56 4.99724H131.808V4.96034ZM31.4756 15.846C30.184 15.846 29.0401 15.6245 28.0807 15.1817C27.1213 14.7389 26.3833 14.1116 25.8667 13.3367C25.3501 12.5249 25.0918 11.5655 25.0918 10.4954V10.2371C25.0918 9.13008 25.3501 8.17068 25.8667 7.32197C26.3833 6.51016 27.1213 5.88285 28.0807 5.44005C29.0401 4.99724 30.184 4.77584 31.4756 4.77584C32.6933 4.77584 33.7634 4.96034 34.7228 5.36625C35.6822 5.77215 36.4202 6.32566 36.9368 7.02676C37.4534 7.69097 37.7117 8.46588 37.7117 9.35149H34.5383C34.5014 8.83488 34.2062 8.42898 33.6896 8.09687C33.1361 7.72787 32.3612 7.54337 31.4387 7.54337C30.4054 7.54337 29.5936 7.76477 29.0401 8.24448C28.4866 8.68728 28.2283 9.38839 28.2283 10.2371V10.4585C28.2283 11.3072 28.4866 11.9345 29.0401 12.4142C29.5936 12.857 30.4054 13.0784 31.4387 13.0784C32.3612 13.0784 33.1361 12.8939 33.6896 12.5618C34.2062 12.2297 34.5014 11.8238 34.5383 11.2703H37.7117C37.7117 12.1559 37.4534 12.9308 36.9368 13.6319C36.4202 14.333 35.6822 14.8865 34.7597 15.2924C33.8372 15.6615 32.7302 15.846 31.4756 15.846ZM45.756 15.846C44.4276 15.846 43.2837 15.6245 42.2874 15.1817C41.328 14.7389 40.5531 14.1485 40.0364 13.3367C39.5198 12.5249 39.2615 11.5655 39.2615 10.4585V10.2002C39.2615 9.05628 39.5198 8.09687 40.0364 7.28507C40.5531 6.47326 41.2911 5.84595 42.2874 5.40315C43.2468 4.96034 44.4276 4.73894 45.756 4.73894C47.0844 4.73894 48.2283 4.96034 49.1877 5.40315C50.1471 5.84595 50.8852 6.47326 51.4018 7.28507C51.9184 8.09687 52.1767 9.09318 52.1767 10.2002V10.4585C52.1767 11.5655 51.9184 12.5249 51.4018 13.3367C50.8852 14.1485 50.1471 14.7758 49.1877 15.1817C48.1914 15.6245 47.0475 15.846 45.756 15.846ZM45.7191 13.0415C46.7523 13.0415 47.5641 12.8201 48.1176 12.3773C48.6711 11.9345 48.9663 11.2703 48.9663 10.4585V10.2371C48.9663 9.38839 48.6711 8.72418 48.1176 8.24448C47.5641 7.76477 46.7523 7.54337 45.7191 7.54337C44.649 7.54337 43.8372 7.76477 43.2837 8.24448C42.7302 8.68728 42.435 9.38839 42.435 10.2371V10.4585C42.435 11.3072 42.7302 11.9345 43.2837 12.3773C43.8741 12.8201 44.6859 13.0415 45.7191 13.0415ZM116.31 4.96034V15.5507H113.468L113.394 14.6282C112.435 15.4031 111.18 15.8091 109.704 15.8091C108.487 15.8091 107.417 15.5877 106.494 15.1448C105.608 14.702 104.907 14.0747 104.391 13.226C103.911 12.4142 103.653 11.4548 103.653 10.3478V10.1264C103.653 9.01938 103.911 8.05997 104.391 7.24817C104.87 6.43636 105.572 5.80905 106.494 5.36625C107.417 4.92344 108.487 4.70204 109.704 4.70204C111.107 4.70204 112.287 5.07104 113.284 5.77215V4.96034H116.31ZM110.11 13.0415C110.774 13.0415 111.365 12.9308 111.918 12.7094C112.472 12.488 112.915 12.1928 113.247 11.8238V8.68728C112.952 8.31828 112.509 8.02307 111.955 7.80167C111.402 7.58027 110.774 7.46957 110.11 7.46957C109.077 7.46957 108.265 7.69097 107.675 8.17067C107.084 8.65038 106.789 9.27769 106.789 10.1264V10.3478C106.789 11.1965 107.084 11.8607 107.675 12.3035C108.228 12.8201 109.04 13.0415 110.11 13.0415ZM66.4571 0.864402V15.5877H63.6158L63.542 14.6651C62.5826 15.44 61.328 15.846 59.8519 15.846C58.6342 15.846 57.5641 15.6245 56.6416 15.1817C55.756 14.7389 55.0549 14.1116 54.5383 13.2629C54.0586 12.4511 53.8003 11.4917 53.8003 10.3847V10.1633C53.8003 9.05628 54.0586 8.09687 54.5383 7.28507C55.018 6.47326 55.7191 5.84595 56.6416 5.40315C57.5641 4.96034 58.6342 4.73894 59.8519 4.73894C61.2542 4.73894 62.435 5.10794 63.4313 5.80905V0.864402H66.4571ZM60.2579 13.0415C60.9221 13.0415 61.5125 12.9308 62.066 12.7094C62.6195 12.488 63.0623 12.1928 63.3944 11.8238V8.68728C63.0992 8.31828 62.6564 8.02307 62.1029 7.80167C61.5494 7.58027 60.9221 7.46957 60.2579 7.46957C59.2246 7.46957 58.4128 7.69097 57.8224 8.17067C57.232 8.65038 56.9368 9.27769 56.9368 10.1264V10.3478C56.9368 11.1965 57.232 11.8607 57.8224 12.3035C58.3759 12.8201 59.1877 13.0415 60.2579 13.0415ZM72.5457 4.96034V15.5507H69.4829V4.96034H72.5457ZM71.0328 3.74263C70.4792 3.74263 69.9995 3.59503 69.6674 3.26293C69.2984 2.93082 69.1508 2.48802 69.1508 1.97141C69.1508 1.41791 69.3353 1.012 69.6674 0.6799C70.0364 0.347797 70.4792 0.200195 71.0328 0.200195C71.6232 0.200195 72.066 0.347797 72.435 0.6799C72.7671 1.012 72.9516 1.45481 72.9516 1.97141C72.9516 2.52492 72.7671 2.93082 72.435 3.26293C72.0291 3.55813 71.5863 3.74263 71.0328 3.74263ZM80.5899 8.90868V11.6393H75.1287V8.90868H80.5899ZM103.468 4.96034V5.40315L99.3353 15.5507H95.3132L92.5457 8.83488L89.815 15.5507H85.8298L81.697 5.40315V4.96034H84.9811L87.8593 12.6725L90.9959 4.96034H94.1324L97.3427 12.7832L100.332 4.96034H103.468Z" fill="black"/>
<path fill-rule="evenodd" clip-rule="evenodd" d="M0 10.9012C0.0369004 12.857 0.590406 14.702 1.54982 16.2887C2.43542 17.7278 3.65314 18.9455 5.12915 19.8311C5.01845 19.3883 5.20295 19.0193 5.57196 18.6872C6.16236 18.1706 7.26937 17.8385 7.97048 17.6171C8.08118 17.5802 8.19188 17.5433 8.26568 17.5433C9.33579 17.2112 10.0369 16.8791 10.369 16.547C10.4797 16.4363 10.5166 16.3625 10.5166 16.2887C10.5166 16.2149 10.4797 16.1411 10.369 16.0673C10.1845 15.9197 9.8524 15.809 9.37269 15.6983C9.18819 15.6614 7.67528 15.44 7.71218 15.1817C7.74908 15.0341 9.26199 15.0341 9.33579 15.0341C10.3321 15.071 11.4391 15.2186 12.1771 15.4769C12.5461 15.6245 12.8413 15.809 13.0258 16.0304C13.2103 16.2887 13.2472 16.6208 13.0258 16.9898C12.8044 17.3957 12.2878 17.8385 11.3653 18.392C11.2915 18.4289 11.2177 18.5027 11.1808 18.5396C11.2177 18.5765 11.3284 18.6503 11.5129 18.6872C11.7343 18.7979 12.0664 18.9086 12.3985 19.0193C12.8413 19.1669 13.321 19.3514 13.8007 19.5359C14.2435 19.7204 14.7232 19.9418 15.1292 20.2001C16.9373 19.3145 18.4133 17.9861 19.4465 16.3625C20.4797 14.7389 21.0701 12.857 21.0701 10.8643H16.0148C16.0148 11.1964 15.9779 11.4917 15.9041 11.8238C15.8303 12.1928 15.7196 12.5249 15.572 12.857C15.4244 13.1891 15.2768 13.4843 15.0554 13.7795C14.8708 14.0747 14.6125 14.333 14.3911 14.5913L14.2435 14.7389L10.369 10.8274L6.60517 14.6282L6.45756 14.4806C6.23616 14.2223 6.01476 13.964 5.86716 13.6688C5.68266 13.3736 5.53506 13.0784 5.42435 12.7832C5.31365 12.4511 5.20295 12.119 5.12915 11.7869C5.05535 11.4917 5.05535 11.1964 5.01845 10.9012L4.05904 9.94184L2.58303 8.20752L0 10.9012Z" fill="#145492"/>
<path fill-rule="evenodd" clip-rule="evenodd" d="M16.1993 1.89762C15.6458 1.52862 15.0554 1.23341 14.428 0.975111C12.4723 0.200203 10.4059 0.0526018 8.41328 0.458506C6.42066 0.86441 4.57565 1.82382 3.09963 3.29983C2.14022 4.25924 1.36531 5.44006 0.811808 6.73157C0.295203 7.94928 0 9.31459 0 10.7537C0 10.7906 0 10.8275 0 10.9013H5.01845C5.01845 10.8644 5.01845 10.8275 5.01845 10.7537C5.01845 10.0157 5.16605 9.31459 5.42435 8.65039C5.71956 7.98618 6.12546 7.35887 6.60517 6.87917C7.38007 6.10426 8.33948 5.58766 9.37269 5.40316C10.4059 5.18175 11.476 5.25555 12.5092 5.66146C12.8413 5.77216 13.1365 5.91976 13.4317 6.10426C13.69 6.25186 13.9114 6.43637 14.1328 6.62087L17.6753 3.04153C17.1956 2.59873 16.7159 2.22972 16.1993 1.89762Z" fill="#86C4F5"/>
</svg>
