<svg width="173" height="35" viewBox="0 0 173 35" fill="none" xmlns="http://www.w3.org/2000/svg">
<path d="M75.3742 21.9524C75.3742 21.9524 75.2387 21.8169 75.1031 21.6814C75.2387 21.6814 75.3742 21.5459 75.3742 21.5459C77.0002 21.1393 78.3553 20.4618 79.5749 19.2422C81.201 17.6161 81.472 15.5835 81.472 13.4154C81.3365 10.7053 79.7104 8.13062 77.1358 7.45308C75.2387 6.91105 73.206 6.64004 71.1734 6.64004C66.7017 6.50453 62.3654 6.64004 57.8937 6.64004C57.6227 6.64004 57.4872 6.64004 57.2162 6.64004C57.2162 15.719 57.2162 24.798 57.2162 33.7415C60.0618 33.7415 62.772 33.7415 65.4821 33.7415C65.4821 31.8444 65.4821 30.0828 65.4821 28.3212C65.4821 26.5596 65.4821 24.6625 65.4821 22.9009C67.5147 22.6299 68.4633 23.172 69.4118 24.798C70.9024 27.5082 72.393 30.3538 73.8836 33.064C74.1546 33.606 74.5611 33.877 75.2386 33.877C77.8133 33.877 80.3879 33.877 82.9626 33.877C83.2336 33.877 83.3691 33.877 83.6401 33.877C82.285 31.3024 81.0655 28.8633 79.7104 26.2886C78.7618 24.3915 77.6778 22.6299 75.3742 21.9524ZM71.1734 17.3451C69.2763 17.6161 67.3792 17.6161 65.4821 17.8872C65.4821 15.8545 65.4821 14.0929 65.4821 12.0603C67.5147 12.0603 69.4118 12.0603 71.3089 12.3314C72.664 12.6024 73.206 13.4154 73.0705 15.0415C73.0705 16.1256 72.393 17.0741 71.1734 17.3451ZM18.8675 23.172C18.732 23.8495 18.5965 24.3915 18.3255 24.9335C17.919 26.2886 17.1059 27.2372 15.8864 27.6437C13.3117 28.5923 10.4661 27.1017 9.51751 24.527C8.43345 21.8169 8.56896 19.1067 9.382 16.3966C10.195 13.8219 11.6856 11.9248 15.2088 12.6024C16.0219 12.7379 16.8349 13.2799 17.5125 13.8219C18.3255 14.635 18.8675 15.719 18.5965 16.9386C21.3067 16.9386 24.0168 16.9386 26.8625 16.9386C26.727 15.719 26.727 14.364 26.3204 13.2799C25.3719 10.0277 22.9328 7.99511 19.9516 7.04656C16.8349 5.9625 13.7182 5.69148 10.3306 6.36902C5.7233 7.18207 2.60663 9.75671 1.11605 14.2285C-0.103521 17.6161 -0.239029 21.0038 0.303001 24.527C1.11605 29.6763 3.41967 32.522 8.70447 34.2836C11.5501 35.2321 14.3958 35.0966 17.3769 34.6901C20.6291 34.1481 23.2038 32.6575 25.1009 29.9473C26.4559 28.0502 26.998 25.7466 27.1335 23.443C24.2878 23.172 21.5777 23.172 18.8675 23.172ZM37.7031 6.50453C37.161 6.50453 36.89 6.64004 36.619 7.18207C35.3994 10.5698 34.0444 14.0929 32.6893 17.4806C30.6567 22.9009 28.6241 28.1857 26.4559 33.7415C29.1661 33.7415 31.8762 33.7415 34.5864 33.7415C34.9929 33.7415 35.2639 33.606 35.3994 33.1995C35.806 31.9799 36.2125 30.7604 36.619 29.5408C36.7545 29.1343 37.0255 28.9988 37.4321 28.9988C39.6002 28.9988 41.9038 28.9988 44.0719 28.9988C44.614 28.9988 44.7495 29.1343 45.0205 29.6763C45.427 31.0314 45.969 32.3865 46.5111 33.7415C49.3567 33.7415 52.2024 33.7415 55.1835 33.7415C51.6603 24.6625 48.2727 15.5835 44.7495 6.50453C42.3103 6.50453 40.0067 6.64004 37.7031 6.50453ZM38.2451 23.443C39.1937 20.8683 40.0067 18.4292 40.9553 15.719C41.9038 18.4292 42.7169 20.8683 43.6654 23.443C41.7683 23.443 40.0067 23.443 38.2451 23.443ZM84.8597 19.2422C84.8597 21.4104 84.8597 23.5785 84.8597 25.7466C89.0604 25.7466 93.2611 25.7466 97.4619 25.7466C97.4619 23.5785 97.4619 21.4104 97.4619 19.2422C93.2611 19.2422 89.0604 19.2422 84.8597 19.2422Z" fill="#2194D4"/>
<path d="M129.035 18.158C129.17 17.4805 129.306 16.8029 129.577 15.9899C128.628 16.1254 127.951 16.2609 127.273 16.3964C126.731 16.5319 126.325 16.6674 126.189 15.9899C125.918 16.1254 125.783 16.1254 125.512 16.1254C122.124 16.8029 119.007 18.2935 116.026 20.0551C115.62 20.3261 115.213 20.5971 115.078 20.8682C114.4 22.7653 113.858 24.7979 113.18 26.966C113.722 26.695 114.129 26.424 114.536 26.2885C114.807 26.1529 115.213 25.2044 115.62 26.2885C117.517 25.3399 119.414 24.3913 121.311 23.4428C121.311 23.9848 121.311 24.3913 121.175 24.7979C120.769 25.8819 120.498 27.1015 119.143 27.6435C117.652 28.3211 116.162 28.7276 114.4 28.9986C112.638 29.2696 111.148 28.7276 109.657 27.9145C109.115 27.6435 108.844 27.1015 108.98 26.5595C109.115 25.6109 109.251 24.5269 109.657 23.7138C110.335 22.2232 111.148 20.7326 112.096 19.3776C113.858 16.6674 116.162 14.6348 118.736 13.0087C120.633 11.7892 122.666 10.7051 124.834 10.2986C125.918 10.0276 126.189 10.5696 125.918 11.5181C125.783 12.1957 125.512 12.7377 125.241 13.4152C126.325 13.0087 127.409 12.4667 128.493 12.1957C129.306 11.9247 129.577 11.5181 129.712 10.8406C129.712 10.7051 129.848 10.5696 129.848 10.4341C130.254 8.40147 129.17 6.50436 127.273 6.09784C124.428 5.4203 121.582 5.82682 118.872 6.91088C114.942 8.26596 111.69 10.5696 108.709 13.5507C104.643 17.616 101.391 22.0877 100.985 28.0501C100.849 29.9472 101.391 31.5732 103.017 32.7928C104.372 33.7414 105.999 34.2834 107.76 34.4189C109.657 34.4189 111.69 34.4189 113.587 34.2834C116.162 34.1479 118.33 32.5218 120.769 32.1153C121.446 31.9798 121.988 31.5732 122.53 31.1667C124.292 29.9472 126.054 28.5921 126.731 26.2885C127.002 25.2044 127.409 23.9848 127.138 22.7653C126.867 21.5457 126.867 21.2747 127.951 20.7326C128.628 20.3261 128.899 19.9196 129.17 19.2421C128.899 18.7 129.035 18.429 129.035 18.158ZM155.865 14.3638C155.73 13.5507 155.73 12.7377 155.594 11.9247C155.052 9.75654 153.833 7.99494 151.665 7.04639C149.767 6.23335 147.735 6.09784 145.702 6.23335C142.315 6.50436 139.469 7.85944 137.03 10.0276C133.913 12.7377 131.609 15.9899 129.983 19.7841C128.628 22.9008 127.815 26.1529 128.899 29.5406C129.577 31.7088 130.796 33.3348 133.1 34.0124C134.591 34.4189 136.081 34.4189 137.572 34.1479C139.604 33.8769 141.637 33.3348 143.399 32.3863C147.599 30.2182 150.852 26.966 153.155 22.9008C154.646 20.3261 155.865 17.4805 155.865 14.3638ZM146.244 22.9008C144.889 24.5269 143.399 25.8819 141.502 26.8305C140.011 27.508 138.52 27.6435 136.894 27.3725C135.675 27.1015 134.862 26.1529 134.726 24.3913C134.997 23.3073 135.268 22.0877 135.675 21.1392C136.759 18.8355 137.978 16.6674 140.011 15.0413C141.637 13.5507 143.67 12.7377 145.838 12.6022C147.193 12.4667 148.141 13.2797 148.412 14.6348C149.496 17.7515 148.277 20.4616 146.244 22.9008ZM171.313 0.271015C169.958 0.677538 168.739 1.35507 167.383 1.62609C165.893 1.8971 164.944 2.71015 164.402 4.06523C163.725 5.55581 163.183 6.91088 162.505 8.40147C160.337 13.5508 158.304 18.8355 156.272 23.9848C155.865 25.0689 155.459 26.2885 155.052 27.508C156.678 26.966 158.304 26.5595 159.795 26.0174C160.744 25.7464 161.692 25.3399 161.963 24.2558V24.1203C161.692 24.1203 161.557 24.1203 161.421 24.1203C161.963 23.1718 162.776 22.3587 163.183 21.5457C164.944 17.887 166.706 14.3638 168.332 10.7051C169.958 7.1819 171.313 3.6587 172.939 0C172.262 0 171.72 2.01922e-08 171.313 0.271015ZM158.982 27.9145C157.762 28.1856 156.407 28.7276 155.052 29.6761C153.697 30.6247 152.749 31.8443 152.478 33.4704C152.342 33.8769 152.342 34.4189 153.02 34.5544C153.562 34.5544 154.239 34.5544 154.646 34.2834C155.323 34.0124 155.865 33.7414 156.543 33.7414C158.44 33.4704 160.202 30.7602 160.473 29.4051C160.473 28.3211 160.066 27.9145 158.982 27.9145Z" fill="#EE1B4B"/>
</svg>
