<svg width="141" height="35" viewBox="0 0 141 35" fill="none" xmlns="http://www.w3.org/2000/svg">
<path fill-rule="evenodd" clip-rule="evenodd" d="M140.867 0.866825C140.867 0.866825 138.266 0.541748 135.124 0.541748C132.09 0.541748 129.598 0.866825 129.598 0.866825V10.7275H140.867V0.866825Z" fill="#E4003E"/>
<path fill-rule="evenodd" clip-rule="evenodd" d="M140.867 24.0559H129.598V34.0249C129.598 34.0249 132.74 34.35 135.341 34.35C137.833 34.35 140.867 33.9166 140.867 33.9166V24.0559Z" fill="#E4003E"/>
<path fill-rule="evenodd" clip-rule="evenodd" d="M122.882 0.866699H109.012L99.368 12.8946H94.8169V0.866699H82.7891V34.133H94.8169V21.5633H99.1513L108.904 34.0246H123.749L109.229 16.3621L122.882 0.866699Z" fill="#242265"/>
<path fill-rule="evenodd" clip-rule="evenodd" d="M37.8173 0.866699H0V34.133H12.1362V10.2939H25.6811V34.133H37.8173V0.866699Z" fill="#242265"/>
<path fill-rule="evenodd" clip-rule="evenodd" d="M43.7757 9.64396L42.042 0.866873C42.042 0.866873 53.4197 0 60.463 0C67.5064 0 76.0668 0.866873 76.0668 0.866873C76.0668 0.866873 78.6674 7.58514 78.6674 17.1207C78.6674 26.6563 75.9584 34.1331 75.9584 34.1331C75.9584 34.1331 67.8315 35 60.3547 35C52.8779 35 42.042 34.1331 42.042 34.1331L43.7757 25.356C43.7757 25.356 51.3609 25.8978 57.8624 25.8978C64.364 25.8978 66.8562 25.356 66.8562 25.356C66.8562 25.356 67.1813 23.7306 67.2897 21.7802H51.7943V13.3282H67.398C67.2897 11.161 66.9646 9.75232 66.9646 9.75232C66.9646 9.75232 61.655 9.21053 57.1039 9.21053C52.5528 9.10217 43.7757 9.64396 43.7757 9.64396Z" fill="#242265"/>
</svg>
