<svg width="195" height="38" viewBox="0 0 195 38" fill="none" xmlns="http://www.w3.org/2000/svg">
<path d="M84.4479 37.5417C85.0209 34.9062 85.5938 32.3854 86.0521 29.9791C86.9688 25.7395 88 21.4999 88.9167 17.1457C89.3751 15.0832 88.9167 13.7082 87.6563 13.3644C86.0521 13.0207 84.9063 13.8228 84.3334 15.9999C82.7292 22.6457 81.2396 29.4062 79.8646 36.0521C79.6354 37.1979 79.2917 37.5417 78.0312 37.5417C74.9375 37.4271 71.9583 37.5417 68.6353 37.5417C70.3541 29.0624 72.0729 20.8124 73.7916 12.3332C51.104 12.3332 28.6455 12.3332 6.18703 12.3332C5.95786 9.81232 6.4162 9.2394 8.59329 9.2394C30.0205 9.2394 51.4477 9.2394 72.875 9.2394C74.3645 9.2394 75.0521 8.89565 75.3958 7.40606C75.625 6.48939 76.1979 5.57271 76.6562 4.65604C79.5208 -0.72941 87.4271 -1.87525 90.4063 3.73937C97.8543 -1.30233 100.261 -1.30233 104.615 4.08312C105.073 3.73937 105.531 3.28103 105.875 2.93728C107.594 1.3331 109.656 0.41643 112.063 0.41643C115.271 0.41643 117.563 2.59353 117.563 5.91646C117.563 6.94772 117.563 7.97898 117.563 9.12482C143.115 9.12482 168.667 9.12482 194.219 9.12482C194.792 11.6457 194.105 12.4478 191.928 12.4478C167.407 12.4478 143 12.4478 118.479 12.3332C116.99 12.3332 116.531 12.7915 116.188 14.1665C114.584 21.4999 112.865 28.8333 111.261 36.1667C111.031 37.1979 110.688 37.5417 109.656 37.5417C106.563 37.5417 103.583 37.5417 100.261 37.5417C100.604 35.7083 100.948 34.1041 101.292 32.5C102.438 27.3437 103.583 22.1874 104.729 17.0311C104.844 16.5728 104.958 16.1144 104.844 15.6561C104.615 14.854 104.386 13.7082 103.927 13.479C103.125 13.2498 101.865 13.479 101.292 14.0519C100.604 14.7394 100.031 15.7707 99.8022 16.802C98.3126 23.1041 96.9376 29.5208 95.5626 35.8229C95.3334 37.0833 94.8751 37.5417 93.5001 37.5417C90.6355 37.4271 87.6563 37.5417 84.4479 37.5417Z" fill="#3B9136"/>
<path d="M51.4491 37.7708C52.3657 34.5625 53.2824 31.5833 54.1991 28.4895C52.2511 28.9479 50.5324 29.2916 48.8136 29.6354C48.2407 29.75 47.6678 29.9791 47.324 30.4375C46.9803 30.8958 46.7511 31.5833 46.8657 32.0416C46.9803 32.5 47.6678 32.9583 48.2407 32.9583C49.272 33.0729 50.1886 32.8437 51.4491 32.7291C50.4178 34.3333 49.3865 35.7083 48.3553 37.1979C48.1261 37.4271 47.7824 37.6563 47.4386 37.6563C43.7719 37.5417 40.1052 37.5417 36.5531 37.0833C31.626 36.3958 31.1677 31.0104 33.9177 28.2604C36.4385 25.7395 39.5323 25.1666 42.8552 24.7083C45.8344 24.2499 48.8136 24.1353 51.7928 23.7916C52.9386 23.677 54.5428 23.677 54.4282 22.1874C54.3137 20.5832 52.8241 20.6978 51.6782 20.8124C47.324 21.1561 42.9698 21.7291 38.5011 22.1874C39.074 20.5832 39.6469 18.6353 40.449 16.802C40.5636 16.5728 41.0219 16.3436 41.2511 16.3436C48.8136 15.6561 56.4908 14.9686 64.0533 16.6874C64.7408 16.802 65.3137 17.0311 65.8866 17.3749C66.9179 17.9478 67.3762 18.8645 67.1471 20.0103C65.8866 25.6249 64.7408 31.2395 63.3658 36.8542C63.2512 37.1979 62.7929 37.7708 62.4491 37.7708C58.897 37.8854 55.2303 37.7708 51.4491 37.7708Z" fill="black"/>
<path d="M151.938 37.7709C152.969 33.1875 153.885 28.8333 154.802 24.4791C155.375 22.0729 155.948 19.6666 156.521 17.2603C156.635 16.9166 157.094 16.3437 157.438 16.3437C160.99 16.2291 164.656 16.3437 168.438 16.3437C167.75 19.0937 167.177 21.7291 166.49 24.5937C168.552 24.7083 170.386 25.052 171.99 23.3333C174.281 21.0416 176.917 18.9791 179.552 16.9166C179.896 16.6874 180.354 16.4582 180.698 16.4582C184.365 16.4582 188.146 16.4582 192.157 16.4582C187.688 20.1249 183.563 23.4479 179.209 27C182.188 30.5521 185.052 34.1042 188.261 38C186.771 38 185.625 38 184.479 38C182.073 38 179.552 38 177.146 37.8855C176.458 37.8855 175.656 37.4271 175.198 36.8542C173.365 34.4479 171.646 32.0417 169.927 29.6354C169.354 28.8333 166.49 28.375 165.802 28.9479C165.573 29.1771 165.458 29.6354 165.344 29.9792C164.885 32.2708 164.313 34.5625 163.854 36.8542C163.74 37.5417 163.51 38 162.594 38C159.042 37.6563 155.719 37.7709 151.938 37.7709Z" fill="black"/>
<path d="M126.157 29.75C126.616 32.7292 127.189 33.3021 130.168 33.4167C131.772 33.4167 133.376 33.4167 135.095 33.4167C138.418 33.3021 139.105 32.6146 139.793 28.8333C137.043 28.8333 134.408 28.8333 131.428 28.8333C131.772 27.5729 131.887 26.5416 132.23 25.625C132.345 25.2812 133.032 25.0521 133.376 25.0521C135.439 25.0521 137.501 25.0521 139.449 25.1666C140.595 25.2812 141.053 24.8229 141.168 23.7916C141.397 22.7604 141.283 21.8437 140.251 21.5C139.22 21.1562 138.074 20.6979 137.043 20.6979C135.324 20.6979 133.491 20.8124 131.772 21.0416C131.085 21.1562 130.168 21.3854 129.824 21.8437C128.793 23.5625 127.189 23.2187 125.699 23.2187C122.949 23.2187 120.314 23.2187 117.449 23.2187C118.022 21.6145 118.939 20.3541 120.199 19.3229C122.262 17.7187 124.553 16.802 127.074 16.6874C132.345 16.4583 137.501 16.4583 142.772 16.4583C143.574 16.4583 144.376 16.6874 145.178 16.802C151.366 17.8333 152.397 21.5 151.366 26.6562C150.22 32.9584 145.522 37.3126 139.105 37.5417C132.574 37.7709 125.928 37.7709 119.282 37.198C114.355 36.8542 114.47 33.6459 115.501 30.3229C115.616 30.0938 115.959 29.75 116.189 29.75C119.626 29.75 122.835 29.75 126.157 29.75Z" fill="black"/>
<path d="M13.0626 29.7502C12.4897 31.8127 11.8022 33.9898 11.2292 36.396C11.0001 37.5419 10.4271 37.8856 9.39589 37.771C6.30212 37.6565 3.20835 37.771 0 37.771C1.26042 32.271 2.52085 27.1147 3.78127 21.8439C4.12503 20.2397 4.46878 18.5209 4.92711 16.9167C5.0417 16.4584 5.50003 15.8855 5.84379 15.8855C13.2917 15.3126 20.6251 14.6251 28.0731 15.8855C28.646 16.0001 29.2189 16.1147 29.7919 16.3438C34.0315 17.7188 35.6356 21.3855 33.4585 25.396C31.1669 29.521 27.271 31.1252 22.8022 31.0106C19.7085 31.0106 16.5001 30.2085 13.0626 29.7502ZM19.4793 25.6251C19.4793 25.6251 19.4793 25.5106 19.5939 25.5106C20.0522 25.5106 20.5105 25.5106 20.9689 25.396C22.3439 25.0522 23.146 24.1355 23.146 22.646C23.146 21.2709 22.2293 20.8126 21.0835 20.5834C19.7085 20.3543 18.3334 20.1251 16.8439 20.0105C16.5001 20.0105 16.0418 20.0105 15.8126 20.2397C14.7813 21.2709 15.1251 24.021 16.3855 24.7085C17.4168 25.1668 18.448 25.396 19.4793 25.6251Z" fill="black"/>
</svg>
