<svg width="159" height="35" viewBox="0 0 159 35" fill="none" xmlns="http://www.w3.org/2000/svg">
<path d="M99.4492 34.9996C99.9118 33.1494 100.22 31.4534 100.683 29.9115C101.608 25.5943 102.687 21.4313 103.766 17.1142C103.921 16.6516 104.229 16.0349 104.692 15.8807C108.7 14.3388 112.709 12.9512 117.026 11.4093C115.947 16.3432 114.714 20.9688 113.634 25.9027C114.251 25.9027 114.714 26.0569 115.176 26.0569C122.731 26.0569 130.132 26.0569 137.687 26.0569C140.617 26.0569 142.158 24.9776 142.929 22.0481C143.855 18.8102 144.625 15.5723 145.551 12.3344C145.705 11.7177 146.167 11.1009 146.784 10.7926C147.863 10.0216 149.097 9.55909 150.484 8.78817C135.529 9.86746 120.727 8.94235 105.771 9.40491C106.233 6.32121 106.85 3.54588 107.775 0.770549C107.775 0.462179 108.7 0.153809 109.163 0.153809C115.176 0.153809 121.189 0.153809 127.203 0.153809C134.603 0.153809 142.004 0.153809 149.405 0.153809C150.947 0.153809 152.643 0.307994 154.185 0.770549C157.269 1.69566 158.965 4.47099 158.194 7.55469C156.806 14.0305 155.264 20.6604 153.414 26.982C152.18 31.2992 148.788 33.3036 144.471 34.2287C142.929 34.5371 141.233 34.6912 139.537 34.6912C126.74 34.6912 113.788 34.6912 100.991 34.6912C100.529 34.9996 100.066 34.9996 99.4492 34.9996Z" fill="#00408B"/>
<path d="M60.7489 0.153809C59.978 0.616364 59.5154 1.07892 58.8987 1.38729C55.3524 3.70006 51.9604 6.01284 48.4141 8.32561C47.6432 8.78817 46.7181 9.09654 45.7929 9.09654C37.7753 9.09654 29.7577 9.09654 21.7401 9.09654C18.9648 9.09654 17.5771 10.1758 16.9604 12.9512C16.1894 16.189 15.2643 19.4269 14.4934 22.819C14.185 24.0525 13.7225 24.8234 12.489 25.1318C11.5639 25.4402 10.6388 26.0569 9.86784 26.8278C10.3304 26.8278 10.9471 26.8278 11.4097 26.6736C13.4141 26.5194 15.2643 26.2111 17.2687 26.2111C25.1322 26.2111 32.9956 26.2111 40.859 26.2111C41.9383 26.2111 42.4009 25.9027 42.7092 24.8234C43.0176 23.5899 43.4802 22.5106 43.9427 21.123C40.7048 21.123 37.6211 21.123 34.5374 21.123C34.5374 20.9688 34.5374 20.9688 34.5374 20.8146C42.2467 18.0393 50.1101 15.2639 58.1278 12.3344C58.1278 12.9512 58.1278 13.4137 57.9736 13.8763C56.1234 20.5062 54.4273 27.2904 52.5771 33.9203C52.4229 34.6912 51.9604 34.8454 51.1894 34.8454C34.5374 34.8454 17.7313 34.8454 1.0793 34.8454C0.770925 34.8454 0.462555 34.8454 0 34.6912C0.154185 34.0745 0.154185 33.612 0.30837 33.1494C2.31278 24.9776 4.31718 16.6516 6.47577 8.4798C6.78414 6.78376 7.55507 5.08773 8.63436 3.39169C10.022 1.2331 12.1806 0.153809 14.8018 0.153809C29.7577 0.153809 44.5595 0.153809 59.5154 0.153809C59.8238 0.153809 60.1322 0.153809 60.7489 0.153809Z" fill="#00408B"/>
<path d="M61.6738 9.09692C62.1364 7.09251 62.5989 5.0881 63.2157 3.0837C63.9866 0 63.9866 0 67.0703 0C78.7884 0 90.5064 0 102.224 0C102.995 0 103.766 0 104.691 0C103.921 3.0837 103.15 6.01321 102.379 8.94273C88.8104 9.09691 75.3963 9.09692 61.6738 9.09692Z" fill="#00408B"/>
<path d="M70.1523 35.0001C71.0775 31.7622 71.8484 28.8327 72.6193 25.9032C73.3902 22.9736 74.1612 20.0441 75.0863 17.1146C75.2405 16.6521 75.5488 16.1895 75.8572 16.0353C79.5576 14.6476 83.4123 13.26 87.1127 11.8723C87.2669 11.8723 87.4211 11.8723 87.7294 11.8723C87.1127 14.6476 86.3418 17.2688 85.725 20.0441C84.4916 24.6697 83.4123 29.2952 82.1788 33.7666C82.0246 34.2291 81.562 35.0001 81.2537 35.0001C77.5532 35.0001 74.007 35.0001 70.1523 35.0001Z" fill="#00408B"/>
</svg>
