<svg width="143" height="40" viewBox="0 0 143 40" fill="none" xmlns="http://www.w3.org/2000/svg">
<path fill-rule="evenodd" clip-rule="evenodd" d="M21.8449 30.2759H15.638C5.98278 30.2759 13.0173 9.65517 21.1552 9.65517H30.9483C32.5345 9.65517 35.2931 9.93104 36.6724 6.06897L38.7414 0H25.2931C18.0517 0 12.3966 2.55172 8.25864 6.89655C1.22416 14.2759 -1.18963 25.7931 0.534506 31.3103C2.12071 36.4138 6.53451 39.7931 13.3621 39.8621L18.6724 39.931H25.2242L26.8104 35.1035C28.0517 31.6552 25.3621 30.2759 21.8449 30.2759ZM97.2931 21.7241L99.2931 15.1034H77.7069C74.1207 15.1034 72.4655 16.069 71.8448 18.2069L69.8449 24.8276H91.4311C95.0862 24.8276 96.6724 23.7931 97.2931 21.7241ZM66.6035 33.3793L64.6035 40H86.1897C89.7759 40 91.4311 39.0345 92.0518 36.8966L94.0518 30.2759H72.4655C68.8793 30.2759 67.2931 31.3103 66.6035 33.3793ZM102.328 6.62069L104.328 0H82.7414C79.1552 0 77.5 0.965517 76.8793 3.10345L74.8793 9.72414H96.5345C100.052 9.72414 101.707 8.68966 102.328 6.62069ZM69.7069 8C68.8104 1.7931 65.5 0.0689655 57.569 0.0689655H43.0862L34.6724 24.8276H39.9828C43.1552 24.8276 44.8104 24.8966 46.4655 20.2759L50.0518 9.65517H55.4311C60.0518 9.65517 59.0173 15.4483 56.6724 21.0345C54.6035 26 51.0173 30.3448 46.6724 30.3448H37.7069C34.1207 30.3448 32.4655 31.3103 31.7759 33.4483L29.5 40H36.0517L42.4655 39.931C48.1897 39.8621 52.8104 39.4483 58.3276 34.5517C64.1897 29.3103 70.8793 15.7931 69.7069 8ZM142.328 0H129.776L117.983 12.5517C116.603 14 115.224 15.4483 113.845 17.1724H113.776L119.638 0H109.431L95.638 39.931H105.845L110.259 27.3793L114.81 23.5172L118.397 34.8966C119.5 38.4138 120.672 39.931 123.155 39.931H131.017L123.017 17.5862L142.328 0Z" fill="#00B33C"/>
</svg>
