<svg width="178" height="83" viewBox="0 0 178 83" fill="none" xmlns="http://www.w3.org/2000/svg">
<path d="M124.11 74.5951V67.1457H121.345V78.718H123.688L130.388 71.1749V78.718H133.152V67.1457H130.809L124.11 74.5951ZM153.813 74.6888V67.1457H151.049V78.718H153.392L160.091 71.1281V78.718H162.856V67.1457H160.419L153.813 74.6888ZM145.099 71.6434H139.008V67.1457H136.244V78.718H139.008V74.1734H145.099V78.718H147.863V67.1457H145.099V71.6434ZM111.366 67.1457L104.713 78.718H107.993L112.35 71.0812L116.754 78.718H120.174L113.521 67.1457H111.366ZM175.271 67.1457L168.712 74.6888V67.1457H165.948V78.718H168.29L174.99 71.1281V78.718H177.754V67.1457H175.271ZM107.946 67.1457H95.0148V69.6757H106.447L107.946 67.1457ZM95.0148 71.6434V74.1734H103.87L105.369 71.6434H95.0148ZM33.7799 67.1457H20.8489V69.6757H32.2807L33.7799 67.1457ZM10.5884 64.6157H8.33956L1.68665 76.188H0V82.1382H2.62368V78.718H16.2106V82.1382H18.8343V76.188H17.1476L10.5884 64.6157ZM4.96625 76.188L9.32344 68.5512L13.7275 76.188H4.96625ZM53.0359 66.8646C48.3976 66.8646 46.1955 69.7225 46.1955 72.8616C46.1955 76.188 48.3507 78.8586 53.0359 78.8586C55.0973 78.8586 59.8293 77.9215 59.8293 72.8616C59.8293 69.582 57.721 66.8646 53.0359 66.8646ZM53.0359 76.3286C50.3653 76.3286 49.2409 74.7825 49.2409 72.9084C49.2409 70.847 50.5527 69.4414 53.0359 69.4414C55.8938 69.4414 56.8308 70.847 56.8308 72.9084C56.8308 75.3916 54.9568 76.3286 53.0359 76.3286ZM37.2001 67.1457L30.5472 78.718H33.8268L38.1839 71.0812L42.588 78.718H46.0081L39.4021 67.1457H37.2001ZM89.1583 78.718H91.9226V67.1457H89.1583V78.718ZM83.911 71.3155H79.6943V67.1457H76.9301V78.718H79.0853H79.6943H83.8641C85.7382 78.718 87.7059 77.6873 87.7059 74.923C87.7059 71.3623 85.2228 71.3155 83.911 71.3155ZM83.7704 76.2817H79.6943V73.7049H83.7704C84.2389 73.7049 84.9885 73.8455 84.9885 75.0167C84.9417 76.0475 84.3795 76.2817 83.7704 76.2817ZM20.8957 71.6434V74.1734H29.7507L31.2499 71.6434H20.8957ZM95.0148 78.718H101.293L102.745 76.188H95.0148V78.718ZM71.9638 71.8777C72.7135 71.5497 73.3225 71.0812 73.3225 69.8162C73.3225 67.4268 71.3079 67.1457 69.9024 67.1457H62.4061V78.718H70.0429C73.5568 78.718 74.2596 76.7971 74.2596 75.0167C74.2127 73.049 73.0883 72.2525 71.9638 71.8777ZM65.1235 69.582H69.5744C70.2303 69.582 70.5114 69.9099 70.5114 70.6127C70.5114 71.3155 70.0898 71.6434 69.5744 71.6434H65.1235V69.582ZM69.9961 76.2817H65.1235V73.7986H69.9961C70.7925 73.7986 71.3548 73.986 71.3548 75.0167C71.3548 75.8601 71.0268 76.2817 69.9961 76.2817ZM20.8957 78.718H27.1738L28.6262 76.188H20.8957V78.718Z" fill="black"/>
<path d="M96.9454 35.9811L77.1446 21.2835L72.3151 29.6362L94.9332 39.4346L96.9454 35.9811ZM100.004 30.7606L83.0205 11.1638L78.191 19.4362L97.9918 34.1339L100.004 30.7606ZM103.626 24.4157L89.5402 0L84.1473 9.23622L101.131 28.7528L103.626 24.4157ZM65.3124 41.7638L60 51H88.2524L90.7476 46.663L65.3124 41.7638ZM90.7476 51H98.2333L104.834 39.5953L111.514 51H119L104.834 26.5842L90.7476 51ZM93.8868 41.2819L71.2688 31.5638L66.4393 39.8362L91.8745 44.7354L93.8868 41.2819Z" fill="#F9B000"/>
</svg>
