<svg width="70" height="70" viewBox="0 0 70 70" fill="none" xmlns="http://www.w3.org/2000/svg">
<path d="M64.3802 0H5.61983C2.47934 0 0 2.47934 0 5.61983V64.3802C0 67.438 2.47934 70 5.61983 70H64.3802C67.438 70 70 67.5207 70 64.3802V5.61983C70 2.47934 67.438 0 64.3802 0Z" fill="#0C54A0"/>
<path d="M65.1243 34.9589C65.1243 51.5704 51.6532 65.0415 35.0416 65.0415C18.4301 65.0415 4.95898 51.5704 4.95898 34.9589C4.95898 18.3473 18.4301 4.87622 35.0416 4.87622C51.6532 4.87622 65.1243 18.3473 65.1243 34.9589Z" fill="#FFF01E"/>
<path d="M32.6443 29.6696H26.3633L19.0905 37.1076V21.9836H13.4707V47.9341H19.0905V39.7522L26.1153 47.9341H33.2228L24.5451 37.9341L32.6443 29.6696Z" fill="#0C54A0"/>
<path d="M36.9416 27.9336C36.1152 27.9336 35.3714 27.603 34.7929 27.0245C34.1317 26.446 33.8838 25.7022 33.8838 24.8757C33.8838 24.0493 34.2144 23.3055 34.7929 22.727C35.3714 22.1484 36.1152 21.8179 36.9416 21.8179C37.7681 21.8179 38.5119 22.1484 39.0904 22.727C39.6689 23.3055 39.9995 24.0493 39.9995 24.8757C39.9995 25.7022 39.6689 26.446 39.0904 27.0245C38.5119 27.6856 37.7681 27.9336 36.9416 27.9336Z" fill="#F52D0E"/>
<path d="M39.7507 47.9337H34.1309V29.6692H39.7507V47.9337Z" fill="#0C54A0"/>
<path d="M56.4462 34.2977V29.6696H51.3222V21.9836H45.7024V29.6696H41.9834V34.2977H45.7024V42.3142C45.7024 44.215 46.2809 45.7027 47.3553 46.6117C48.5123 47.6035 50.0826 48.0993 52.314 48.0993C52.8098 48.0993 53.471 48.0167 54.2974 47.9341C55.0412 47.8514 55.7024 47.6861 56.1983 47.5208V42.9754C55.7024 43.1407 55.2892 43.2233 54.9586 43.306C54.5454 43.3886 54.1322 43.3886 53.7189 43.3886C52.8098 43.3886 52.2313 43.2233 51.8181 42.8927C51.4875 42.5622 51.3222 41.9836 51.3222 41.1572V34.215H56.4462V34.2977Z" fill="#0C54A0"/>
</svg>
