<svg width="69" height="70" viewBox="0 0 69 70" fill="none" xmlns="http://www.w3.org/2000/svg">
<path d="M0 10.7778C18.99 -8.50437 47.9132 -0.177996 56.2395 22.0257H43.2387C35.6427 10.3395 18.6978 7.12584 7.15776 20.2727L0 10.7778ZM8.61853 47.0048H42.5083C44.4073 43.9372 45.4299 40.4313 45.722 36.4873H16.6527L8.61853 47.0048ZM57.9925 47.0048H61.2062L68.6561 36.4873H59.8915C59.7454 39.9931 59.1611 43.645 57.9925 47.0048ZM8.61853 23.1943H61.0601L68.51 33.7118H16.6527L8.61853 23.1943ZM58.5768 35.0265C58.5768 66.5791 21.7654 81.771 0 59.2752L7.01168 49.9263C21.9115 67.1634 47.0367 56.3537 47.0367 35.3186V35.1726L58.5768 35.0265Z" fill="#44759D"/>
</svg>
