<svg width="84" height="83" viewBox="0 0 84 83" fill="none" xmlns="http://www.w3.org/2000/svg">
<path fill-rule="evenodd" clip-rule="evenodd" d="M39.5581 0.842454C24.6628 7.69912 12.3314 16.6373 1.58721 28.6364C0 30.3506 0 30.473 0 31.2077C0 31.575 0.244186 33.0443 0.366279 34.3911C2.07558 49.084 7.20349 64.5115 14.8953 78.1024C16.1163 80.3063 15.75 80.0614 19.7791 80.7961C34.186 83.7346 49.8139 83.7346 64.2209 80.7961C68.3721 79.939 67.8837 80.1839 69.2267 77.9799C77.407 63.6544 82.5349 47.6147 83.8779 31.8199L84 30.3506L83.2674 29.4935C73.1337 17.7392 58.6046 7.08692 44.0756 0.720013C41.8779 -0.25951 42.1221 -0.25951 39.5581 0.842454ZM47.0058 5.49519C59.3372 11.6172 68.4942 18.4739 78.3837 28.7589L80.8256 31.3301L80.7035 32.677C79.6046 45.9005 74.3547 62.6749 67.2733 75.0414C65.8081 77.4902 66.2965 77.2453 63.2442 77.8575C49.0814 80.6736 35.2849 80.6736 20.7558 77.8575L17.9477 77.3677L17.2151 76.0209C10.3779 64.2666 5.37209 49.084 3.5407 34.7585C3.05233 30.9628 2.68605 31.6974 7.44767 26.9223C16.9709 17.3719 26.9826 10.1479 38.7035 4.63811C42.2442 2.92394 41.7558 2.8015 47.0058 5.49519ZM40.2907 18.1066C40.2907 18.7188 40.2907 18.7188 40.7791 18.7188H41.2674V20.8002C41.1453 23.3715 40.4128 25.8203 39.8023 25.8203C39.436 25.8203 39.436 25.9427 39.436 27.6569V29.4935H40.4128H41.3895V28.3916V27.2896H43.5872H45.7849V28.3916V29.4935H46.7616H47.6163V27.7794V26.0652H47.1279H46.6395V23.3715C46.5174 19.4534 46.6395 18.8412 47.3721 18.8412C47.8605 18.8412 47.8605 18.8412 47.8605 18.229V17.6168H44.0756H40.2907V18.1066ZM29.5465 19.2085L28.936 19.6983V21.4124C28.936 23.0042 28.936 23.1266 28.5698 23.3715C28.0814 23.7388 27.9593 23.6164 27.7151 22.392C27.3488 21.1676 27.3488 21.0451 27.8372 20.9227C28.2035 20.8002 28.2035 19.9432 27.8372 19.5758C27.7151 19.4534 24.2965 20.4329 24.2965 20.6778C24.2965 21.29 24.6628 21.7798 25.0291 21.6573C25.5174 21.5349 26.3721 23.8613 26.0058 24.1061C25.5174 24.4735 25.0291 24.1061 24.5407 23.0042C23.564 21.1676 22.8314 20.6778 21.7326 21.0451C21.1221 21.29 21.2442 22.5144 21.7326 22.5144C22.2209 22.5144 22.7093 22.8817 22.9535 23.7388C23.3198 24.4735 23.8081 25.0857 24.2965 25.0857C24.4186 25.0857 24.6628 25.2081 24.6628 25.2081C24.6628 25.3305 24.5407 25.3305 24.5407 25.3305C24.1744 25.3305 23.9302 26.4325 24.0523 27.6569C24.1744 28.8813 24.1744 28.8813 23.686 29.2486L23.1977 30.1057L23.686 30.7179C24.1744 31.4526 24.7849 31.3301 25.5174 30.5955C25.8837 30.2282 25.8837 28.3916 25.6395 27.0447C25.5174 26.4325 25.8837 25.9427 26.3721 25.9427C27.1047 25.9427 27.593 28.8813 26.8605 28.8813C26.7384 28.8813 26.7384 29.616 26.8605 29.8608C27.2267 30.3506 30.5233 29.2486 30.4012 28.6364C30.2791 28.0242 30.157 27.9018 29.6686 27.9018C29.1802 27.9018 29.1802 27.7794 28.936 26.7998C28.814 26.1876 28.5698 25.5754 28.5698 25.453C28.4477 25.0857 29.3023 24.8408 29.6686 25.2081C29.7907 25.3305 30.2791 26.0652 30.6453 26.7998C31.3779 28.3916 31.8663 28.7589 32.7209 28.7589C33.4535 28.7589 33.4535 28.7589 33.5756 27.6569C33.6977 27.0447 33.6977 27.0447 33.0872 26.9223C32.5988 26.9223 32.4767 26.6774 31.8663 25.6979C31.5 24.9632 31.0116 24.4735 30.6453 24.2286C30.0349 23.8613 30.0349 23.8613 30.2791 23.4939C30.5233 23.2491 30.5233 22.8817 30.5233 21.9022C30.4012 20.6778 30.5233 20.5554 30.8895 20.188C31.2558 19.8207 31.2558 19.8207 31.0116 19.2085C30.6453 18.5963 30.157 18.5963 29.5465 19.2085ZM44.686 22.392V25.8203H44.1977C43.9535 25.8203 43.343 25.8203 42.9767 25.8203L42.1221 25.6979L42.4884 24.8408C42.8546 23.9837 43.0988 21.5349 43.2209 19.8207V18.9636H43.9535H44.686V22.392ZM56.8953 19.4534C56.6512 19.5758 56.407 19.8207 56.2849 20.3105C55.7965 22.1471 55.7965 22.0247 56.7733 22.1471C57.3837 22.2695 57.3837 22.2695 57.6279 21.5349C58.1163 19.9432 60.314 21.29 60.314 23.1266C60.314 24.351 60.1919 24.351 57.8721 23.7388C57.5058 23.6164 57.5058 23.7388 57.2616 24.2286C57.0174 25.0857 57.0174 25.0857 58.2384 25.3305C59.7035 25.6979 59.8256 25.6979 59.4593 26.5549C58.7267 28.514 55.5523 29.2486 55.9186 27.2896C56.1628 26.3101 56.0407 26.1876 55.5523 26.0652C54.6977 25.8203 54.5756 25.9427 54.3314 27.1672C54.0872 28.514 54.0872 28.6364 55.3081 29.2486C56.6512 29.8608 58.6047 29.8608 59.7035 29.3711C62.1454 28.1467 63 22.392 61.1686 20.5554C60.3139 19.6983 57.8721 18.9636 56.8953 19.4534ZM35.407 25.9427C34.9186 26.4325 34.9186 27.412 35.407 27.9018C36.5058 29.0038 38.4593 27.412 37.4826 26.1876C37.1163 25.453 36.0174 25.3305 35.407 25.9427ZM49.936 26.1876C49.5698 26.5549 49.5698 26.7998 49.5698 27.1672C49.936 28.7589 52.2558 28.7589 52.2558 27.0447C52.3779 25.8203 50.9128 25.3305 49.936 26.1876ZM9.15698 33.4116C9.27907 33.5341 16.7267 36.7175 25.7616 40.6356L42 47.7371L58.6047 40.5132C67.6395 36.5951 75.0872 33.2892 75.0872 33.2892C75.0872 33.2892 73.9884 33.4116 72.5233 33.6565C65.9302 34.7585 57.5058 35.8604 51.2791 36.3502C49.6919 36.4726 45.907 36.5951 42 36.5951C35.0407 36.5951 33.0872 36.4726 26.1279 35.738C21.2442 35.2482 11.7209 33.7789 9.27907 33.2892C9.03488 33.2892 9.03488 33.2892 9.15698 33.4116ZM30.2791 62.3076C23.8081 70.2662 18.5581 76.7555 18.6802 76.7555C18.6802 76.7555 23.9302 73.2048 30.2791 68.9193C36.6279 64.5115 42 60.9607 42.1221 60.9607C42.3663 60.9607 47.7384 64.6339 64.9535 76.3882C65.3198 76.6331 65.686 76.878 65.686 76.7555C65.686 76.6331 42.3663 47.982 42.2442 47.8596C42 47.8596 36.75 54.3489 30.2791 62.3076Z" fill="#E6342A"/>
</svg>
