<svg width="35" height="35" viewBox="0 0 35 35" fill="none" xmlns="http://www.w3.org/2000/svg">
<path d="M0 5.38888C9.49499 -4.25219 23.9566 -0.088998 28.1198 11.0128H21.6194C17.8214 5.16976 9.34891 3.56292 3.57888 10.1364L0 5.38888ZM4.30926 23.5024H21.2542C22.2037 21.9686 22.7149 20.2157 22.861 18.2436H8.32637L4.30926 23.5024ZM28.9962 23.5024H30.6031L34.328 18.2436H29.9457C29.8727 19.9966 29.5805 21.8225 28.9962 23.5024ZM4.30926 11.5971H30.53L34.255 16.8559H8.32637L4.30926 11.5971ZM29.2884 17.5132C29.2884 33.2895 10.8827 40.8855 0 29.6376L3.50584 24.9632C10.9558 33.5817 23.5184 28.1768 23.5184 17.6593V17.5863L29.2884 17.5132Z" fill="#44759D"/>
</svg>
