<svg width="77" height="17" viewBox="0 0 77 17" fill="none" xmlns="http://www.w3.org/2000/svg">
<path d="M48.3042 16.9999C48.5289 16.1013 48.6787 15.2775 48.9033 14.5286C49.3527 12.4317 49.8769 10.4096 50.4011 8.31271C50.476 8.08804 50.6258 7.78848 50.8505 7.71359C52.7976 6.9647 54.7447 6.29069 56.8416 5.54179C56.3174 7.93826 55.7183 10.185 55.1941 12.5814C55.4936 12.5814 55.7183 12.6563 55.943 12.6563C59.6126 12.6563 63.2073 12.6563 66.8769 12.6563C68.2998 12.6563 69.0487 12.1321 69.4231 10.7092C69.8725 9.1365 70.2469 7.56382 70.6963 5.99113C70.7712 5.69157 70.9958 5.39201 71.2954 5.24223C71.8196 4.86778 72.4187 4.64311 73.0927 4.26866C65.8284 4.79289 58.639 4.34355 51.3747 4.56822C51.5994 3.07042 51.8989 1.72241 52.3483 0.374389C52.3483 0.224609 52.7976 0.0748291 53.0223 0.0748291C55.943 0.0748291 58.8637 0.0748291 61.7844 0.0748291C65.3791 0.0748291 68.9738 0.0748291 72.5685 0.0748291C73.3174 0.0748291 74.1412 0.149719 74.8901 0.374389C76.3879 0.823728 77.2117 2.17175 76.8372 3.66954C76.1632 6.81492 75.4143 10.0352 74.5157 13.1057C73.9165 15.2026 72.269 16.1761 70.172 16.6255C69.4231 16.7753 68.5994 16.8502 67.7756 16.8502C61.5597 16.8502 55.269 16.8502 49.0531 16.8502C48.8284 16.9999 48.6038 16.9999 48.3042 16.9999Z" fill="#00408B"/>
<path d="M29.5066 0.0748291C29.1322 0.299499 28.9075 0.524168 28.6079 0.673948C26.8855 1.7973 25.2379 2.92064 23.5154 4.04399C23.141 4.26866 22.6916 4.41844 22.2423 4.41844C18.348 4.41844 14.4537 4.41844 10.5595 4.41844C9.21145 4.41844 8.53745 4.94267 8.23789 6.29069C7.86344 7.86337 7.4141 9.43606 7.03965 11.0836C6.88987 11.6828 6.6652 12.0572 6.06608 12.207C5.61674 12.3568 5.1674 12.6563 4.79295 13.0308C5.01762 13.0308 5.31718 13.0308 5.54185 12.9559C6.51542 12.881 7.4141 12.7312 8.38766 12.7312C12.207 12.7312 16.0264 12.7312 19.8458 12.7312C20.37 12.7312 20.5947 12.5814 20.7445 12.0572C20.8943 11.4581 21.1189 10.9339 21.3436 10.2599C19.7709 10.2599 18.2731 10.2599 16.7753 10.2599C16.7753 10.185 16.7753 10.185 16.7753 10.1101C20.5198 8.76205 24.3392 7.41404 28.2335 5.99113C28.2335 6.29069 28.2335 6.51536 28.1586 6.74003C27.2599 9.96029 26.4361 13.2554 25.5374 16.4757C25.4626 16.8502 25.2379 16.925 24.8634 16.925C16.7753 16.925 8.61234 16.925 0.524229 16.925C0.374449 16.925 0.22467 16.925 0 16.8502C0.0748899 16.5506 0.0748899 16.3259 0.14978 16.1013C1.12335 12.1321 2.09692 8.08804 3.14537 4.11888C3.29515 3.29509 3.6696 2.4713 4.19383 1.64752C4.86784 0.599058 5.9163 0.0748291 7.18943 0.0748291C14.4537 0.0748291 21.6432 0.0748291 28.9075 0.0748291C29.0573 0.0748291 29.2071 0.0748291 29.5066 0.0748291Z" fill="#00408B"/>
<path d="M29.9556 4.4185C30.1802 3.44493 30.4049 2.47137 30.7045 1.4978C31.0789 0 31.0789 0 32.5767 0C38.2683 0 43.96 0 49.6516 0C50.0261 0 50.4005 0 50.8498 0C50.4754 1.4978 50.1009 2.9207 49.7265 4.34361C43.1362 4.4185 36.6208 4.4185 29.9556 4.4185Z" fill="#00408B"/>
<path d="M34.0747 17C34.524 15.4273 34.8985 14.0044 35.2729 12.5815C35.6474 11.1585 36.0218 9.73564 36.4712 8.31273C36.5461 8.08807 36.6959 7.8634 36.8456 7.78851C38.643 7.1145 40.5152 6.44049 42.3126 5.76648C42.3875 5.76648 42.4624 5.76648 42.6122 5.76648C42.3126 7.1145 41.9381 8.38762 41.6386 9.73564C41.0395 11.9823 40.5152 14.229 39.9161 16.4008C39.8412 16.6255 39.6166 17 39.4668 17C37.6694 17 35.947 17 34.0747 17Z" fill="#00408B"/>
</svg>
