<svg width="20" height="20" viewBox="0 0 20 20" fill="none" xmlns="http://www.w3.org/2000/svg">
<path fill-rule="evenodd" clip-rule="evenodd" d="M19.6033 10.2408C19.6033 9.53158 19.5466 8.85072 19.4331 8.19824H10.0146V12.0564H15.4047C15.1778 13.3046 14.4685 14.3543 13.4189 15.0635V17.5883H16.6529C18.4969 15.8294 19.6033 13.2763 19.6033 10.2408Z" fill="#3E82F1"/>
<path fill-rule="evenodd" clip-rule="evenodd" d="M10.0143 20.0001C12.7094 20.0001 14.9789 19.0923 16.6243 17.5887L13.3902 15.0923C12.4824 15.688 11.3477 16.0568 10.0143 16.0568C7.40441 16.0568 5.19165 14.298 4.42569 11.9434H1.0498V14.5249C2.69519 17.759 6.09945 20.0001 10.0143 20.0001Z" fill="#32A753"/>
<path fill-rule="evenodd" clip-rule="evenodd" d="M4.39716 11.8869C4.19858 11.2911 4.08511 10.6387 4.08511 9.98618C4.08511 9.33369 4.19858 8.68121 4.39716 8.08547V5.50391H1.04965C0.397163 6.86561 0 8.39752 0 10.0145C0 11.6316 0.397163 13.1635 1.04965 14.4968L4.39716 11.8869Z" fill="#F9BB00"/>
<path fill-rule="evenodd" clip-rule="evenodd" d="M10.0143 3.97163C11.4895 3.97163 12.7945 4.48227 13.8441 5.47518L16.681 2.60993C14.9505 0.992908 12.7094 0 10.0143 0C6.09945 0 2.69519 2.24113 1.0498 5.50355L4.39732 8.08511C5.19165 5.7305 7.40441 3.97163 10.0143 3.97163Z" fill="#E74133"/>
</svg>
