<svg width="20" height="20" viewBox="0 0 20 20" fill="none" xmlns="http://www.w3.org/2000/svg">
<path d="M0 10C0 4.5 4.5 0 10 0C15.5 0 20 4.5 20 10C20 15.5 15.5 20 10 20C4.5 20 0 15.5 0 10Z" fill="#FC3F1D"/>
<path d="M11.3004 5.7002H10.4004C8.70039 5.7002 7.80039 6.6002 7.80039 7.8002C7.80039 9.2002 8.40039 9.9002 9.70039 10.8002L10.7004 11.5002L7.70039 16.0002H5.40039L8.10039 12.0002C6.50039 10.9002 5.70039 9.8002 5.70039 8.0002C5.70039 5.7002 7.30039 4.2002 10.3004 4.2002H13.3004V16.1002H11.2004V5.7002H11.3004Z" fill="white"/>
</svg>
