<svg width="41" height="35" viewBox="0 0 41 35" fill="none" xmlns="http://www.w3.org/2000/svg">
<path d="M25.2992 24.6929L11.7402 14.6063L8.43307 20.3386L23.9213 27.063L25.2992 24.6929ZM27.3937 21.1102L15.7638 7.66142L12.4567 13.3386L26.0158 23.4252L27.3937 21.1102ZM29.874 16.7559L20.2283 0L16.5354 6.33858L28.1654 19.7323L29.874 16.7559ZM3.6378 28.6614L0 35H19.3465L21.0551 32.0236L3.6378 28.6614ZM21.0551 35H26.1811L30.7008 27.1732L35.2756 35H40.4016L30.7008 18.2441L21.0551 35ZM23.2047 28.3307L7.71654 21.6614L4.40945 27.3386L21.8268 30.7008L23.2047 28.3307Z" fill="#F9B000"/>
</svg>
