<svg width="59" height="83" viewBox="0 0 59 83" fill="none" xmlns="http://www.w3.org/2000/svg">
<path d="M12.0005 63H19.5005L22 63.5L23 68.5C23 68.8333 22.7 69.7 21.5 70.5C13.5 70.1 12.5 71.6667 13 72.5C12.8333 72.6667 13.2 73.7 16 76.5C10.5 76 10 78.5 10 80C10 81.5 13.5 82 14 82C14.5 82 14 79.5 16.5 78.5C18.9 78.1 18.1667 80 17.5 81L21 79.5L20.5 76C21.1667 75.6667 22.5 74.6 22.5 73C26.5 73.8 26.1667 75.6667 25.5 76.5L31 72.5L30.5 68L30 62C31.5 59.5 35.6 54.8 40 56C46.4 59.6 54 59.8333 57 59.5C56.5 58.3333 55.4 55.7 55 54.5C51 53.5 50 53 53.5 52.5C54.5 51.5 49.5 49 51 48.5C50.5 46.5 46 47 44 47C42 47 40 48 38.5 46.5C53 39 49.5 33 50 28.5C50.4 24.9 48.8333 24.3333 48 24.5C48.1667 24.3333 48.7 23.1 49.5 19.5C50 14.5 47.5 15 45 16.5C47.4 13.3 47 11.5 46.5 11L42 2C41.1667 4.33333 38.7 10.6 35.5 17C32.3 23.4 29.5 27 28.5 28L27.5 27C26.5 28.5 24 33.5 22.5 35C23 32 21 28 19 26C20.5 29.5 20 32.5 16.5 39C13.7 44.2 11 46.5 10 47L9 45.5C8.66667 45.6667 7.8 46.3 7 47.5C6.2 49.9 8.66667 52.8333 10 54C7.83333 55.5 3.3 58.6 2.5 59C1.7 59.4 2.16667 60.8333 2.5 61.5C2.33349 61.6667 1.90046 62.5 1.50046 64.5C1.10046 67.3 3.33379 67.6667 4.50046 67.5L4.00046 65.5L6.50046 64L12.0005 63Z" fill="#E2E2E2"/>
<path fill-rule="evenodd" clip-rule="evenodd" d="M58 59.5L57.3 58.3C57.2 58.2 56.9 57.6 56.4 56.6C56.2 56.1 55.9 55.4 55.7 54.8L55.5 54.4C55.4 54.2 55.3 54.1 55.1 54.1L54.7 54C53.9 53.8 53.1 53.7 52.3 53.5C52.6 53.4 52.9 53.4 53.2 53.3L54.5 53C54.6 53 54.7 52.9 54.8 52.9C55 52.7 55 52.4 54.9 52.2L54.1 51.2C53.6 50.6 52.9 50.1 52.2 49.7C51.8 49.5 51.5 49.3 51.1 49.2L52.2 48.7C52.3 48.7 52.4 48.6 52.5 48.5C52.7 48.2 52.6 47.9 52.3 47.8L50.9 47C50.5 46.8 50 46.6 49.4 46.5C46.1 45.9 43.5 46.9 40.5 46.9C38.7 46.9 39.5 46.3 40.5 45.7C45.4 42.9 49.2 41.6 50.3 35.1C50.5 34 50.6 32.7 50.7 31.3C50.8 28.8 50.7 26.2 50.3 24.6C50.2 24.3 49.9 24.1 49.7 24.2C49.6 24.3 49.4 24.3 49.3 24.3C49.7 23.7 50 23.1 50.1 22.4C50.4 21.2 50.4 19.9 50.2 18.2C50.1 17.8 50.1 17.5 50 17.2C49.9 16.9 49.8 16.7 49.7 16.4C49.5 15.9 49.3 15.6 49 15.3C48.7 15 48.3 14.9 47.8 14.9C47.5 14.9 47.4 14.9 47.4 14.9C47.3 14.9 47.2 15 47.2 15C47.1 15.1 46.9 15.2 46.7 15.3C47 14.8 47.2 14.3 47.3 13.9C47.5 13.4 47.6 12.7 47.5 12C47.4 11.4 47.2 10.8 46.9 10.1C45.7 7.9 43.6 3.3 43.5 3.2L42.6 1.3C42.5 1.1 42.4 1 42.3 1C42 0.900002 41.7 1 41.6 1.3L41 3.3C40.9 3.4 38.7 11.3 29.2 26.7C29.3 25.7 29.5 25 29.5 25C29.6 24.8 29.5 24.7 29.4 24.5C29.2 24.2 28.9 24.2 28.7 24.4C28.1 25 27.2 26.5 26.2 28.2C25.3 29.8 24.5 31.6 23.8 33L23.7 32.8C23.5 32 23.3 31.2 23 30.4C22 27.8 21.3 26.9 19.7 25.1L19.2 24.5C19.1 24.3 18.9 24.2 18.7 24.3C18.4 24.4 18.2 24.7 18.3 24.9C18.4 25.4 18.5 25.6 18.5 25.9C18.9 27.7 19.2 28.8 18.9 31C18.8 31.8 18.6 32.8 18.3 33.9C18 34.8 17.7 35.8 17.2 36.8C16.5 38.4 15.4 40.1 14.3 41.6C12.8 43.6 11.3 45.2 10.2 46.3L9.79998 45.3C9.79998 45.2 9.69998 45.1 9.69998 45.1C9.49998 44.9 9.19998 44.8 8.99998 45C8.19998 45.7 7.29998 46.6 6.79998 47.7C6.29998 48.8 6.19998 50 7.09998 51.3C6.99998 51.3 6.99998 51.3 7.09998 51.4L9.19998 53.9C7.49998 54.9 5.89998 55.9 4.59998 56.8C3.59998 57.5 2.79998 58.2 2.29998 59C1.49998 60.1 1.19998 60.5 1.89998 61.6V61.7V61.8C-0.100023 65.7 1.49998 67.3 2.69998 67.9C3.09998 68.1 3.39998 68.2 3.49998 68.3H3.59998L4.79998 68.5C4.89998 68.5 4.99998 68.5 4.99998 68.5C5.29998 68.5 5.49998 68.2 5.39998 67.9L5.19998 66.7C5.19998 66.7 5.09998 66.2 5.19998 65.9C5.19998 65.8 5.29998 65.8 5.39998 65.7C8.49998 63.4 20.4 63 21.7 65.3V65.4C21.7 65.5 21.8 66.2 21.9 67.1C22 68.1 22.1 69 22.1 69.5L22 69.6C21.8 69.7 21.7 69.8 21.5 69.9C21.2 70.1 21 70.2 20.8 70.3C20.5 70.3 20 70.3 19.3 70.2C18.7 70.2 18 70.1 17.1 70.1C16.4 70.1 15.8 70.1 15.3 70.2C14.7 70.3 14.2 70.4 13.9 70.6C13.6 70.8 13.3 70.9 13.1 71.1C12.9 71.3 12.7 71.6 12.6 71.8C12.5 72.1 12.4 72.3 12.4 72.6C12.4 72.9 12.5 73.2 12.5 73.4C12.6 73.7 12.7 74 12.9 74.2C13.1 74.5 13.3 74.7 13.5 74.9L14.6 76H14.4C13.6 75.9 12.9 76 12.3 76.2C11.6 76.4 11 76.6 10.6 77C10.4 77.2 10.2 77.4 9.99998 77.6C9.79998 77.8 9.69998 78.1 9.59998 78.3C8.79998 80.6 10.4 81.4 12 82.2C12.1 82.2 12.1 82.3 12.2 82.3C12.4 82.3 12.6 82.2 12.7 82C13.1 82.2 13.5 82.4 13.9 82.5L14.2 82.6C14.5 82.7 14.7 82.5 14.8 82.2L15.1 81.4C15.3 80.9 15.8 80.3 16.4 79.9C16.8 79.6 17.1 79.4 17.5 79.4C17.3 79.8 16.8 80.4 16.5 80.7V80.8C16.4 80.9 16.4 81 16.3 81C16.2 81.1 16.2 81.2 16.2 81.4C16.3 81.7 16.5 81.9 16.8 81.9H17.1C18.6 81.8 20.9 81.7 21.8 80.8C22.5 80.1 22.5 79.2 21.3 77.7C21.4 77.5 21.5 77.4 21.6 77.2C21.7 77 21.9 76.8 22 76.5L22.2 76.4C22.3 76.3 22.4 76.3 22.5 76.2C22.8 76.1 23 75.9 23.1 75.8C23.3 75.6 23.5 75.4 23.6 75.2C23.7 75 23.8 74.8 23.8 74.7C23.9 74.6 23.9 74.5 23.9 74.4L24.1 74.2L24.3 74.1C25.3 74.4 25.3 75.4 25.3 75.4L24.9 76.9C24.9 77.1 25 77.2 25 77.3C25.2 77.5 25.5 77.6 25.7 77.4L28.4 75.4L29 75.6C29.2 75.7 29.4 75.6 29.6 75.4L31.9 72.9C32.1 72.7 32.1 72.6 32.1 72.4C32.1 72.4 32 72.2 31.9 71.9C31.9 71.8 31.8 71.3 31.7 70.8C31.6 70.5 31.6 70.2 31.5 69.6C31.5 69.2 31.5 68.8 31.6 68.4C31.7 68.1 31.8 67.8 32 67.6C32.2 67.4 32.2 67.1 32.1 66.9C31.4 65.9 31.2 64.9 31.5 63.9C32 61.8 34.7 58.8 37.6 57.7C40.2 56.7 44 58.4 47.6 59.3C49.8 59.9 51.9 60.5 53.3 61.5C53.4 61.6 53.5 61.6 53.6 61.6C53.9 61.6 54.1 61.3 54.1 61.1C54 60.8 54 60.5 54 60.3V60.2C54.3 60.2 57.5 60.4 57.8 60.3C57.9 60.2 58 60.1 58.1 59.9C58.1 59.7 58.1 59.6 58 59.5ZM8.09998 50.6C8.09998 50.6 6.79998 48.7 8.89998 46.7C9.19998 47.4 9.59998 48.4 9.59998 48.4C9.59998 48.4 16 42.9 18.4 37.2C20.8 31.5 20.1 27.6 20.1 27.6C20.1 27.6 22.9 32.1 22.2 34.7C21.6 37.3 18.1 41.7 18.1 41.7L21.1 39.8C21.1 39.8 21 43 15.9 47.2C19.1 45.7 19.4 45.5 19.4 45.5C19.4 45.5 19 48.6 17.4 49.4C15.8 50.2 10.5 53.3 10.5 53.3L8.09998 50.6ZM3.99998 65.3C3.69998 65.9 3.89998 66.9 3.89998 66.9C3.89998 66.9 0.899977 66.3 3.19998 62.1C3.19998 62.1 4.69998 62.6 5.69998 62.1C7.19998 61.7 7.79998 62.4 8.09998 62.9C5.79998 63.7 4.29998 64.7 3.99998 65.3ZM12.2 61.1C14.9 61.3 15.4 62.4 15.4 62.4C15.4 62.4 12 62.1 9.59998 62.8C8.99998 61.6 7.69998 61.2 7.69998 61.2V60.5C7.69998 60.5 9.99998 58.7 12.2 58.1C14.4 57.5 16.7 58.2 16.7 58.2C16.7 58.2 13.5 58.7 13 59.2C17 58.8 18.9 60.8 18.9 60.8C18.9 60.8 14.1 59.9 12.2 61.1ZM18.1 80.2C18.8 79.4 18.8 78.2 17.8 77.9C16.8 77.6 14.2 78.9 13.6 80.8C11.9 80.2 12.9 78.6 13.9 78.1C12.4 78.2 11.4 79.5 11.3 80.3C9.79998 79.6 10.3 76.8 14.1 77.1C16.3 77.1 17.6 76.7 17.6 76.7C17.6 76.7 18.8 76.1 19.1 76.1C19.4 76 19.2 77.8 19.2 77.8C19.2 77.8 22.1 79.9 18.1 80.2ZM15.4 75.6C15.5 75.5 15.5 75.5 15.5 75.4V75.3L15.7 75.5L15.4 75.6ZM16.8 75.4C16.9 75.3 17 75.1 17.1 75C17.1 75 18.3 73.7 19 73.5L19.1 73.6C18.9 73.8 18.7 74 18.5 74.2C18 74.5 17.4 74.9 17 75.3L16.8 75.4ZM26.1 75.2C26.1 75.2 26.3 71.8 21.9 72.5C22.4 73.5 22.5 75.1 19.8 75C20.1 73.9 21 73.2 21 73.2C21 73.2 20.4 72 19.1 72.1C17.8 72.2 16.1 74.1 16.1 74.1C16.1 74.1 14.8 72.9 16.3 71.8C16.3 71.8 14.3 72 14.2 73.5C13.2 72.5 12.9 70.6 17 70.9C21.1 71.2 21.8 71.1 21.8 71.1C21.8 71.1 24.2 69.2 24.3 68.8C24.4 68.4 23.1 64.7 23.1 64.7C23.1 64.7 26.3 68.3 26.2 68.8C26 69.3 23.9 71.3 23.9 71.3C23.9 71.3 26.5 71.4 26.8 72.8C27.9 71.7 28.7 71.1 28.7 71.1C28.7 71.1 28.2 66.4 29.4 64.5C29.5 66.9 30.3 72.1 30.3 72.1L26.1 75.2ZM46.3 57.6C41.7 56.4 35.4 52.9 36.2 47.4L26.2 44.5L21 50.7C20.6 52.3 20.3 53.6 20.1 54.5C8.79998 56.8 4.99998 61.3 4.99998 61.3C4.99998 61.3 3.29998 61.7 2.69998 60.4C3.29998 59.5 3.79998 59 5.09998 58C8.69998 55.2 15.5 52.1 19.6 49.7C23.2 33.6 27.2 28.7 27.2 28.7C27.2 28.7 27.7 29 28.3 30.2C39.7 12.6 42.3 3.4 42.3 3.4C42.3 3.4 44.5 8.1 45.8 10.5C46.4 11.7 46.4 12.7 46.1 13.5C45.5 15.4 42.3 20.1 41.2 22C41.2 22 46.5 16.4 47.7 16C48.3 15.8 48.7 16.6 48.8 17.7C49.5 22.3 48.1 23.5 45 26.8C49.2 24.9 49.4 24.9 49.4 29.9C49.4 31.9 49.3 33.4 49.1 34.7C48.8 36.4 48.3 37.8 47.5 38.9C45.5 41.9 40.9 44.3 37.7 45.8C37.6 50.5 46 45.7 50.1 48C47.5 49.1 47.2 49.7 47.2 49.7C47.2 49.7 51.1 49.7 52.8 51.8C49.9 52.4 45.9 52.4 45.9 52.4C45.9 52.4 48.4 54 54.3 55C55.1 57.3 56 58.9 56 58.9C53.6 58.9 49.8 58.5 46.3 57.6Z" fill="#302929"/>
<path fill-rule="evenodd" clip-rule="evenodd" d="M20.9004 50.7C22.1004 45.3 24.2004 36.5 27.2004 31.7C27.5004 33.7 27.9004 34.2 27.9004 34.2C27.9004 34.2 39.0004 16.1 42.4004 6.8C43.4004 9 44.5004 11.2 44.5004 12.3C44.5004 14.4 42.0004 18 38.9004 23.5C37.7004 25.5 36.9004 27.2 37.0004 27.7C40.2004 24.8 47.5004 18.2 47.5004 18.2C47.5004 18.2 47.7004 19.8 47.4004 21.2C47.0004 23.2 42.6004 28.2 41.3004 30.1C41.3004 30.1 46.6004 27.5 47.4004 27.5C47.6004 27.5 47.7004 28 47.8004 28.9C48.8004 37.5 45.3004 41.2 36.8004 45.3C36.5004 46.1 36.2004 46.8 36.1004 47.5L20.9004 50.7Z" fill="url(#paint0_linear_379_11684)"/>
<path opacity="0.5" fill-rule="evenodd" clip-rule="evenodd" d="M42.5 6.9C39 16.1 27.9 34.2 27.9 34.2C27.9 34.2 27.5 33.7 27.2 31.7C24.2 36.5 22.1 45.3 20.9 50.7H21C20.6 52.3 20.3 53.6 20.1 54.5C19.7 54.6 19.4 54.7 19 54.7L22.3 55.7C22.3 55.7 24.9 46.3 26.5 41.9C28.2 37.5 37.5 21.9 40.7 15.9C43.8 10.2 42.6 7.2 42.5 6.9Z" fill="#302929"/>
<path opacity="0.5" fill-rule="evenodd" clip-rule="evenodd" d="M47.4998 18.2C47.4998 18.2 40.1998 24.8 36.9998 27.7C27.6998 37.5 22.2998 50.4 22.2998 50.4C22.2998 50.4 23.7998 54 26.2998 53.3C30.6998 37 42.6998 25.1 44.7998 23.1C46.8998 21.1 47.4998 18.2 47.4998 18.2Z" fill="#302929"/>
<path opacity="0.5" fill-rule="evenodd" clip-rule="evenodd" d="M39.0998 38.8C46.7998 33.2 47.3998 27.5 47.3998 27.5C46.5998 27.5 41.2998 30.1 41.2998 30.1C30.7998 40 26.5998 52.2 26.5998 52.2L25.2998 56.8C25.3998 56.8 31.3998 44.4 39.0998 38.8Z" fill="#302929"/>
<defs>
<linearGradient id="paint0_linear_379_11684" x1="34.2906" y1="30.6026" x2="34.5662" y2="45.7612" gradientUnits="userSpaceOnUse">
<stop stop-color="#E5354A"/>
<stop offset="1" stop-color="#302929"/>
</linearGradient>
</defs>
</svg>
