<svg width="78" height="110" viewBox="0 0 78 110" fill="none" xmlns="http://www.w3.org/2000/svg">
<g filter="url(#filter0_d_7036_112)">
<path d="M39 10.0737C23.019 10.0737 10 23.1215 10 39.1378C10 40.3783 10.0884 41.5967 10.2431 42.7043C12.564 64.746 35.4634 87.9618 36.436 88.9365C37.1212 89.6233 38.0495 89.9999 39 89.9999C39.9725 89.9999 40.8788 89.6233 41.564 88.9365C42.5366 87.9618 65.4359 64.746 67.7568 42.7708C67.9116 41.5746 68 40.3562 68 39.1378C68.0221 23.1215 55.003 10.0737 39 10.0737Z" fill="white"/>
</g>
<path fill-rule="evenodd" clip-rule="evenodd" d="M22.9972 48.6513C22.7954 48.7712 22.5936 48.8911 22.4726 48.9711C22.3919 49.051 22.3111 49.091 22.3111 49.131C22.2304 49.3308 22.3111 49.7305 22.3111 49.7305L22.4726 50.6099C22.5129 50.8097 22.3515 51.0495 22.1497 51.0495C22.1094 51.0495 22.0287 51.0495 21.9883 51.0495L21.1005 50.8897H21.0601C20.9794 50.8497 20.6969 50.7697 20.4145 50.6099C19.5266 50.1302 18.2756 48.8911 19.8091 45.9733L19.7688 45.8934C19.6881 45.7735 19.6074 45.6536 19.5266 45.4937L19.4459 45.2938C19.4056 45.1739 19.4056 45.094 19.4459 45.014L19.5266 44.8142C19.8495 43.9748 20.6969 43.1354 21.8269 42.2961C22.7954 41.5766 24.0464 40.8172 25.3378 40.0977L23.7236 38.1791C23.6832 38.1392 23.6832 38.1392 23.6429 38.0992C22.9972 37.1 23.0375 36.1806 23.4411 35.3413C23.8043 34.5419 24.4903 33.8624 25.136 33.3028C25.2974 33.1429 25.5395 33.1829 25.701 33.3428C25.7413 33.3827 25.7817 33.4227 25.7817 33.5026L26.0642 34.2221C26.9116 33.4227 28.0819 32.1836 29.2118 30.7047C30.0593 29.5856 30.8664 28.3465 31.4314 27.1074C31.7542 26.308 32.0367 25.5886 32.2385 24.9091C32.4806 24.1097 32.6017 23.3902 32.6824 22.7507C32.9245 21.032 32.7227 20.2326 32.3999 18.8736C32.3595 18.6737 32.3192 18.4739 32.2385 18.1141C32.1981 17.9143 32.3192 17.6745 32.5613 17.6345C32.7227 17.5945 32.8841 17.6745 32.9649 17.7944L33.3281 18.234C34.4983 19.593 35.1037 20.2725 35.8301 22.271C36.0318 22.8306 36.2336 23.4701 36.3547 24.0697L36.395 24.2296C36.9196 23.1903 37.5653 21.8314 38.2514 20.6323C38.9778 19.3132 39.6638 18.1941 40.148 17.7544C40.3095 17.5945 40.5516 17.5945 40.713 17.7944C40.7937 17.9143 40.8341 18.0342 40.7937 18.1541C40.7937 18.1541 40.6727 18.7537 40.592 19.4731C47.8962 7.88178 49.5911 1.88626 49.6315 1.80631L50.0754 0.287449C50.1561 0.0875986 50.3579 -0.0323118 50.5596 0.00765835C50.6807 0.0476285 50.7614 0.127569 50.8018 0.247479L51.4878 1.6864C51.5282 1.76634 53.1424 5.24375 54.0705 6.92249C54.353 7.40214 54.4741 7.88178 54.5548 8.32145C54.6355 8.88103 54.5548 9.36067 54.4337 9.76037C54.353 10.0801 54.1916 10.4399 53.9495 10.8396C54.1109 10.7596 54.2319 10.6797 54.3126 10.6397C54.353 10.6397 54.4337 10.5997 54.4741 10.5997C54.5144 10.5997 54.5951 10.5997 54.6758 10.5598C55.039 10.5598 55.3215 10.6397 55.5637 10.8396C55.8058 11.0394 56.0076 11.2792 56.1286 11.639C56.2093 11.8388 56.29 12.0387 56.3304 12.2385C56.4111 12.4783 56.4515 12.7182 56.4918 12.998C56.6936 14.277 56.6936 15.2763 56.4515 16.1556C56.3304 16.6752 56.0883 17.1149 55.8058 17.5945C55.9268 17.5546 56.0479 17.5546 56.1286 17.5146C56.3304 17.4746 56.5725 17.5945 56.6129 17.8343C56.9357 19.0334 57.0164 20.992 56.9357 22.9106C56.855 24.9091 56.5725 26.8276 56.1286 27.8669C55.9672 28.1866 55.8461 28.5064 55.6847 28.7462C55.5233 28.986 55.3619 29.1859 55.2005 29.3857C54.918 29.7854 54.5144 30.305 54.0705 30.7847C53.7073 31.1844 53.2634 31.5441 52.8195 31.8639C52.1738 32.3035 51.3667 32.7032 50.6 33.1029C49.5508 33.6226 48.6226 34.1022 48.4612 34.422C48.4208 34.4619 48.4208 34.5419 48.4208 34.5818C48.4208 34.6218 48.4208 34.6618 48.4612 34.6618C48.663 34.7017 48.9051 34.7417 49.2279 34.7417C49.6315 34.7417 50.1157 34.7417 50.7211 34.6218C51.4878 34.5019 52.1738 34.422 52.8195 34.382C53.4248 34.342 53.9898 34.342 54.5144 34.342C55.039 34.382 55.5233 34.422 55.9268 34.5019C56.3708 34.6218 56.7339 34.7417 57.0568 34.9016L58.1464 35.5011C58.3481 35.6211 58.4289 35.8609 58.3078 36.0607C58.2674 36.1407 58.1867 36.2206 58.106 36.2206L57.2586 36.5803C57.541 36.6603 57.8235 36.7802 58.106 36.9401C58.6306 37.2199 59.1149 37.5796 59.5184 38.0592L60.1641 38.8187C60.2852 38.9786 60.2852 39.2583 60.1238 39.3783C60.0834 39.4182 60.0027 39.4582 59.922 39.4582L58.9535 39.658C58.7517 39.698 58.5096 39.738 58.2674 39.778C58.8324 39.8979 59.4377 40.0178 60.0834 40.1377L60.4063 40.1777C60.5677 40.2176 60.6484 40.2976 60.7291 40.4175L60.8502 40.7372C61.0519 41.2169 61.2537 41.6965 61.4151 42.0962C61.7783 42.8557 62.0608 43.3753 62.1012 43.4152L62.6258 44.2946C62.7468 44.4944 62.6661 44.7343 62.4644 44.8542C62.3836 44.8941 62.3029 44.8941 62.2222 44.8941H61.2134H61.173C61.0116 44.8941 60.4063 44.8941 59.5588 44.8142V44.8941C59.5588 45.054 59.5588 45.2539 59.5992 45.4937C59.5992 45.6935 59.4377 45.8934 59.1956 45.8934C59.1149 45.8934 58.9938 45.8534 58.9535 45.8134C58.5903 45.5337 57.985 45.2539 57.2586 44.9741C56.5322 44.6943 55.7251 44.4545 54.9987 44.2146C54.1109 44.0548 53.2231 43.8149 52.3353 43.5351C51.4474 43.2554 50.6 42.9356 49.7525 42.5359C48.6629 42.2961 47.6944 42.4959 46.8066 42.9756C45.8381 43.4552 44.9503 44.2146 44.0625 45.054C43.094 45.9334 42.529 46.8127 42.3272 47.6121C42.1254 48.3715 42.2869 49.131 42.8115 49.8904C42.9325 50.0503 42.8922 50.2501 42.7711 50.41C42.6097 50.5699 42.529 50.8097 42.4886 51.0495C42.4079 51.3293 42.4079 51.6491 42.4079 51.9688C42.4483 52.3685 42.4886 52.6084 42.529 52.8482C42.5693 53.2079 42.6501 53.5677 42.6501 53.6476C42.7308 53.8874 42.7711 54.0473 42.7711 54.0473C42.8115 54.2072 42.7711 54.3271 42.6501 54.447L40.9148 56.3256C40.7937 56.4455 40.6323 56.4855 40.4709 56.4455L40.027 56.3256L37.9689 57.8445C37.8075 57.9644 37.525 57.9244 37.4039 57.7645C37.3636 57.6846 37.3232 57.6046 37.3232 57.4847L37.3636 56.2457C37.3636 56.2457 37.4039 55.5262 36.6372 55.2864L36.5161 55.3663L36.3547 55.4862C36.3547 55.5662 36.3143 55.6461 36.274 55.726C36.2336 55.846 36.1529 56.0058 36.1125 56.1257C36.0318 56.2856 35.9108 56.4455 35.7494 56.5654C35.6283 56.6853 35.4669 56.8052 35.2651 56.8852C35.1844 56.9251 35.1037 56.9651 35.023 57.0051L34.9019 57.0451C34.7808 57.2449 34.6598 57.4048 34.5791 57.5647C34.4983 57.7245 34.4176 57.8445 34.3773 57.9644C35.3458 59.0436 35.3458 59.763 34.7808 60.2826C34.0948 60.9621 32.3999 61.0421 31.2296 61.122H30.9875C30.7857 61.122 30.5839 60.9621 30.5436 60.7623C30.5436 60.6424 30.5839 60.5624 30.6243 60.4825C30.6646 60.4425 30.705 60.4026 30.7453 60.3226V60.2826C30.9471 60.0428 31.3507 59.6031 31.5121 59.2834C31.2699 59.3234 30.9875 59.4832 30.705 59.6831C30.2611 60.0028 29.8575 60.4425 29.7365 60.8023L29.5347 61.4018C29.454 61.6017 29.2522 61.7216 29.0504 61.6816L28.8487 61.6017C28.5258 61.5217 28.203 61.4018 27.9205 61.2419C27.8398 61.3618 27.7187 61.4418 27.5573 61.4418C27.4766 61.4418 27.4362 61.4018 27.3959 61.4018C26.2256 60.8023 24.9746 60.2027 25.5799 58.484C25.6606 58.2841 25.7413 58.0843 25.8624 57.9244C25.9834 57.7645 26.1449 57.6046 26.3063 57.4448C26.6291 57.165 27.073 56.9651 27.5976 56.8452C28.0416 56.7253 28.6065 56.6853 29.2118 56.7253H29.3733L28.5662 55.9259C28.4047 55.766 28.2433 55.5662 28.1223 55.3663C28.0012 55.1665 27.9205 54.9666 27.8398 54.7268C27.7994 54.5269 27.7591 54.2871 27.7591 54.0873C27.7591 53.8874 27.8398 53.6876 27.9205 53.4877C28.0012 53.2879 28.1626 53.088 28.324 52.9281C28.4855 52.7683 28.6872 52.6483 28.9294 52.5284C29.2118 52.4085 29.575 52.2886 30.0189 52.2486C30.4225 52.2087 30.8664 52.2087 31.391 52.2087C32.077 52.2486 32.642 52.2886 33.0859 52.2886C33.6105 52.3286 33.9737 52.3286 34.2159 52.3286C34.3773 52.2486 34.5791 52.1687 34.7808 52.0488C34.9423 51.9688 35.0633 51.8889 35.1844 51.8489L35.2651 51.809C35.2651 51.4492 35.1844 50.7298 35.1037 50.0103C35.023 49.3308 34.9423 48.7712 34.9423 48.6913V48.6513C34.4983 47.8919 32.1981 47.6121 29.6558 47.692C27.073 47.772 24.3289 48.1717 23.1182 48.7712C23.0779 48.6114 23.0375 48.6114 22.9972 48.6513ZM30.0997 56.4455H30.3014L30.14 56.2856V56.3256C30.14 56.3656 30.14 56.4055 30.0997 56.4455ZM31.1489 56.2856L31.27 56.2457C31.5928 55.9659 32.0367 55.6061 32.3999 55.2864C32.6017 55.1265 32.7631 54.9666 32.8841 54.8467L32.8438 54.8067C32.2788 54.9666 31.391 55.9659 31.391 55.9659C31.3103 56.0858 31.2296 56.2057 31.1489 56.2856Z" fill="#C02235"/>
<path fill-rule="evenodd" clip-rule="evenodd" d="M22.1495 45.6935C22.1495 45.6935 25.0147 42.296 33.6103 40.4973C34.3367 37.7394 36.1526 27.9867 39.0985 23.2702C39.3407 24.7891 39.6635 25.1888 39.6635 25.1888C39.6635 25.1888 48.0574 11.479 50.6804 4.48425C53.5456 10.6397 51.2454 11.3991 48.017 17.0748C47.1292 18.5937 46.4835 19.8728 46.5642 20.2325C48.9855 18.0741 54.5949 13.0778 54.5949 13.0778C54.5949 13.0778 54.7563 14.3169 54.5545 15.3561C54.272 16.835 50.8822 20.6722 49.8733 22.0711C49.8733 22.0711 53.9492 20.1126 54.5141 20.0726C55.0791 20.0326 55.3616 26.8276 53.6667 29.3856C54.8773 28.5063 56.0073 27.4671 56.0476 22.0311C56.0476 18.234 55.8862 18.234 52.6982 19.6729C55.0388 17.1548 56.088 16.2754 55.5634 12.798C55.4423 11.9986 55.1598 11.3591 54.7159 11.519C53.8281 11.8388 49.7523 16.0356 49.7523 16.0356C50.5997 14.5567 52.9807 10.9994 53.4649 9.60043C53.6667 9.04085 53.707 8.24145 53.2228 7.3621C52.2139 5.56345 50.5594 2.0061 50.5594 2.0061C50.5594 2.0061 48.582 8.96091 39.9056 22.231C39.4617 21.3117 39.0985 21.0719 39.0985 21.0719C39.0985 21.0719 36.0719 24.8291 33.2874 36.98C29.2116 39.3382 21.5038 42.6557 20.4949 45.1339C20.7774 45.9333 22.1495 45.6935 22.1495 45.6935ZM31.8347 57.1649C31.8347 57.1649 32.7628 56.6853 33.0049 56.6853C33.2471 56.6453 33.0453 58.0043 33.0453 58.0043C33.0453 58.0043 35.1841 59.723 32.1575 59.9228C32.6821 59.2833 32.7225 58.4439 31.9154 58.2041C31.1486 57.9643 29.1712 58.9236 28.7273 60.3625C27.436 59.9228 28.1623 58.7237 28.9694 58.2841C27.7992 58.324 27.0324 59.3233 26.9921 59.9228C25.8621 59.3633 26.2253 57.2848 29.1309 57.4847C30.8258 57.4847 31.8347 57.1649 31.8347 57.1649ZM30.7854 53.6475C30.7854 53.6475 29.2923 53.8074 29.2116 54.9665C28.4448 54.2471 28.2431 52.7682 31.3504 52.968C34.4577 53.1679 34.9823 53.1279 34.9823 53.1279C34.9823 53.1279 36.8387 51.689 36.9194 51.3692C37.0001 51.0495 35.9912 48.2516 35.9912 48.2516C35.9912 48.2516 38.4529 50.9695 38.3318 51.3692C38.2107 51.7689 36.5965 53.2478 36.5965 53.2478C36.5965 53.2478 38.6143 53.2878 38.8161 54.367C39.6232 53.5676 40.2688 53.048 40.2688 53.048C40.2688 53.048 39.8653 49.4906 40.8338 48.0917C40.8742 49.9303 41.5198 53.8074 41.5198 53.8074L38.2511 56.1656C38.2511 56.1656 38.4125 53.6076 35.0631 54.1272C35.4262 54.8866 35.507 56.0857 33.4892 56.0457C33.691 55.2463 34.377 54.6867 34.377 54.6867C34.377 54.6867 33.9331 53.7674 32.9242 53.8474C31.9154 53.8873 30.6644 55.3662 30.6644 55.3662C30.6644 55.3662 29.6958 54.4869 30.7854 53.6475ZM31.0679 43.3352C31.0679 43.3352 28.6466 43.695 28.2431 44.0547C31.31 43.7349 32.7225 45.2538 32.7225 45.2538C32.7225 45.2538 29.0502 44.6143 27.6377 45.4936C29.7362 45.6535 30.059 46.4929 30.059 46.4929C30.059 46.4929 27.4763 46.293 25.6603 46.8126C25.1761 45.8933 24.2076 45.5736 24.2076 45.5736V45.0539C24.2076 45.0539 25.9832 43.695 27.6377 43.2553C29.2923 42.7756 31.0679 43.3352 31.0679 43.3352ZM20.7774 46.293C19.0421 49.4107 21.302 49.8903 21.302 49.8903C21.302 49.8903 21.1809 49.1709 21.3827 48.6912C21.6248 48.2116 22.7144 47.4522 24.5304 46.9325C24.2479 46.4929 23.804 45.9733 22.6741 46.293C21.9477 46.6927 20.7774 46.293 20.7774 46.293ZM46.9678 34.9015C46.9678 34.9015 47.8152 35.9408 50.8015 35.5011C53.7878 35.0614 55.4827 35.1413 56.4915 35.7009C54.4738 36.5403 54.3124 37.0199 54.3124 37.0199C54.3124 37.0199 57.2986 37.0199 58.59 38.6188C56.3705 39.0584 53.3439 39.0584 53.3439 39.0584C53.3439 39.0584 55.2809 40.2575 59.7603 41.0569C60.3656 42.6158 61.092 43.8548 61.092 43.8548C61.092 43.8548 53.9895 43.8548 49.3891 41.2568C46.9678 39.7379 46.5642 37.2997 46.9678 34.9015ZM33.691 20.1925C33.691 20.1925 35.8298 23.59 35.3052 25.5885C34.8209 27.587 32.1575 30.9045 32.1575 30.9045L34.4174 29.5056C34.4174 29.5056 34.377 31.9437 30.4222 35.1014C32.8435 33.9422 33.0857 33.7824 33.0857 33.7824C33.0857 33.7824 32.8032 36.1406 31.5925 36.7402C30.3819 37.3397 26.3464 39.6979 26.3464 39.6979L24.5304 37.5396C24.5304 37.5396 23.5215 36.1006 25.1761 34.5818C25.3779 35.1413 25.7007 35.9008 25.7007 35.9008C25.7007 35.9008 30.5029 31.7439 32.3593 27.4671C34.2156 23.1503 33.691 20.1925 33.691 20.1925Z" fill="white"/>
<defs>
<filter id="filter0_d_7036_112" x="0" y="10.0737" width="78" height="99.9261" filterUnits="userSpaceOnUse" color-interpolation-filters="sRGB">
<feFlood flood-opacity="0" result="BackgroundImageFix"/>
<feColorMatrix in="SourceAlpha" type="matrix" values="0 0 0 0 0 0 0 0 0 0 0 0 0 0 0 0 0 0 127 0" result="hardAlpha"/>
<feOffset dy="10"/>
<feGaussianBlur stdDeviation="5"/>
<feComposite in2="hardAlpha" operator="out"/>
<feColorMatrix type="matrix" values="0 0 0 0 0 0 0 0 0 0 0 0 0 0 0 0 0 0 0.15 0"/>
<feBlend mode="normal" in2="BackgroundImageFix" result="effect1_dropShadow_7036_112"/>
<feBlend mode="normal" in="SourceGraphic" in2="effect1_dropShadow_7036_112" result="shape"/>
</filter>
</defs>
</svg>
