<?xml version="1.0" standalone="no"?>
<!DOCTYPE svg PUBLIC "-//W3C//DTD SVG 20010904//EN"
 "http://www.w3.org/TR/2001/REC-SVG-20010904/DTD/svg10.dtd">
<svg version="1.0" xmlns="http://www.w3.org/2000/svg"
 width="215.000000pt" height="215.000000pt" viewBox="0 0 215.000000 215.000000"
 preserveAspectRatio="xMidYMid meet">

<g transform="translate(0.000000,215.000000) scale(0.100000,-0.100000)"
fill="#000000" stroke="none">
<path d="M900 1965 c-138 -28 -256 -81 -368 -164 -166 -124 -279 -292 -338
-507 -21 -79 -30 -286 -15 -366 69 -367 319 -638 676 -734 81 -21 287 -30 367
-15 392 74 675 357 749 749 15 80 6 285 -16 372 -23 91 -115 273 -175 347
-127 157 -321 273 -533 318 -83 18 -259 18 -347 0z m370 -121 c119 -30 320
-141 320 -177 0 -17 -284 -299 -293 -291 -4 4 -7 18 -7 30 0 48 -20 54 -179
54 -164 0 -165 0 -175 -65 l-7 -40 -139 0 c-92 0 -143 -4 -151 -12 -6 -6 -14
-32 -16 -57 l-6 -46 175 0 c151 0 181 3 233 21 44 15 73 20 109 15 27 -3 51
-8 54 -11 3 -3 -5 -16 -17 -29 -15 -16 -39 -27 -72 -31 -97 -14 -166 -84 -177
-182 -3 -31 -12 -49 -30 -64 -24 -18 -26 -18 -35 -3 -19 34 0 137 41 217 2 4
-58 6 -135 5 l-138 -3 -3 -245 -2 -246 -64 -63 c-44 -43 -69 -62 -80 -58 -9 4
-38 40 -65 82 -134 205 -165 453 -86 686 94 277 338 482 630 530 71 11 238 3
315 -17z m472 -342 c87 -131 122 -257 122 -432 0 -145 -15 -213 -75 -337 -100
-209 -303 -375 -526 -430 -104 -26 -286 -23 -393 5 -78 21 -217 86 -248 116
-11 10 9 35 106 134 l118 122 365 0 c271 0 368 3 377 12 9 9 12 78 12 250 l0
237 -122 3 -123 3 27 28 c26 26 32 27 123 27 l96 0 -3 47 c-3 41 -7 50 -31 61
l-28 13 47 52 c58 65 117 124 125 126 4 0 18 -16 31 -37z m-386 -393 c33 -90
5 -215 -62 -283 -80 -79 -231 -100 -309 -42 -20 15 -20 15 2 37 20 20 26 21
61 11 157 -47 288 75 247 231 -12 45 -11 51 7 69 25 25 39 20 54 -23z"/>
<path d="M687 1423 c-4 -3 -7 -12 -7 -20 0 -19 96 -18 103 1 3 8 3 17 0 20 -9
8 -88 8 -96 -1z"/>
</g>
</svg>
