<svg width="115" height="25" viewBox="0 0 115 25" fill="none" xmlns="http://www.w3.org/2000/svg">
<path fill-rule="evenodd" clip-rule="evenodd" d="M13.8101 0.071345C6.94074 -0.660447 0.803137 4.32046 0.071345 11.1899C-0.660447 18.0593 4.32046 24.1969 11.1899 24.9287C18.0593 25.6604 24.1969 20.6795 24.9287 13.8101C25.0231 12.9603 25.0231 12.0869 24.9287 11.2371C24.3385 5.33552 19.6881 0.685106 13.8101 0.071345ZM13.4088 19.1215C9.74988 19.6173 6.3978 17.0442 5.90207 13.3852C5.40634 9.72627 7.97942 6.3978 11.6384 5.90207C15.2973 5.40634 18.6494 7.97942 19.1215 11.6148C19.1924 12.2049 19.1924 12.7951 19.1215 13.3616C18.7438 16.3596 16.3832 18.7202 13.4088 19.1215ZM31.6328 0.567075C30.0276 0.567075 28.7293 1.88902 28.7293 3.49424C28.7293 3.68309 28.7529 3.89555 28.8001 4.0844C29.0833 5.45355 30.3581 6.3978 31.7508 6.3978H39.8714L27.2421 23.111C26.9588 23.4887 27.0296 24.008 27.4073 24.2677C27.5489 24.3857 27.7378 24.4329 27.903 24.4329H47.685C49.0778 24.4329 50.3761 23.4887 50.6358 22.1195C50.9663 20.5379 49.9512 19.0035 48.3932 18.673C48.2044 18.6258 47.9919 18.6022 47.803 18.6022H37.9121L50.5414 1.91263C50.8246 1.53493 50.7538 1.01559 50.3761 0.732318C50.2345 0.614287 50.0456 0.567075 49.8804 0.567075H31.6328ZM110.784 0.637893C109.439 0.96838 108.495 2.1723 108.518 3.56506V13.2672L92.7728 0.755924C92.4187 0.47265 91.8758 0.519862 91.5925 0.897561C91.4745 1.0392 91.4037 1.22805 91.4037 1.4169V21.4585C91.3801 22.8513 92.3243 24.0552 93.6699 24.3857C95.2515 24.7398 96.7859 23.7483 97.14 22.1667C97.1872 21.9543 97.2108 21.7418 97.2108 21.5294V11.7328L112.956 24.2441C113.31 24.5273 113.853 24.4801 114.136 24.1024C114.254 23.9608 114.325 23.772 114.325 23.5831V3.47064C114.325 1.86541 113.027 0.567075 111.422 0.543469C111.209 0.567075 110.997 0.590681 110.784 0.637893ZM69.804 5.83125C76.461 5.83125 81.4419 9.34858 81.4419 12.4882C81.4419 15.6278 76.461 19.1451 69.804 19.1451C63.1471 19.1451 58.1898 15.6514 58.1898 12.5118C58.1898 9.37218 63.1471 5.83125 69.804 5.83125ZM69.804 0.000526467C60.1727 0.000526467 52.359 5.59519 52.359 12.4882C52.359 19.3812 60.1727 24.9759 69.804 24.9759C79.4353 24.9759 87.249 19.3812 87.249 12.4882C87.249 5.59519 79.4589 0.000526467 69.804 0.000526467Z" fill="white"/>
</svg>
