<svg width="81" height="21" viewBox="0 0 81 21" fill="none" xmlns="http://www.w3.org/2000/svg">
<path fill-rule="evenodd" clip-rule="evenodd" d="M81 0.498447C81 0.498447 79.5046 0.311523 77.6977 0.311523C75.9531 0.311523 74.52 0.498447 74.52 0.498447V6.16846H81V0.498447Z" fill="#E4003E"/>
<path fill-rule="evenodd" clip-rule="evenodd" d="M81 13.8324H74.52V19.5647C74.52 19.5647 76.3269 19.7516 77.8223 19.7516C79.2554 19.7516 81 19.5024 81 19.5024V13.8324Z" fill="#E4003E"/>
<path fill-rule="evenodd" clip-rule="evenodd" d="M70.6584 0.498413H62.683L57.1376 7.41459H54.5207V0.498413H47.6045V19.6269H54.5207V12.3992H57.013L62.6207 19.5646H71.1569L62.8076 9.40844L70.6584 0.498413Z" fill="#242265"/>
<path fill-rule="evenodd" clip-rule="evenodd" d="M21.7455 0.498413H0V19.6269H6.97848V5.9192H14.767V19.6269H21.7455V0.498413Z" fill="#242265"/>
<path fill-rule="evenodd" clip-rule="evenodd" d="M25.1722 5.5454L24.1753 0.498463C24.1753 0.498463 30.7176 0 34.7676 0C38.8176 0 43.74 0.498463 43.74 0.498463C43.74 0.498463 45.2354 4.36155 45.2354 9.84465C45.2354 15.3277 43.6777 19.627 43.6777 19.627C43.6777 19.627 39.0046 20.1254 34.7053 20.1254C30.4061 20.1254 24.1753 19.627 24.1753 19.627L25.1722 14.58C25.1722 14.58 29.5338 14.8916 33.2722 14.8916C37.0107 14.8916 38.4438 14.58 38.4438 14.58C38.4438 14.58 38.6307 13.6454 38.693 12.5239H29.783V7.66387H38.7553C38.693 6.41771 38.5061 5.60771 38.5061 5.60771C38.5061 5.60771 35.453 5.29617 32.8361 5.29617C30.2192 5.23386 25.1722 5.5454 25.1722 5.5454Z" fill="#242265"/>
</svg>
