<svg width="55" height="35" viewBox="0 0 55 35" fill="none" xmlns="http://www.w3.org/2000/svg">
<path d="M0 20.7213V34.566H2.2846V30.5451C2.74152 30.9334 3.22128 31.1619 3.74674 31.1619C4.50066 31.1619 5.1175 30.7735 5.59726 29.9739C6.14557 29.0829 6.41972 27.7807 6.41972 26.0901C6.41972 24.9021 6.19126 23.8284 5.78003 22.9145L5.71149 22.7546L5.64295 22.6175L5.59726 22.5033L5.52872 22.4119L5.46019 22.2977L5.32311 22.1606L5.25457 22.0464L5.18603 21.955L5.09465 21.8636L5.02611 21.7722L4.93473 21.6808L4.84334 21.6123L4.70627 21.4752L4.43212 21.2696L4.31789 21.2239L4.2265 21.1554L4.13512 21.1097L3.6782 20.9269L3.33551 20.8584L3.19844 20.8127H3.08421L2.94713 20.7898H2.8329L2.67298 20.767H2.5359L0 20.7213ZM2.14752 22.6861H2.37598C2.94713 22.6861 3.40405 23.0287 3.72389 23.6456C4.04374 24.2853 4.20366 25.2677 4.20366 26.6156C4.20366 27.3466 4.11227 27.9406 3.90666 28.329C3.70105 28.7174 3.44974 28.923 3.15274 28.923C2.87859 28.923 2.65013 28.7402 2.46736 28.3747C2.2846 28.032 2.17037 27.5294 2.17037 26.8669V22.6861H2.14752Z" fill="#1937FF"/>
<path d="M53.7103 20.0359L53.5275 20.2187C53.5275 20.2187 48.7527 25.1991 48.3872 25.5875V20.6985H46.1483V34.566H48.3872V28.8773C48.4557 28.8088 51.3115 25.7703 51.6313 25.4276C51.6542 25.9302 51.9512 34.566 51.9512 34.566H54.2358L53.7103 20.0359Z" fill="#1937FF"/>
<path d="M42.8133 20.2416L41.8767 21.1782L41.6939 21.3839L41.4883 21.5895L41.2827 21.8179L40.5973 22.5033L40.3688 22.7546L39.9119 23.2344L39.2265 23.9198L39.0209 24.1482L38.8153 24.3538L38.6325 24.5594L38.3584 24.8336L38.2898 24.925L37.7415 25.4733L37.7187 25.519L37.673 25.5647V20.7213H35.4341V34.5888H37.673V28.9002C37.7415 28.8316 40.5973 25.7931 40.9171 25.4504C40.94 25.953 41.237 34.5888 41.237 34.5888H43.4987L42.9504 20.0588L42.8133 20.2416Z" fill="#1937FF"/>
<path d="M29.8366 31.139L29.6995 30.9791L29.5853 30.8192L29.4711 30.6364L29.3797 30.4537L29.1055 29.8368L29.037 29.6312L28.8999 29.1743L28.8085 28.7174L28.7628 28.2147V27.7121C28.7628 26.25 29.1284 25.0849 29.8137 24.2395C30.5677 23.3029 31.6871 22.8459 33.1493 22.8459H33.2635V20.3786H33.1493C30.8875 20.3786 29.1512 21.064 27.9632 22.4804C26.8895 23.7369 26.3412 25.4961 26.3412 27.6893C26.3412 29.814 26.9352 31.5731 28.1003 32.8982C29.334 34.2918 31.0246 35 33.1721 35H33.2863V32.5783H33.1264C31.7328 32.5783 30.6134 32.0986 29.8366 31.139Z" fill="#1937FF"/>
<path d="M11.8796 20.3786C10.6687 20.3786 9.73206 21.064 9.02384 22.389C8.33846 23.6912 7.99577 25.4504 7.99577 27.5751C7.99577 29.7683 8.31561 31.5503 8.9553 32.8525C9.61783 34.1775 10.5774 34.8629 11.8567 34.8629C13.159 34.8629 14.187 34.1547 14.9181 32.7611C15.6035 31.4589 15.9462 29.6997 15.9462 27.5522C15.9462 25.4275 15.6035 23.6912 14.8953 22.389L14.7582 22.1606L14.7125 22.0463L14.6211 21.9093L14.5754 21.8179L14.4612 21.7036L14.2556 21.4295L14.0728 21.2467L13.9814 21.1782L13.9129 21.1097L13.7986 21.0183L13.6159 20.8812L13.159 20.6527L13.0219 20.5613L12.9305 20.5385L12.7934 20.4928L12.702 20.47L12.565 20.4471L12.4736 20.4243H12.3822L12.1537 20.3786H11.8796ZM11.8796 22.5946C12.5193 22.5946 12.9762 23.0516 13.2732 23.9654C13.5473 24.7879 13.6616 25.9987 13.6616 27.5294C13.6616 29.0372 13.5245 30.2709 13.2047 31.2304L13.159 31.3218L13.0676 31.596L13.0219 31.6645L12.999 31.733L12.9533 31.7787L12.9305 31.8473L12.8848 31.8929L12.862 31.9615L12.8391 32.0072L12.7477 32.0986L12.7249 32.1443L12.6792 32.1671L12.6563 32.2128L12.6107 32.2585L12.565 32.2813L12.5193 32.327L12.4279 32.3727L12.405 32.3956L12.3593 32.4184H12.3137L12.2223 32.4641H12.108L12.0624 32.4869H11.8796C11.3313 32.4869 10.9201 32.03 10.6231 31.0933C10.3032 30.1338 10.1433 28.9001 10.1433 27.438C10.1433 25.953 10.3032 24.7422 10.6231 23.8055C10.8972 23.0516 11.3313 22.5946 11.8796 22.5946Z" fill="#1937FF"/>
<path d="M21.2234 31.139L21.1549 31.0705L21.0863 30.9791L20.9493 30.8192L20.7208 30.4537L20.538 30.0424L20.401 29.6312L20.2639 29.1743L20.1725 28.7174L20.104 27.9634V27.7121C20.104 26.25 20.4467 25.0849 21.1549 24.2395C21.9088 23.3029 23.0283 22.8459 24.4676 22.8459H24.5818V20.3786H24.4676C22.2058 20.3786 20.4695 21.064 19.3044 22.4804C18.2306 23.7369 17.6823 25.4961 17.6823 27.6893C17.6823 29.814 18.2763 31.5731 19.4414 32.8982C20.6523 34.2918 22.3657 35 24.5132 35H24.6275V32.5783H24.5132C23.1196 32.5783 22.023 32.0986 21.2234 31.139Z" fill="#1937FF"/>
<path d="M0.0227856 0.365509V14.3015H2.58153V2.67295H5.75712V14.3015H8.33872V0.365509H0.0227856Z" fill="#1937FF"/>
<path d="M16.1977 0C14.827 0 13.7532 0.685379 12.9764 2.03329C12.2225 3.35836 11.8342 5.09465 11.8342 7.24217C11.8342 9.45823 12.1997 11.2631 12.9308 12.5653C13.6847 13.9132 14.7813 14.5757 16.1977 14.5757C17.6599 14.5757 18.8022 13.8675 19.6246 12.4739C20.3785 11.1717 20.7898 9.38969 20.7898 7.24217C20.7898 5.09465 20.3785 3.33551 19.6018 2.03329L19.3962 1.6906L19.3048 1.59922L19.1906 1.4393L19.0992 1.34791L19.0306 1.25653L18.9392 1.1423L18.6879 0.890993L18.4138 0.685379L18.2996 0.616841L18.2082 0.571149L18.0254 0.456919L17.934 0.411227L17.8198 0.342689L17.7284 0.296998L17.5913 0.251306L17.4771 0.205614L17.3629 0.182768L17.2486 0.137076L16.7917 0.0456919H16.5176L16.3577 0H16.1977ZM16.2206 2.35313C16.906 2.35313 17.4086 2.81005 17.7284 3.70105C18.0254 4.5235 18.1853 5.71149 18.1853 7.24217C18.1853 8.72716 18.0026 9.96084 17.6599 10.8975C17.3172 11.8114 16.8603 12.2454 16.2206 12.2454H15.9921L15.9007 12.1997H15.855L15.8093 12.1769L15.7637 12.1312L15.6951 12.1084L15.6037 12.0627L15.558 12.017L15.5124 11.9941L15.4667 11.9484L15.421 11.9256L15.3981 11.8799L15.3067 11.7885L15.2839 11.7428L15.1925 11.6514L15.1468 11.5829L15.124 11.5372L15.0783 11.4915L15.0554 11.423L15.0097 11.3544L14.9869 11.3088L14.964 11.1945L14.9184 11.126L14.8955 11.0574L14.8498 10.9661L14.8041 10.8975C14.4614 9.93799 14.2787 8.70431 14.2787 7.26502C14.2787 5.78003 14.4614 4.59204 14.8041 3.6782C15.1468 2.78721 15.6037 2.35313 16.2206 2.35313Z" fill="#1937FF"/>
<path d="M34.7722 0.365509V2.67295H36.8968V14.3015H39.4784V2.67295H41.6259V0.365509H34.7722Z" fill="#1937FF"/>
<path d="M29.1287 5.20885H27.7351C27.1639 5.20885 26.7298 5.07178 26.4557 4.82047C26.2501 4.6377 26.1587 4.3864 26.1587 4.06656V0.365509H23.5999V4.34071C23.5999 5.25455 23.9655 6.03131 24.6737 6.64815C25.3819 7.26499 26.2501 7.56199 27.2553 7.56199H29.1287V14.3015H31.7103V0.365509H29.1287V5.20885Z" fill="#1937FF"/>
<path d="M44.984 0.365509L44.5042 14.3015H47.063C47.063 14.3015 47.2915 7.79045 47.3143 7.4706H50.5127C50.5356 7.7676 51.2667 14.3015 51.2667 14.3015H53.8483L52.6374 4.11225V3.76956L52.6146 3.65533V3.5411L52.5917 3.44971V3.33548L52.5689 3.2441L52.546 3.12987L52.4546 2.76434L52.409 2.67295L52.3633 2.49018L52.3176 2.3988L52.2719 2.33026L52.2262 2.23888L52.2033 2.17034L52.1576 2.07896L52.0663 1.82765L51.9977 1.75911L51.952 1.66773L51.9063 1.62204L51.8378 1.53065L51.6322 1.32504L51.5637 1.27935L51.518 1.21081L51.4037 1.11943C50.764 0.616815 49.8959 0.365509 48.7764 0.365509H44.984ZM47.4285 2.67295H48.3424C49.0049 2.67295 49.4618 2.87857 49.736 3.28979C49.9644 3.63248 50.1244 4.27217 50.2157 5.18601H47.36V4.79763L47.3828 4.72909V3.72387L47.4057 3.63248V2.90141L47.4285 2.85572V2.67295Z" fill="#1937FF"/>
</svg>
