<svg width="35" height="35" viewBox="0 0 35 35" fill="none" xmlns="http://www.w3.org/2000/svg">
<path d="M1.39139 33.3933C2.45149 32.9957 3.44534 32.6644 4.37293 32.2669C6.36062 31.5381 8.34832 30.8093 10.336 30.0142C10.7998 29.8154 11.2636 29.8154 11.7274 29.9479C15.3715 31.1405 18.9494 32.3332 22.5935 33.4595C22.7922 33.5258 23.1235 33.5258 23.3223 33.4595C26.5026 32.0019 29.6829 30.6105 32.8632 29.1528C33.062 29.0203 33.1945 28.9541 33.1945 28.689C33.1945 22.3284 33.1945 16.0341 33.1945 9.67343C33.1945 9.60717 33.1945 9.47466 33.1945 9.34215C32.9957 9.4084 32.8632 9.47466 32.6645 9.47466C29.6829 10.5348 26.7014 11.5949 23.7861 12.655C23.256 12.8537 22.726 12.8537 22.1959 12.5887C20.8708 11.9924 19.4794 11.3961 18.088 10.7335C17.558 10.4685 17.3592 10.0047 17.6905 9.60717C17.9555 9.27589 18.2868 9.27589 18.6181 9.47466C19.9432 10.071 21.2683 10.6673 22.5935 11.2636C22.8585 11.3961 23.1235 11.3961 23.4548 11.2636C26.5026 10.2035 29.5504 9.07712 32.5982 8.01702C33.5258 7.68573 34.3871 8.08327 34.5859 8.94461C34.6522 9.14338 34.6522 9.27589 34.6522 9.47466C34.6522 15.9015 34.6522 22.3284 34.6522 28.7553C34.6522 29.5504 34.3209 30.0804 33.592 30.3455C30.2792 31.8031 26.9664 33.327 23.6536 34.8509C23.1898 35.0497 22.726 35.0497 22.2622 34.8509C18.6843 33.6583 15.0402 32.5319 11.4624 31.3393C11.2636 31.2731 10.9323 31.2731 10.7336 31.3393C7.88452 32.3994 4.96924 33.4595 2.12021 34.5196C0.861335 35.0497 0 34.4534 0 33.1282C0 27.9602 0 22.7922 0 17.6242C0 17.4917 0 17.3592 0 17.2267C0.0662565 16.8291 0.331283 16.6304 0.662565 16.6304C1.0601 16.5641 1.32513 16.8291 1.39139 17.2267C1.39139 17.3592 1.39139 17.4917 1.39139 17.6905C1.39139 22.726 1.39139 27.7615 1.39139 32.8632C1.39139 32.9957 1.39139 33.1282 1.39139 33.3933Z" fill="#4B4B4B"/>
<path d="M8.81223 0C12.9201 0 16.498 3.31283 17.028 7.35447C17.2931 9.54094 16.6305 11.4624 15.4379 13.2513C14.2453 15.1065 12.8539 16.8292 11.5287 18.6181C10.7999 19.6119 10.1374 20.672 9.40853 21.7321C9.07725 22.2622 8.41469 22.3284 8.14966 21.7984C7.22207 20.0095 5.9632 18.5518 4.77058 16.9617C3.57796 15.3715 2.38534 13.7814 1.3915 11.9924C-1.19251 7.1557 2.05406 0.993848 7.35458 0.0662565C7.88463 0.0662565 8.34843 0.0662565 8.81223 0ZM8.81223 19.9432C9.87233 18.5518 10.9987 17.1604 12.0588 15.7028C12.9864 14.3777 13.914 13.0525 14.7753 11.6611C15.5704 10.4023 15.8354 8.94463 15.6366 7.42073C15.1066 3.44534 11.2637 0.662565 7.35458 1.59016C3.84299 2.38523 1.3915 6.02934 2.05406 9.47468C2.25283 10.601 2.71663 11.6611 3.37919 12.5887C4.4393 14.1126 5.56566 15.6365 6.69202 17.1604C7.35458 18.088 8.0834 19.0156 8.81223 19.9432Z" fill="#4B4B4B"/>
<path d="M29.2193 21.7322C29.2193 22.3286 28.623 22.7261 28.1592 22.3948C27.5629 21.9973 27.0329 21.5997 26.4366 21.1359C26.1715 20.9372 26.1053 20.6059 26.304 20.2746C26.5028 19.9433 26.8341 19.7445 27.0991 19.9433C27.7617 20.3409 28.358 20.8047 29.0206 21.3347C29.1531 21.4672 29.1531 21.666 29.2193 21.7322Z" fill="#4B4B4B"/>
<path d="M24.5809 19.4131C24.7134 19.4131 24.9121 19.4131 25.0447 19.4131C25.4422 19.4793 25.7072 19.7443 25.7072 20.0756C25.7072 20.4732 25.4422 20.7382 25.0447 20.8044C24.4484 20.8707 23.852 20.937 23.2557 21.0695C22.8582 21.1357 22.5269 20.937 22.3944 20.6057C22.2619 20.2081 22.4607 19.8106 22.8582 19.7443C23.3882 19.6118 23.9846 19.4793 24.5809 19.3468V19.4131Z" fill="#4B4B4B"/>
<path d="M21.4676 20.5396C21.6001 20.6721 21.9314 20.8046 21.9976 21.0696C22.0639 21.2684 21.9976 21.6659 21.8651 21.7984C21.4013 22.2622 20.8713 22.6598 20.3412 23.0573C20.0099 23.2561 19.6786 23.2561 19.4136 22.9248C19.1486 22.6598 19.1486 22.2622 19.4136 22.0634C19.9437 21.5997 20.54 21.1359 21.1363 20.6721C21.1363 20.6058 21.2688 20.6058 21.4676 20.5396Z" fill="#4B4B4B"/>
<path d="M18.5524 22.5935C18.7512 22.7923 19.0162 22.991 19.0824 23.1898C19.1487 23.3886 19.0162 23.7861 18.8837 23.9186C18.2874 24.2499 17.6248 24.5149 16.9622 24.78C16.631 24.9125 16.2997 24.7137 16.2334 24.3162C16.1009 23.9849 16.1672 23.6536 16.4984 23.5211C17.0948 23.1898 17.6911 22.991 18.3536 22.6598C18.4199 22.6598 18.4861 22.6598 18.5524 22.6598C18.4861 22.6598 18.5524 22.5935 18.5524 22.5935Z" fill="#4B4B4B"/>
<path d="M14.6421 25.1774C14.1783 25.1112 13.7145 25.0449 13.3169 24.9787C12.8531 24.9124 12.6544 24.5149 12.7869 24.1173C12.8531 23.7198 13.2507 23.521 13.6482 23.5873C14.112 23.6535 14.5758 23.7198 14.9733 23.7198C15.5034 23.7198 15.8347 23.9848 15.8347 24.4486C15.8347 24.8461 15.5034 25.1112 14.9733 25.1112C14.9071 25.1774 14.7746 25.1112 14.6421 25.1774Z" fill="#4B4B4B"/>
<path d="M31.0748 24.1837C30.8097 24.4487 30.6772 24.7138 30.4784 24.8463C30.2797 24.9125 29.8821 24.8463 29.7496 24.7138C29.4846 24.3825 29.2196 23.9187 29.0871 23.5211C29.0208 23.3224 29.1533 22.9911 29.3521 22.8586C29.5509 22.7261 29.9484 22.6598 30.0809 22.7923C30.4784 23.1236 30.7435 23.6537 31.0748 24.1837Z" fill="#4B4B4B"/>
<path d="M12.5886 23.4549C12.5886 24.0512 11.9923 24.3824 11.5285 24.1174C11.1972 23.9186 10.9322 23.5874 10.6671 23.3223C10.4684 23.0573 10.4684 22.7923 10.6671 22.5273C10.8659 22.2622 11.1972 22.1297 11.4622 22.3285C11.8598 22.5935 12.191 22.9911 12.5223 23.3223C12.5886 23.3223 12.5886 23.4549 12.5886 23.4549Z" fill="#4B4B4B"/>
<path d="M5.83008 8.67954C5.83008 7.02313 7.15521 5.698 8.81162 5.698C10.468 5.698 11.7932 7.02313 11.7932 8.67954C11.7932 10.336 10.468 11.6611 8.81162 11.6611C7.15521 11.6611 5.83008 10.336 5.83008 8.67954ZM8.74536 10.2697C9.6067 10.2697 10.3355 9.54088 10.3355 8.67954C10.3355 7.81821 9.67296 7.08938 8.81162 7.08938C7.95029 7.08938 7.22146 7.75195 7.22146 8.61328C7.22146 9.54088 7.88403 10.2034 8.74536 10.2697Z" fill="#4B4B4B"/>
</svg>
