<svg width="33" height="33" viewBox="0 0 33 33" fill="none" xmlns="http://www.w3.org/2000/svg">
<path d="M32.9773 16.5114C32.9773 19.0551 32.9773 21.5988 32.9773 24.2333C32.9773 24.6875 32.7956 24.9601 32.4322 25.1418C27.254 27.6855 22.1666 30.32 16.9883 32.8637C16.6249 33.0454 16.3524 33.0454 15.989 32.8637C10.9016 30.2292 5.63248 27.6855 0.454233 25.0509C0.0908465 24.8692 0 24.6875 0 24.2333C0 19.0551 0 13.8768 0 8.69855C0 8.33517 0.0908465 8.06263 0.454233 7.88094C5.63248 5.33723 10.8107 2.70268 15.989 0.0681349C16.3524 -0.0227116 16.6249 -0.0227116 16.9883 0.0681349C22.1666 2.61184 27.254 5.24639 32.4322 7.79009C32.8864 7.97178 32.9773 8.24432 32.9773 8.69855C32.9773 11.3331 32.9773 13.8768 32.9773 16.5114ZM31.8871 9.42533C31.7054 9.51617 31.6146 9.51617 31.5237 9.60702C26.7997 11.969 22.0757 14.331 17.3517 16.693C17.0791 16.7839 17.0791 16.9656 17.0791 17.1473C17.0791 21.7805 17.0791 26.4136 17.0791 31.0468C17.0791 31.1376 17.0791 31.3193 17.0791 31.4102C17.17 31.3193 17.3517 31.3193 17.4425 31.2285C22.1666 28.8665 26.8906 26.5045 31.6146 24.1425C31.8871 24.0516 31.8871 23.8699 31.8871 23.5974C31.8871 18.9642 31.8871 14.331 31.8871 9.69787C31.8871 9.69787 31.8871 9.60702 31.8871 9.42533ZM15.8981 31.501C15.8981 31.4102 15.8981 31.3193 15.8981 31.2285C15.8981 26.5045 15.8981 21.7805 15.8981 17.0564C15.8981 16.8747 15.8073 16.7839 15.6256 16.693C14.2629 16.0571 12.9911 15.3304 11.6284 14.6944C11.5375 14.6944 11.4467 14.6036 11.3558 14.6036C11.3558 14.7853 11.3558 14.8761 11.3558 15.0578C11.3558 16.6022 11.3558 18.2374 11.3558 19.7818C11.3558 20.0544 11.265 20.3269 10.9924 20.4178C10.7199 20.5994 10.4474 20.4178 10.2657 20.1452C9.62973 19.5093 9.08465 18.9642 8.44873 18.3283C8.35788 18.2374 8.08534 18.1466 7.99449 18.1466C7.44941 18.1466 6.99518 18.1466 6.4501 18.1466C5.81418 18.1466 5.63248 17.9649 5.63248 17.329C5.63248 15.512 5.63248 13.6951 5.63248 11.8782C5.63248 11.6965 5.63248 11.5148 5.35994 11.424C3.99725 10.788 2.63455 10.0613 1.27185 9.33448C1.181 9.33448 1.181 9.24363 1.09016 9.24363C1.09016 9.33448 1.09016 9.42533 1.09016 9.51617C1.09016 14.2402 1.09016 18.9642 1.09016 23.5974C1.09016 23.8699 1.181 23.9608 1.3627 24.0516C6.08672 26.4136 10.8107 28.7756 15.5348 31.1376C15.7164 31.4102 15.8073 31.4102 15.8981 31.501ZM31.1604 8.51686C30.9787 8.42601 30.8878 8.33517 30.797 8.33517C29.3434 7.6084 27.9807 6.97247 26.618 6.2457C26.3455 6.15485 26.2546 6.15485 25.9821 6.2457C22.8933 7.88094 19.7137 9.60702 16.6249 11.2423C15.0805 12.0599 13.627 12.8775 12.0826 13.6951C12.2643 13.786 12.3551 13.786 12.446 13.8768C13.7178 14.5127 14.9897 15.1487 16.2615 15.7846C16.4432 15.8754 16.6249 15.8754 16.8066 15.7846C20.8947 13.6951 25.0736 11.6056 29.1617 9.60702C29.7977 9.15279 30.4336 8.88025 31.1604 8.51686ZM1.81693 8.51686C3.27047 9.24363 4.63317 9.87956 5.99587 10.6063C6.17756 10.6972 6.35926 10.6972 6.54095 10.6063C11.0833 8.15348 15.6256 5.79147 20.1679 3.33861C20.2588 3.24776 20.3496 3.24776 20.4405 3.15692C19.1686 2.52099 17.9876 1.97591 16.8066 1.33999C16.5341 1.24914 16.3524 1.24914 16.0798 1.33999C11.81 3.5203 7.54026 5.60977 3.17963 7.79009C2.81624 8.06263 2.36201 8.24432 1.81693 8.51686ZM7.54026 11.3331C7.63111 11.424 7.63111 11.424 7.72195 11.424C8.72127 11.8782 9.72058 12.4233 10.7199 12.8775C10.8107 12.9683 10.9924 12.8775 11.1741 12.8775C15.7164 10.4246 20.3496 8.06263 24.8919 5.60977C24.9828 5.60977 25.0736 5.51893 25.1645 5.42808C24.1652 4.97385 23.2567 4.42877 22.2574 3.97454C21.9849 3.79284 21.8032 3.79284 21.4398 3.97454C17.8968 5.88231 14.3538 7.79009 10.7199 9.69787C9.62973 10.1521 8.63042 10.788 7.54026 11.3331ZM10.1748 18.51C10.1748 18.4191 10.1748 18.3283 10.1748 18.3283C10.1748 16.9656 10.1748 15.6029 10.1748 14.2402C10.1748 14.1493 10.084 13.9677 9.90227 13.8768C9.26635 13.5134 8.63042 13.2409 7.99449 12.8775C7.72195 12.6958 7.26772 12.5141 6.90434 12.2416C6.90434 13.8768 6.90434 15.4212 6.90434 16.9656C7.44941 16.9656 7.90365 16.9656 8.35788 16.9656C8.72127 16.9656 8.90296 17.0564 9.1755 17.329C9.44804 17.7832 9.81142 18.0557 10.1748 18.51Z" fill="#4B4B4B"/>
</svg>
