<svg width="173" height="20" viewBox="0 0 173 20" fill="none" xmlns="http://www.w3.org/2000/svg">
<path d="M5.23243 19.7112L0 0.358398H3.4405L7.45442 15.1956L11.7551 0.358398H14.9805L19.3528 15.2672L23.4384 0.358398H26.8789L21.6465 19.7112H17.6326L13.4036 5.23245L9.17468 19.7112H5.23243Z" fill="white"/>
<path d="M29.2441 0.358398H32.5413V19.7112H29.2441V0.358398Z" fill="white"/>
<path d="M39.494 16.629H47.4502V19.6395H36.2686V0.286621H39.494V16.629Z" fill="white"/>
<path d="M57.5572 0.358398C60.2809 0.358398 62.5029 1.2902 64.2231 3.15381C66.0151 5.01741 66.9469 7.31108 66.9469 10.0348C66.9469 12.7585 66.0151 15.0522 64.2231 16.9158C62.4312 18.7794 60.2092 19.7112 57.5572 19.7112H49.8877V0.358398H57.5572ZM57.5572 16.7008C59.4208 16.7008 60.926 16.0557 62.0728 14.8372C63.2196 13.6187 63.8647 11.9701 63.8647 10.1065C63.8647 8.17121 63.2913 6.59431 62.0728 5.3758C60.926 4.15729 59.4208 3.51219 57.5572 3.51219H53.1132V16.7725H57.5572V16.7008Z" fill="white"/>
<path d="M84.2925 14.1921C84.2925 15.769 83.719 17.0592 82.5722 18.1343C81.4254 19.2095 80.0635 19.7112 78.4149 19.7112H69.957V0.358398H77.7698C79.3467 0.358398 80.7086 0.860139 81.8554 1.86362C83.0023 2.8671 83.504 4.15729 83.504 5.66251C83.504 7.38276 82.8589 8.67295 81.4971 9.60475C83.2173 10.5366 84.2925 12.1851 84.2925 14.1921ZM73.1825 3.36884V8.45792H77.7698C79.2034 8.45792 80.2785 7.31108 80.2785 5.94922C80.2785 4.51567 79.2034 3.44052 77.7698 3.44052H73.1825V3.36884ZM78.4149 16.7008C79.9202 16.7008 81.067 15.554 81.067 13.9771C81.067 12.4718 79.9202 11.2533 78.4149 11.2533H73.2542V16.7008H78.4149Z" fill="white"/>
<path d="M90.5282 16.7008H99.2011V19.7112H87.3027V0.358398H99.0578V3.36884H90.5282V8.38624H98.341V11.3967H90.5282V16.7008Z" fill="white"/>
<path d="M113.25 19.7112L109.093 12.6869H105.294V19.7112H102.068V0.358398H109.881C111.673 0.358398 113.107 0.931816 114.325 2.222C115.544 3.36884 116.189 4.87406 116.189 6.59431C116.189 9.03133 114.612 11.325 112.318 12.1851L116.762 19.7112H113.25ZM105.294 3.36884V9.81978H109.881C111.601 9.81978 112.963 8.38624 112.963 6.59431C112.963 4.80238 111.601 3.36884 109.881 3.36884H105.294Z" fill="white"/>
<path d="M130.452 19.7112L126.295 12.6869H122.496V19.7112H119.271V0.358398H127.083C128.875 0.358398 130.309 0.931816 131.527 2.222C132.746 3.44052 133.391 4.87406 133.391 6.59431C133.391 9.03133 131.814 11.325 129.52 12.1851L133.964 19.7112H130.452ZM122.496 3.36884V9.81978H127.083C128.804 9.81978 130.165 8.38624 130.165 6.59431C130.165 4.80238 128.804 3.36884 127.083 3.36884H122.496Z" fill="white"/>
<path d="M136.33 0.358398H139.556V19.7112H136.33V0.358398Z" fill="white"/>
<path d="M146.58 16.7008H155.253V19.7112H143.354V0.358398H155.11V3.36884H146.58V8.38624H154.393V11.3967H146.58V16.7008Z" fill="white"/>
<path d="M157.475 15.2672L160.27 13.6903C161.058 15.8407 162.635 16.9158 165.144 16.9158C167.581 16.9158 168.8 15.9123 168.8 14.4071C168.8 13.6187 168.441 13.0452 167.796 12.6152C167.151 12.1851 166.004 11.7551 164.284 11.2533C162.42 10.6799 161.489 10.3215 160.198 9.46138C158.908 8.60126 158.335 7.31107 158.335 5.59082C158.335 3.87057 158.98 2.5087 160.198 1.50522C161.417 0.50174 162.922 0 164.642 0C167.796 0 170.233 1.5769 171.452 4.22895L168.728 5.73417C167.939 3.94224 166.506 3.01044 164.642 3.01044C162.779 3.01044 161.56 3.94224 161.56 5.44746C161.56 6.88101 162.492 7.5261 165.502 8.4579C166.219 8.67294 166.793 8.88797 167.151 9.03132C167.509 9.17468 168.011 9.31803 168.585 9.60474C169.23 9.81977 169.731 10.1065 170.018 10.3932C171.093 11.1816 172.168 12.5435 172.025 14.3354C172.025 16.0557 171.38 17.4892 170.09 18.4927C168.8 19.4962 167.151 19.9979 165.072 19.9979C161.274 20.0696 158.55 18.2777 157.475 15.2672Z" fill="white"/>
</svg>
