<svg width="167" height="31" viewBox="0 0 167 31" fill="none" xmlns="http://www.w3.org/2000/svg">
<path d="M78.1002 25.9999H81.4002L86.0002 8.8999V25.9999H89.7002V3.3999H84.6002L80.0002 19.9999L75.4002 3.3999H70.2002V25.9999H73.4002V8.8999L78.1002 25.9999ZM105.2 14.7999C105.2 10.7999 103.2 9.2999 99.1002 9.2999C96.5002 9.2999 94.5002 10.0999 93.3002 10.7999V13.9999C94.3002 13.1999 96.6002 12.3999 98.6002 12.3999C100.5 12.3999 101.3 13.0999 101.3 14.7999V15.6999H100.7C94.8002 15.6999 92.1002 17.6999 92.1002 20.9999C92.1002 24.2999 94.1002 26.1999 97.1002 26.1999C99.4002 26.1999 100.4 25.4999 101.1 24.6999H101.3C101.3 25.0999 101.5 25.6999 101.6 25.9999H105.4C105.3 24.6999 105.2 23.2999 105.2 21.9999V14.7999ZM101.3 22.0999C100.8 22.7999 99.9002 23.3999 98.5002 23.3999C96.9002 23.3999 96.1002 22.3999 96.1002 20.9999C96.1002 19.0999 97.4002 18.3999 100.8 18.3999H101.4L101.3 22.0999ZM111.9 9.5999H108.3V30.6999H112.2V24.0999C113.2 25.5999 114.6 26.2999 116.3 26.2999C120.1 26.2999 122.7 23.2999 122.7 17.7999C122.7 12.2999 120.2 9.2999 116.5 9.2999C114.7 9.2999 113.2 10.0999 112.1 11.6999L111.9 9.5999ZM115.2 23.2999C113.2 23.2999 112.1 21.5999 112.1 17.8999C112.1 14.0999 113.2 12.3999 115.4 12.3999C117.5 12.3999 118.6 14.0999 118.6 17.7999C118.6 21.5999 117.5 23.2999 115.2 23.2999ZM134.8 25.9999H139.2L133 17.1999L138.5 9.5999H134.6L129.1 17.1999V9.5999H125.2V25.9999H129.1V17.9999L134.8 25.9999ZM152.2 24.8999V21.6999C151 22.4999 149 23.1999 147.1 23.1999C144.3 23.1999 143.2 21.8999 143 19.0999H152.3V16.9999C152.3 11.2999 149.8 9.1999 145.9 9.1999C141.2 9.1999 138.9 12.7999 138.9 17.7999C138.9 23.4999 141.7 26.2999 146.6 26.2999C149.3 26.2999 151.1 25.6999 152.2 24.8999ZM145.9 12.3999C147.8 12.3999 148.4 13.9999 148.4 15.9999V16.2999H143C143.1 13.6999 144.1 12.3999 145.9 12.3999ZM166.2 12.6999V9.5999H153.2V12.6999H157.8V25.9999H161.7V12.6999H166.2Z" fill="black"/>
<path d="M47.0997 30C55.3997 30 62.0997 23.3 62.0997 15C62.0997 6.7 55.3997 0 47.0997 0C38.7997 0 32.0997 6.7 32.0997 15C31.9997 23.3 38.7997 30 47.0997 30Z" fill="white"/>
<path d="M15 30C23.2843 30 30 23.2843 30 15C30 6.71573 23.2843 0 15 0C6.71573 0 0 6.71573 0 15C0 23.2843 6.71573 30 15 30Z" fill="#FC3F1D"/>
<path d="M17.1998 8.4H15.6998C13.0998 8.4 11.7998 9.7 11.7998 11.7C11.7998 13.9 12.6998 15 14.5998 16.3L16.0998 17.4L11.7998 24.1H8.2998L12.3998 18C9.9998 16.3 8.6998 14.7 8.6998 11.9C8.6998 8.4 11.0998 6 15.6998 6H20.2998V24H17.2998L17.1998 8.4Z" fill="white"/>
<mask id="mask0_187_2987" style="mask-type:luminance" maskUnits="userSpaceOnUse" x="32" y="0" width="31" height="30">
<path d="M47.0997 30C55.3997 30 62.0997 23.3 62.0997 15C62.0997 6.7 55.3997 0 47.0997 0C38.7997 0 32.0997 6.7 32.0997 15C31.9997 23.3 38.7997 30 47.0997 30Z" fill="white"/>
</mask>
<g mask="url(#mask0_187_2987)">
<path d="M39.7 8.2001L26.5 25.5001L30 29.5001L39.8 16.5001L38.8 23.6001L44.3 25.5001L51 14.8001C50.7 16.8001 50.2 21.4001 54.6 22.8001C61.5 24.9001 67.5 12.5001 70.3 6.2001L66.3 4.1001C63.2 10.6001 58.4 17.8001 56.5 17.3001C54.6 16.8001 56.3 10.7001 57.4 6.8001V6.7001L51.3 4.6001L44 16.5001L45 10.0001L39.7 8.2001Z" fill="black"/>
</g>
</svg>
